SplineFontDB: 3.0
FontName: LinLibertineDisplaySlantedO
FullName: Linux Libertine Display Slanted O
FamilyName: Linux Libertine Display Slanted O
Weight: Book
Copyright: Linux Libertine by Philipp H. Poll,\nOpen Font under Terms of following Free Software Licenses:\nGPL (General Public License) with font-exception and OFL (Open Font License).\nCreated with FontForge (http://fontforge.sf.net)\nSept 2003, 2004, 2005, 2006, 2007, 2008, 2009, 2010
UComments: "2003-08-29: Created.+AAoA-2004-07-25: v(1.0) release candidate+AAoA-2005-12-28: v(1.1.0) stable+AAoA-2006-01-01: v(2.0.0) stable+AAoA-2006-09-05: v(2.2.0) stable+AAoA-2006-12-04: v(2.3.0) stable+AAoA-2007-03-11: v(2.4.0) stable+AAoA-2007-12-00: v(2.7.0) stable+AAoA-2008-06-00: v(2.8.14) stable+AAoA" 
Version: 5.0.4
ItalicAngle: 0
UnderlinePosition: -98
UnderlineWidth: 40
Ascent: 754
Descent: 246
LayerCount: 2
Layer: 0 0 "Back"  1
Layer: 1 0 "Fore"  0
NeedsXUIDChange: 1
XUID: [1021 993 1524925707 2876416]
FSType: 0
OS2Version: 0
OS2_WeightWidthSlopeOnly: 0
OS2_UseTypoMetrics: 1
CreationTime: 1156455862
ModificationTime: 1292578225
PfmFamily: 17
TTFWeight: 400
TTFWidth: 5
LineGap: 0
VLineGap: 0
OS2TypoAscent: 894
OS2TypoAOffset: 0
OS2TypoDescent: -246
OS2TypoDOffset: 0
OS2TypoLinegap: 0
OS2WinAscent: 894
OS2WinAOffset: 0
OS2WinDescent: 246
OS2WinDOffset: 0
HheadAscent: 894
HheadAOffset: 0
HheadDescent: -246
HheadDOffset: 0
OS2FamilyClass: 261
OS2Vendor: 'PfEd'
Lookup: 3 0 0 "'aalt' Alle Alternativen zeigen"  {"'aalt' Alle Alternativen zeigen 1"  } ['aalt' ('DFLT' <'dflt' > 'cyrl' <'dflt' > 'grek' <'dflt' > 'latn' <'AZE ' 'CRT ' 'DEU ' 'MOL ' 'ROM ' 'TRK ' 'dflt' > ) ]
Lookup: 1 0 0 "'locl' Localized Forms Romaenisch"  {"'locl' Localized Forms Romaenisch 1"  } ['locl' ('latn' <'MOL ' 'ROM ' > ) ]
Lookup: 1 0 0 "'smcp' Gemeine nach Kapitaelchen i > i.sc"  {"'smcp' Gemeine nach Kapitaelchen i > i.sc 1"  } ['smcp' ('DFLT' <'dflt' > 'cyrl' <'dflt' > 'grek' <'dflt' > 'latn' <'DEU ' 'MOL ' 'ROM ' 'dflt' > ) ]

StartChar: exclam
Encoding: 33 33 0
Width: 288
VWidth: 999
Flags: HW
HStem: -5 100<105.006 183.198> 638 20G<132.5 155.5>
VStem: 93 102<404.035 646.654> 94 100<6.12776 83.2822>
LayerCount: 2
Fore
SplineSet
283.862 658 m 0
 306.862 658 330.823 639 319.346 585 c 0
 305.529 520 283.602 478 255.322 392 c 0
 220.366 284 206.612 224 201.637 210 c 0
 198.299 199 194.386 190 184.386 190 c 0
 174.386 190 173.874 197 174.149 203 c 0
 176.612 224 189.743 314 198.322 392 c 0
 208.027 480 202.467 515 217.346 585 c 0
 228.823 639 260.862 658 283.862 658 c 0
103.99 47 m 0
 109.092 71 142.193 95 166.193 95 c 0
 193.193 95 208.241 67 203.14 43 c 0
 198.655 21.9004 168.938 -5 140.938 -5 c 0
 116.938 -5 98.4639 21 103.99 47 c 0
EndSplineSet
Colour: ff9ccc
EndChar

StartChar: quotedbl
Encoding: 34 34 1
Width: 336
VWidth: 999
Flags: HW
HStem: 426 218<85.8119 118.678> 427 218<211.812 244.678>
VStem: 63 86<487.695 633.98> 189 86<488.695 634.98>
LayerCount: 2
Fore
SplineSet
305.762 427 m 1
 305.762 427 313.559 586 315.471 595 c 0
 320.147 617 347.099 645 377.099 645 c 0
 403.099 645 408.485 628 405.085 612 c 0
 401.684 596 333.612 431 333.612 431 c 1
 305.762 427 l 1
179.549 426 m 1
 179.549 426 187.346 585 189.259 594 c 0
 193.935 616 220.887 644 250.887 644 c 0
 276.887 644 282.273 627 278.872 611 c 0
 275.471 595 207.399 430 207.399 430 c 1
 179.549 426 l 1
EndSplineSet
Colour: ff00ff
EndChar

StartChar: numbersign
Encoding: 35 35 2
Width: 465
VWidth: 487
Flags: HW
HStem: 192 53<34 119 165 269 316 404> 360 53<61 146 191 297 342 430>
DStem2: 91 14 128 14 0.158856 0.987302<5.87769 180.188 239.822 350.344 409.819 585.275> 242 14 280 14 0.155524 0.987832<5.9099 180.033 239.698 350.344 409.697 585.12>
LayerCount: 2
Fore
SplineSet
331.076 245 m 1
 373.521 360 l 1
 260.521 360 l 1
 217.076 245 l 1
 331.076 245 l 1
411.521 360 m 1
 368.076 245 l 1
 463.076 245 l 1
 444.811 192 l 1
 350.811 192 l 1
 282.976 14 l 1
 244.976 14 l 1
 309.811 192 l 1
 197.811 192 l 1
 130.976 14 l 1
 93.9756 14 l 1
 159.811 192 l 1
 66.8105 192 l 1
 86.0762 245 l 1
 180.076 245 l 1
 222.521 360 l 1
 129.521 360 l 1
 148.786 413 l 1
 241.786 413 l 1
 308.834 592 l 1
 346.834 592 l 1
 278.786 413 l 1
 392.786 413 l 1
 458.834 592 l 1
 496.834 592 l 1
 429.786 413 l 1
 525.786 413 l 1
 506.521 360 l 1
 411.521 360 l 1
EndSplineSet
EndChar

StartChar: dollar
Encoding: 36 36 3
Width: 464
VWidth: 999
Flags: HW
HStem: -11 35<161.849 296.475> 1 21G<61 72> 441 21G<353 389> 573 31<166.832 287.982>
VStem: 44 31<118.732 154.677> 49 67<411.842 525.824> 209 36<-86 662> 346 77<78.6538 208.812> 358 31<444.097 460>
LayerCount: 2
Fore
SplineSet
99.7637 13 m 0
 82.7637 13 83.2129 1 61.2129 1 c 1
 69.502 40 72.1934 95 76.7334 154 c 1
 108.371 157 l 1
 111.174 93.5 146.588 35.7002 214.441 25.5996 c 1
 268.346 279.2 l 1
 211.991 306.7 123.14 348.8 145.288 453 c 0
 164.567 543.7 257.771 595 337.15 602.9 c 1
 349.713 662 l 1
 385.713 662 l 1
 373.342 603.8 l 1
 424.187 602.6 455.384 596 494.684 596 c 1
 487.481 548 486.641 497 483.588 445 c 1
 451.737 441 l 1
 450.776 460 l 1
 444.63 528 421.452 564.8 366.54 571.8 c 1
 318.63 346.4 l 1
 373.647 323.9 480.943 272.6 458.072 165 c 0
 450.76 130.6 409.576 1.2998 242.832 -10.2002 c 1
 226.72 -86 l 1
 190.72 -86 l 1
 206.704 -10.7998 l 1
 146.336 -8.2998 120.463 13 99.7637 13 c 0
301.327 265 m 1
 250.271 24.7998 l 1
 291.906 29.2002 357.457 53.9004 374.482 134 c 0
 392.358 218.1 340.557 248.2 301.327 265 c 1
285.797 361.3 m 1
 330.604 572.1 l 1
 278.644 565.7 227.975 526.8 214.414 463 c 0
 203.978 413.9 248.878 380.5 285.797 361.3 c 1
EndSplineSet
EndChar

StartChar: percent
Encoding: 37 37 4
Width: 637
VWidth: 999
Flags: HW
HStem: -12 31<446.255 513.747> 225 31<488.273 551.957> 303 31<124.294 192.057> 484 37<279.857 459.046> 540 31<166.55 231.846>
VStem: 57 54<341.762 480.46> 244 33<402.471 504.773> 378 55<26.327 164.53> 565 33<87.2343 214.183>
DStem2: 102 3 136 -12 0.584454 0.811427<7.70004 615.532 651.531 704.931>
LayerCount: 2
Fore
SplineSet
450.643 83 m 0
 439.589 31 462.039 19 481.039 19 c 0
 536.039 19 587.956 108 599.859 164 c 0
 610.912 216 584.825 225 570.825 225 c 0
 521.825 225 462.971 141 450.643 83 c 0
398.83 98 m 0
 416.26 180 492.414 256 566.414 256 c 0
 606.414 256 648.589 238 633.072 165 c 0
 618.83 98 551.449 -12 468.449 -12 c 0
 407.449 -12 387.565 45 398.83 98 c 0
474.742 521 m 0
 516.742 521 596.293 533 636.22 575 c 1
 664.819 559 l 1
 133.449 -12 l 1
 102.638 3 l 1
 567.916 503 l 1
 526.728 488 486.877 484 456.877 484 c 0
 433.877 484 398.003 494 381.341 505 c 1
 381.854 498 380.94 489 379.027 480 c 0
 365.424 416 297.404 303 213.404 303 c 0
 151.404 303 133.732 361 144.573 412 c 0
 163.3 500.1 239.37 571 311.37 571 c 0
 339.37 571 365.606 558 373.056 546 c 1
 421.742 521 456.742 521 474.742 521 c 0
195.598 398 m 0
 184.545 346 207.994 334 225.994 334 c 0
 280.994 334 333.486 421 345.814 479 c 0
 356.442 529 333.78 540 315.78 540 c 0
 266.78 540 207.926 456 195.598 398 c 0
EndSplineSet
EndChar

StartChar: parenleft
Encoding: 40 40 5
Width: 298
VWidth: 999
Flags: HW
VStem: 44 83<97.6984 405.148>
LayerCount: 2
Fore
SplineSet
97.5645 252 m 0
 137.1 438 265.597 605 406.277 707 c 1
 417.508 706.2 422.241 699.3 423.451 689 c 1
 383.8 653 236.467 515 180.564 252 c 0
 124.662 -11 212.329 -149 237.252 -187 c 1
 232.552 -195 223.063 -202 212.639 -204 c 1
 42.8984 -24 87.999 207 97.5645 252 c 0
EndSplineSet
Substitution2: "'c2sc' Versale nach Kapitaelchen 1" parenleft.sc
AlternateSubs2: "'aalt' Alle Alternativen zeigen 1" parenleft.sc
Substitution2: "'sinf' Wissenschaftliche Indices 1" parenleft.inferior
Substitution2: "'sups' Hochgestellte 1" parenleft.superior
Substitution2: "'case' Versalformen 1" parenleft.sc
EndChar

StartChar: parenright
Encoding: 41 41 6
Width: 298
VWidth: 999
Flags: HW
VStem: 171 83<98.8522 406.302>
LayerCount: 2
Fore
SplineSet
307.564 252 m 0
 268.028 66 139.532 -101 -1.14941 -203 c 1
 -12.3789 -202.2 -17.1123 -195.3 -18.3232 -185 c 1
 21.3291 -149 168.662 -11 224.564 252 c 0
 280.467 515 192.8 653 167.877 691 c 1
 172.577 699 182.064 706 192.49 708 c 1
 362.229 528 317.129 297 307.564 252 c 0
EndSplineSet
Substitution2: "'c2sc' Versale nach Kapitaelchen 1" parenright.sc
AlternateSubs2: "'aalt' Alle Alternativen zeigen 1" parenright.sc
Substitution2: "'sinf' Wissenschaftliche Indices 1" parenright.inferior
Substitution2: "'sups' Hochgestellte 1" parenright.superior
Substitution2: "'case' Versalformen 1" parenright.sc
Colour: ff00ff
EndChar

StartChar: asterisk
Encoding: 42 42 7
Width: 369
VWidth: 999
Flags: HMW
LayerCount: 2
Fore
SplineSet
284.269 547 m 1
 271.906 550 258.119 551 243.119 551 c 0
 194.119 551 163.606 558 169.983 588 c 0
 172.959 602 185.36 618 209.36 618 c 0
 243.36 618 254.346 585 294.52 567 c 1
 298.81 606 285.548 633 291.075 659 c 0
 295.538 680 311.364 698 329.364 698 c 0
 347.364 698 360.026 687 354.925 663 c 0
 349.186 636 323.684 596 315.307 566 c 1
 365.559 586 388.36 618 421.36 618 c 0
 448.36 618 451.108 598 448.983 588 c 0
 442.606 558 406.119 551 372.119 551 c 0
 353.119 551 334.906 550 316.269 547 c 1
 342.404 510 389.278 500 380.776 460 c 0
 376.95 442 359.612 431 345.612 431 c 0
 306.612 431 313.428 496 296.718 535 c 1
 262.152 490 242.612 431 204.612 431 c 0
 187.612 431 178.375 444 181.563 459 c 0
 190.703 502 243.404 510 284.269 547 c 1
EndSplineSet
EndChar

StartChar: plus
Encoding: 43 43 8
Width: 527
VWidth: 999
Flags: HMW
HStem: 208 49<66 238 289 461>
VStem: 238 51<34 208 257 431>
LayerCount: 2
Fore
SplineSet
343.627 257 m 1
 515.627 257 l 1
 505.212 208 l 1
 333.212 208 l 1
 296.227 34 l 1
 245.227 34 l 1
 282.212 208 l 1
 110.212 208 l 1
 120.627 257 l 1
 292.627 257 l 1
 329.612 431 l 1
 380.612 431 l 1
 343.627 257 l 1
EndSplineSet
AlternateSubs2: "'aalt' Alle Alternativen zeigen 1" plus.superior plus.inferior uni2098
Substitution2: "'sinf' Wissenschaftliche Indices 1" plus.inferior
Substitution2: "'sups' Hochgestellte 1" plus.superior
EndChar

StartChar: slash
Encoding: 47 47 9
Width: 323
VWidth: 999
Flags: HW
HStem: 626 20G<245.277 293>
VStem: 15 278
LayerCount: 2
Fore
SplineSet
430.312 646 m 1
 43.459 -59 l 1
 2.45898 -59 l 1
 389.312 646 l 1
 430.312 646 l 1
EndSplineSet
Substitution2: "'sups' Hochgestellte 1" fraction
Ligature2: "'frac' Brueche 1" uni2215
AlternateSubs2: "'aalt' Alle Alternativen zeigen 1" uni2215
EndChar

StartChar: one
Encoding: 49 49 10
Width: 465
VWidth: 999
Flags: HW
HStem: -5 23<123.133 190.563 308.437 375.867> 590 20G<257.333 286.75>
VStem: 215.5 68<32.4207 512.708>
LayerCount: 2
Fore
SplineSet
308.169 109 m 0
 293.326 26 306.464 21 375.826 18 c 1
 380.551 12 378.213 1 370.938 -5 c 1
 321.149 -4 299.5 0 253 0 c 0
 203.8 0 175.149 -4 125.938 -5 c 1
 121.213 1 123.551 12 130.826 18 c 1
 201.464 21 216.727 26 237.169 109 c 0
 244.545 139 259.988 209.3 274.909 279.5 c 0
 289.831 349.7 305.337 425 310.713 455 c 0
 316.84 489 319.541 513 303.041 513 c 0
 284.041 513 260.267 507 210.728 488 c 1
 203.024 494.1 199.581 498.6 200.404 510 c 1
 297.119 551 352.068 575.7 414.659 610 c 1
 418.159 610 420.617 609.8 419.597 605 c 0
 415.134 592 399.867 531 385.114 471 c 0
 377.737 441 361.189 365.5 345.142 290 c 0
 329.094 214.5 313.545 139 308.169 109 c 0
EndSplineSet
Substitution2: "'case' Versalformen 1" one.cap
AlternateSubs2: "'aalt' Alle Alternativen zeigen 1" one.oldstyle one.superior one.fitted
Substitution2: "'sups' Hochgestellte 1" one.superior
Substitution2: "'sinf' Wissenschaftliche Indices 1" one.inferior
Substitution2: "'pnum' Proportionalziffern 1" one.fitted
Substitution2: "'onum' Minuskelziffern 1" one.taboldstyle
EndChar

StartChar: two
Encoding: 50 50 11
Width: 465
VWidth: 487
Flags: HW
HStem: 0 55<135 362.002> 436 21G<90.5 109.5> 585 25<169.348 265.667>
VStem: 61 70<55 86.125 453.596 533.813> 322 88<375.443 534.727> 393 19<127.576 160.756>
LayerCount: 2
Fore
SplineSet
160.477 468 m 0
 173.229 528 249.659 610 360.659 610 c 0
 441.659 610 530.307 566 507.351 458 c 0
 491.196 382 438.844 338 370.153 283 c 2
 248.535 186 l 2
 242.473 181 156.894 103 146.69 55 c 1
 334.69 55 l 2
 370.69 55 395.13 90 427.222 161 c 1
 437.646 163 440.222 161 445.159 156 c 1
 437.782 126 411.841 51 387.575 -2 c 1
 387.575 -2 342 0 310 0 c 2
 135 0 l 2
 103 0 61.5752 -2 61.5752 -2 c 1
 74.1152 57 100.318 105 219.574 205 c 1
 309.091 278 l 1
 380.844 338 404.897 390 418.501 454 c 0
 438.906 550 385.346 585 349.346 585 c 0
 276.346 585 245.568 539 240.254 514 c 0
 238.554 506 242.641 497 243.152 490 c 0
 243.665 483 244.602 478 242.901 470 c 0
 238.863 451 210.675 436 193.675 436 c 0
 172.675 436 156.013 447 160.477 468 c 0
EndSplineSet
Substitution2: "'case' Versalformen 1" two.cap
AlternateSubs2: "'aalt' Alle Alternativen zeigen 1" two.oldstyle two.superior two.fitted
Substitution2: "'sups' Hochgestellte 1" two.superior
Substitution2: "'sinf' Wissenschaftliche Indices 1" two.inferior
Substitution2: "'pnum' Proportionalziffern 1" two.fitted
Substitution2: "'onum' Minuskelziffern 1" two.taboldstyle
EndChar

StartChar: three
Encoding: 51 51 12
Width: 465
VWidth: 487
Flags: HW
HStem: -11 25<162.154 247.227> 317 22<158.409 191.321> 585 25<173.36 262.941>
VStem: 51 73<451.833 536.318> 309 71<432.513 551.843> 335 82<108.579 271.424>
LayerCount: 2
Fore
SplineSet
343.346 585 m 0
 317.346 585 243.669 563 230.065 499 c 0
 226.027 480 209.013 447 180.013 447 c 0
 156.013 447 150.264 467 153.239 481 c 0
 160.254 514 222.659 610 369.659 610 c 0
 471.659 610 496.056 546 487.129 504 c 0
 479.901 470 465.124 424 357.37 364 c 1
 357.945 362 l 1
 414.82 352 483.105 311 459.937 202 c 0
 431.879 70 308.662 -11 189.662 -11 c 0
 129.662 -11 51.4014 16 59.9033 56 c 0
 63.3037 72 88.3428 91 109.343 91 c 0
 129.343 91 139.792 79 146.816 65 c 0
 154.99 47 156.976 14 207.976 14 c 0
 242.976 14 346.69 55 374.961 188 c 0
 398.979 301 327.806 319 270.806 319 c 0
 257.806 319 244.806 319 227.381 317 c 1
 227.057 339 l 1
 320.032 353 402.524 440 412.94 489 c 0
 426.119 551 387.346 585 343.346 585 c 0
EndSplineSet
Substitution2: "'case' Versalformen 1" three.cap
AlternateSubs2: "'aalt' Alle Alternativen zeigen 1" three.oldstyle three.superior three.fitted
Substitution2: "'sups' Hochgestellte 1" three.superior
Substitution2: "'sinf' Wissenschaftliche Indices 1" three.inferior
Substitution2: "'pnum' Proportionalziffern 1" three.fitted
Substitution2: "'onum' Minuskelziffern 1" three.taboldstyle
EndChar

StartChar: four
Encoding: 52 52 13
Width: 465
VWidth: 487
Flags: HW
HStem: -5 23<186.133 248.62 355.309 413.867> 172 37<64.2572 437.733> 590 20G<311.5 342>
VStem: 271 69<29.9697 514.017>
LayerCount: 2
Fore
SplineSet
467.424 209 m 2
 478.424 209 481.149 203 479.023 193 c 0
 476.473 181 459.56 172 445.56 172 c 2
 375.359 172 l 1
 365.166 123.1 357.34 84.4004 354.879 70 c 0
 346.789 23 365.676 22 413.826 18 c 1
 418.551 12 416.213 1 408.938 -5 c 1
 377.149 -4 347.4 0 308 0 c 0
 262 0 221.149 -4 188.938 -5 c 1
 184.213 1 186.551 12 193.826 18 c 1
 237.464 21 274.302 24 285.879 70 c 0
 289.54 84.4004 298.145 123 308.76 172 c 1
 103.56 172 l 2
 73.5596 172 73.2988 199 73.4873 214 c 1
 195.383 357 346.849 521.5 426.321 599 c 0
 430.978 603.5 437.659 610 444.659 610 c 2
 469.659 610 l 1
 471.234 608 l 1
 467.876 600.2 461.244 561 448.616 511 c 0
 440.493 478.9 407.706 327 383.024 209 c 1
 467.424 209 l 2
316.824 209 m 1
 342.519 328 374.71 481.8 380.254 514 c 1
 291.231 419.8 176.196 291.2 107.424 209 c 1
 316.824 209 l 1
EndSplineSet
Substitution2: "'case' Versalformen 1" four.cap
AlternateSubs2: "'aalt' Alle Alternativen zeigen 1" four.oldstyle four.superior four.fitted
Substitution2: "'sups' Hochgestellte 1" four.superior
Substitution2: "'sinf' Wissenschaftliche Indices 1" four.inferior
Substitution2: "'pnum' Proportionalziffern 1" four.fitted
Substitution2: "'onum' Minuskelziffern 1" four.taboldstyle
EndChar

StartChar: five
Encoding: 53 53 14
Width: 465
VWidth: 487
Flags: HW
HStem: -11 25<173.394 247.945> 351 40<121.777 264.656> 543 57<140.42 373.874> 549 62<140.54 216.266 220.485 265.754 269.409 373>
VStem: 325 83<105.802 288.445>
LayerCount: 2
Fore
SplineSet
365.173 189 m 0
 388.342 298 342.607 351 277.607 351 c 0
 241.607 351 202.757 347 145.506 327 c 1
 238.597 605 l 1
 272.959 602 308.534 600 345.534 600 c 0
 398.534 600 453.597 605 511.872 611 c 1
 518.021 607 l 1
 489.693 549 l 1
 447.844 545 413.418 543 383.418 543 c 0
 335.418 543 294.481 548 258.331 552 c 1
 200.709 375 l 1
 220.196 382 269.109 391 312.109 391 c 0
 424.109 391 472.617 304 451.999 207 c 0
 425.217 81 317.662 -11 193.662 -11 c 0
 136.662 -11 58.8887 23 67.6035 64 c 0
 71.8545 84 93.1934 95 112.193 95 c 0
 133.193 95 147.005 80 156.391 63 c 0
 167.361 43.0996 173.976 14 211.976 14 c 0
 271.976 14 344.98 94 365.173 189 c 0
EndSplineSet
Substitution2: "'case' Versalformen 1" five.cap
AlternateSubs2: "'aalt' Alle Alternativen zeigen 1" five.oldstyle five.superior five.fitted
Substitution2: "'sups' Hochgestellte 1" five.superior
Substitution2: "'sinf' Wissenschaftliche Indices 1" five.inferior
Substitution2: "'pnum' Proportionalziffern 1" five.fitted
Substitution2: "'onum' Minuskelziffern 1" five.taboldstyle
EndChar

StartChar: six
Encoding: 54 54 15
Width: 465
VWidth: 487
Flags: HW
HStem: -11 25<203.442 291.149> 345 25<178.862 279.141> 591 20G<305.5 360>
VStem: 44 77<108.251 349.574> 351 77<101.831 275.878>
LayerCount: 2
Fore
SplineSet
209.057 339 m 1
 243.48 358.4 296.246 370 327.646 370 c 0
 463.646 370 489.216 288 470.937 202 c 0
 452.656 116 372.662 -11 241.662 -11 c 0
 164.662 -11 50.1641 29 93.3135 232 c 0
 110.105 311 160.447 402 237.752 474 c 0
 307.568 539 378.495 581 485.872 611 c 1
 492.81 606 488.896 597 486.346 585 c 1
 340.49 534.4 254.912 431 209.057 339 c 1
195.878 310.4 m 1
 183.101 280.4 174.649 252.4 169.676 229 c 0
 133.328 58 194.976 14 257.976 14 c 0
 306.976 14 366.517 73 389.897 183 c 0
 400.525 233 399.332 345 301.332 345 c 0
 281.232 345 240.528 343.1 195.878 310.4 c 1
EndSplineSet
Substitution2: "'case' Versalformen 1" six.cap
AlternateSubs2: "'aalt' Alle Alternativen zeigen 1" six.oldstyle six.superior six.fitted
Substitution2: "'sups' Hochgestellte 1" six.superior
Substitution2: "'sinf' Wissenschaftliche Indices 1" six.inferior
Substitution2: "'pnum' Proportionalziffern 1" six.fitted
Substitution2: "'onum' Minuskelziffern 1" six.taboldstyle
EndChar

StartChar: seven
Encoding: 55 55 16
Width: 465
VWidth: 487
Flags: HW
HStem: -13 21G<127 195> 545 55<109.953 360.901> 591 20G<399.5 424>
VStem: 51 22<448.946 478.14>
LayerCount: 2
Fore
SplineSet
275.844 545 m 2
 243.844 545 207.229 528 168.226 448 c 1
 156.949 446.7 157.104 447.9 146.863 451 c 1
 165.916 503 189.669 563 200.872 611 c 0
 201.51 614 202.51 614 205.51 614 c 0
 222.659 610 218.534 600 252.534 600 c 2
 458.534 600 l 2
 496.534 600 519.81 606 537.872 611 c 1
 551.321 599 l 1
 381.293 326 286.009 160 192.874 -10 c 1
 132.236 -13 l 1
 125.725 -6 l 1
 226.033 146 358.607 351 477.844 545 c 1
 275.844 545 l 2
EndSplineSet
Substitution2: "'case' Versalformen 1" seven.cap
AlternateSubs2: "'aalt' Alle Alternativen zeigen 1" seven.oldstyle seven.superior seven.fitted
Substitution2: "'sups' Hochgestellte 1" seven.superior
Substitution2: "'sinf' Wissenschaftliche Indices 1" seven.inferior
Substitution2: "'pnum' Proportionalziffern 1" seven.fitted
Substitution2: "'onum' Minuskelziffern 1" seven.taboldstyle
EndChar

StartChar: nine
Encoding: 57 57 17
Width: 465
VWidth: 487
Flags: HW
HStem: -12 20<111 165.5> 229 25<191.859 292.138> 585 25<179.851 267.558>
VStem: 43 77<323.122 497.169> 350 77<249.426 490.749>
LayerCount: 2
Fore
SplineSet
389.265 260 m 1
 354.841 240.6 302.075 229 270.676 229 c 0
 134.676 229 109.105 311 127.385 397 c 0
 145.665 483 225.659 610 356.659 610 c 0
 433.659 610 548.157 570 505.008 367 c 0
 488.216 288 437.874 197 360.569 125 c 0
 290.753 60 219.826 18 112.449 -12 c 1
 105.512 -7 109.425 2 111.976 14 c 1
 257.831 64.5996 343.409 168 389.265 260 c 1
402.443 288.6 m 1
 415.221 318.6 423.672 346.6 428.646 370 c 0
 464.993 541 403.346 585 340.346 585 c 0
 291.346 585 231.805 526 208.424 416 c 0
 197.796 366 198.989 254 296.989 254 c 0
 317.09 254 357.793 255.9 402.443 288.6 c 1
EndSplineSet
Substitution2: "'case' Versalformen 1" nine.cap
AlternateSubs2: "'aalt' Alle Alternativen zeigen 1" nine.oldstyle nine.superior nine.fitted
Substitution2: "'sups' Hochgestellte 1" nine.superior
Substitution2: "'sinf' Wissenschaftliche Indices 1" nine.inferior
Substitution2: "'pnum' Proportionalziffern 1" nine.fitted
Substitution2: "'onum' Minuskelziffern 1" nine.taboldstyle
Colour: ff00ff
EndChar

StartChar: colon
Encoding: 58 58 18
Width: 256
VWidth: 999
Flags: HW
HStem: 39 106<100.609 185.391> 302 106<100.609 185.391>
VStem: 90 106<49.6089 134.391 312.609 397.391>
LayerCount: 2
Fore
SplineSet
169.308 359 m 0
 174.409 383 207.511 407 231.511 407 c 0
 258.511 407 273.559 379 268.458 355 c 0
 263.973 333.9 234.255 307 206.255 307 c 0
 182.255 307 163.781 333 169.308 359 c 0
113.405 96 m 0
 118.507 120 151.608 144 175.608 144 c 0
 202.608 144 217.656 116 212.556 92 c 0
 208.07 70.9004 178.353 44 150.353 44 c 0
 126.353 44 107.879 70 113.405 96 c 0
EndSplineSet
Colour: ff00ff
EndChar

StartChar: less
Encoding: 60 60 19
Width: 487
VWidth: 999
Flags: HW
HStem: 73 331
DStem2: 49 263 122 239 0.940425 0.34<60.4911 410.859> 122 239 49 215 0.939653 -0.34213<0 350.736>
LayerCount: 2
Fore
SplineSet
172.801 239 m 1
 465.145 123 l 1
 475.169 109 469.792 79 454.517 73 c 1
 94.6992 215 l 1
 88.5244 229.7 91.9248 245.7 104.902 263 c 1
 524.873 404 l 1
 537.598 398 530.221 368 514.245 354 c 1
 172.801 239 l 1
EndSplineSet
EndChar

StartChar: equal
Encoding: 61 61 20
Width: 527
VWidth: 999
Flags: HW
HStem: 144 49<66 461> 269 49<66 461>
LayerCount: 2
Fore
SplineSet
528.593 318 m 1
 518.178 269 l 1
 123.178 269 l 1
 133.593 318 l 1
 528.593 318 l 1
502.023 193 m 1
 491.608 144 l 1
 96.6084 144 l 1
 107.023 193 l 1
 502.023 193 l 1
EndSplineSet
AlternateSubs2: "'aalt' Alle Alternativen zeigen 1" equal.superior
Substitution2: "'sinf' Wissenschaftliche Indices 1" equal.inferior
Substitution2: "'sups' Hochgestellte 1" equal.superior
EndChar

StartChar: greater
Encoding: 62 62 21
Width: 487
VWidth: 999
Flags: HW
HStem: 71 331
DStem2: 366 236 439 260 0.939653 -0.34213<-350.736 0> 439 212 366 236 0.940425 0.34<-410.859 -60.4911>
LayerCount: 2
Fore
SplineSet
416.163 236 m 1
 123.82 352 l 1
 113.796 366 119.173 396 134.447 402 c 1
 494.265 260 l 1
 500.44 245.3 497.039 229.3 484.062 212 c 1
 64.0918 71 l 1
 51.3672 77 58.7432 107 74.7197 121 c 1
 416.163 236 l 1
EndSplineSet
Colour: ff00ff
EndChar

StartChar: question
Encoding: 63 63 22
Width: 420
VWidth: 487
Flags: HW
HStem: -5 100<149.006 227.198> 626 33<134.26 245.879>
VStem: 44 65<506.606 592.695> 138 100<6.12776 83.2822> 173 31<174.009 299.829> 292 79<432.41 583.109>
LayerCount: 2
Fore
SplineSet
230.582 572 m 0
 227.394 557 227.119 551 230.056 546 c 0
 232.993 541 233.718 535 230.954 522 c 0
 226.065 499 204.515 487 186.515 487 c 0
 171.515 487 149.216 495 156.655 530 c 0
 164.732 568 189.684 596 223.785 620 c 1
 257.099 645 300.075 659 351.075 659 c 0
 448.075 659 498.321 599 478.979 508 c 0
 462.187 429 393.834 385 341.607 351 c 0
 315.994 334 293.593 318 280.979 301 c 0
 263.666 276 257.564 252 252.463 228 c 2
 243.11 184 l 2
 241.622 177 232.984 174 224.984 174 c 0
 216.984 174 210.622 177 212.11 184 c 2
 221.888 230 l 2
 231.028 273 247.568 332 322.109 391 c 0
 367.975 428 389.139 457 399.129 504 c 0
 412.944 569 389.761 634 335.761 634 c 0
 281.761 634 236.959 602 230.582 572 c 0
147.99 47 m 0
 153.092 71 186.193 95 210.193 95 c 0
 237.193 95 252.241 67 247.14 43 c 0
 242.655 21.9004 212.938 -5 184.938 -5 c 0
 160.938 -5 142.464 21 147.99 47 c 0
EndSplineSet
Colour: ff9ccc
EndChar

StartChar: at
Encoding: 64 64 23
Width: 895
VWidth: 999
Flags: HMW
HStem: -158 33<366.698 569.227> 27 43<368.151 451.044> 379 31<449.098 547.769> 580 31<358.072 546.24>
VStem: 59 80<106.897 345.025> 273 73<90.7683 252.641> 515 68<62.2365 153.555> 759 80<177.345 388.462>
LayerCount: 2
Fore
SplineSet
636.168 316 m 0
 644.245 354 620.559 379 584.559 379 c 0
 567.559 379 519.646 370 483.057 339 c 0
 421.216 288 387.612 224 374.435 162 c 0
 364.231 114 375.879 70 438.879 70 c 0
 473.879 70 534.995 127 581.512 200 c 0
 601.101 231 628.941 282 636.168 316 c 0
592.729 74 m 0
 590.604 64 599.179 62 601.179 62 c 0
 703.179 62 788.169 109 823.453 275 c 0
 867.239 481 708.346 585 583.346 585 c 0
 431.346 585 234.602 478 184.227 241 c 0
 152.343 91 187.367 -130 445.367 -130 c 0
 530.367 -130 598.319 -102 661.459 -59 c 1
 670.633 -77 l 1
 600.855 -123 533.416 -158 420.416 -158 c 0
 181.416 -158 61.126 10 106.4 223 c 0
 152.1 438 373.872 611 598.872 611 c 0
 813.872 611 938.689 469 898.941 282 c 0
 874.709 168 774.739 27 556.739 27 c 0
 527.739 27 526.053 52 529.454 68 c 0
 532.643 83 544.531 106 557.845 131 c 1
 556.058 132 l 1
 496.328 58 436.164 29 401.164 29 c 0
 301.164 29 297.019 113 305.521 153 c 0
 335.917 296 487.148 410 593.148 410 c 0
 626.148 410 656.535 393 661.008 367 c 1
 671.109 391 l 1
 720.873 404 l 1
 734.811 399 l 1
 619.971 141 l 2
 607.953 114.1 594.11 80.5 592.729 74 c 0
EndSplineSet
EndChar

StartChar: A
Encoding: 65 65 24
Width: 689
VWidth: 999
Flags: HW
HStem: -5 23<5.63281 58.3144 161.826 220.367 436.633 506.769 626.689 683.367> 246 32<235.325 439.5> 638 20G<373 387.682>
AnchorPoint: "unten_punkt" 129.219 -110 basechar 0
AnchorPoint: "unten_anhang" -38.3369 5 basechar 0
AnchorPoint: "top_akzent" 379.273 850 basechar 0
LayerCount: 2
Fore
SplineSet
319.591 278 m 2
 498.591 278 l 1
 461.469 555 l 1
 458.469 555 l 1
 298.28 296.3 l 2
 291.912 286.1 297.591 278 319.591 278 c 2
162.166 69 m 2
 137.103 27.2998 183.278 20.5996 220.326 18 c 1
 225.051 12 222.713 1 215.438 -5 c 1
 178.649 -4 149.5 0 108.5 0 c 0
 69.5 0 45.6494 -4 8.4375 -5 c 1
 3.71289 1 6.05078 12 13.3262 18 c 1
 57.4639 21 90.3525 31.2998 129.056 92 c 2
 477.111 638 l 1
 490.111 638 503.449 649 520.362 658 c 1
 605.654 76 l 2
 613.135 25.0996 645.27 21.5 683.326 18 c 1
 688.051 12 685.713 1 678.438 -5 c 1
 641.649 -4 612.5 0 571.5 0 c 0
 532.5 0 476.649 -4 439.438 -5 c 1
 434.713 1 437.051 12 444.326 18 c 1
 492.648 21.4004 533.063 21 527.679 62 c 2
 503.289 246 l 1
 294.789 246 l 2
 270.789 246 262.876 237 255.112 224 c 2
 162.166 69 l 2
EndSplineSet
Position2: "'cpsp' Versalabstaende 1" dx=2 dy=0 dh=5 dv=0
Substitution2: "'c2sc' Versale nach Kapitaelchen 1" a.sc
EndChar

StartChar: B
Encoding: 66 66 25
Width: 585
VWidth: 999
Flags: HW
HStem: -2 33<16.125 89.25 213.037 378.443> 332 34<191.5 352.427> 613 34<16.4238 91.5861 195.034 343.01>
VStem: 106.5 85<46.5258 332 366 601.619> 407.5 81<427.388 560.634> 454.5 93<98.7984 251.316>
AnchorPoint: "mittelpunkt" 185.823 185 basechar 0
AnchorPoint: "top_rechts" 665.092 732 basechar 0
AnchorPoint: "unten_punkt" 245.119 -110 basechar 0
AnchorPoint: "unten_anhang" 250.5 0 basechar 0
AnchorPoint: "top_akzent" 448.173 850 basechar 0
LayerCount: 2
Fore
SplineSet
266.232 361 m 1
 342.232 361 l 2
 425.232 361 494.673 396 512.739 481 c 0
 534.421 583 467.561 626 411.561 626 c 0
 324.561 626 322.935 616 315.421 583 c 0
 299.42 512.9 281.929 433.9 266.232 361 c 1
285.599 645 m 0
 328.599 645 376.662 650 411.662 650 c 0
 597.662 650 604.531 560 590.29 493 c 0
 578.748 438.7 525.944 387.4 470.445 362 c 1
 470.021 360 l 1
 551.706 335 604.016 280 583.61 184 c 0
 565.33 98 493.438 -5 294.438 -5 c 0
 205.438 -5 192.5 0 149.5 0 c 0
 98.7998 0 67.6494 -4 18.4375 -5 c 1
 13.7129 1 16.0508 12 23.3262 18 c 1
 93.9639 21 110.178 25.2998 129.669 109 c 0
 149.011 192 159.089 238 176.73 321 c 0
 194.373 404 204.088 453 220.431 536 c 0
 236.709 618.7 222.136 624 152.773 627 c 1
 148.048 633 150.387 644 157.662 650 c 1
 207.449 649 235.299 645 285.599 645 c 0
209.567 85 m 0
 203.253 52 208.326 18 278.326 18 c 0
 430.326 18 477.056 92 492.572 165 c 0
 511.702 255 469.132 337 332.132 337 c 2
 261.132 337 l 1
 260.005 331.7 258.899 326.5 257.795 321.3 c 0
 240.152 238.3 225.51 168 209.567 85 c 0
EndSplineSet
Position2: "'cpsp' Versalabstaende 1" dx=2 dy=0 dh=5 dv=0
Substitution2: "'c2sc' Versale nach Kapitaelchen 1" b.sc
EndChar

StartChar: C
Encoding: 67 67 26
Width: 642
VWidth: 999
Flags: HW
HStem: -10 31<278.379 440.689> 631 27<285.33 428.708>
VStem: 37 84<203.394 448.538> 572 23<454.584 484.514>
AnchorPoint: "mittelpunkt" 408.955 315 basechar 0
AnchorPoint: "top_rechts" 760.592 732 basechar 0
AnchorPoint: "unten_punkt" 335.619 -110 basechar 0
AnchorPoint: "unten_anhang" 350.512 -7 basechar 0
AnchorPoint: "top_akzent" 516.673 850 basechar 0
LayerCount: 2
Fore
SplineSet
350.874 -10 m 0
 135.874 -10 69.7334 154 103.955 315 c 0
 126.125 419.3 181.472 512.2 260.795 573 c 0
 331.273 627 408.862 658 493.862 658 c 0
 616.862 658 653.36 618 703.297 613 c 1
 700.606 558 698.404 510 692.351 458 c 1
 684.131 453.2 677.318 452.2 668.288 453 c 1
 660.568 539 621.123 631 483.123 631 c 0
 431.123 631 355.347 601 292.78 540 c 0
 246.736 495.1 210.338 420.3 191.994 334 c 0
 160.961 188 201.464 21 356.464 21 c 0
 449.464 21 526.179 62 613.758 140 c 1
 624.758 140 630.482 134 633.569 125 c 1
 546.652 36 447.874 -10 350.874 -10 c 0
EndSplineSet
Position2: "'cpsp' Versalabstaende 1" dx=2 dy=0 dh=5 dv=0
Substitution2: "'c2sc' Versale nach Kapitaelchen 1" c.sc
EndChar

StartChar: D
Encoding: 68 68 27
Width: 705
VWidth: 999
Flags: HW
HStem: -5 24<15.9888 84.6863 227.417 402.034> 626 24<15.9888 84.6863 216.854 366.697>
VStem: 109.5 79<42.2091 610.336> 580.4 88.6<178.393 416.821>
AnchorPoint: "mittelpunkt" 417.355 315 basechar 0
AnchorPoint: "top_rechts" 778.991 732 basechar 0
AnchorPoint: "unten_punkt" 260.019 -110 basechar 0
AnchorPoint: "unten_anhang" 283.612 1 basechar 0
AnchorPoint: "top_akzent" 491.073 850 basechar 0
LayerCount: 2
Fore
SplineSet
214.669 109 m 0
 203.611 47.0996 205.438 19 313.438 19 c 0
 454.438 19 597.83 82 640.766 284 c 0
 673.5 438 633.46 626 417.46 626 c 0
 325.761 626 320.088 597.9 305.431 536 c 0
 285.476 452 274.16 403 256.519 320 c 0
 238.876 237 229.404 191.5 214.669 109 c 0
285.599 645 m 0
 323.499 645 392.662 650 460.562 650 c 0
 652.562 650 774.003 494 734.468 308 c 0
 682.179 62 480.337 -5 339.337 -5 c 0
 236.337 -5 185.4 0 149.5 0 c 0
 98.7998 0 67.6494 -4 18.4375 -5 c 1
 13.7129 1 16.0508 12 23.3262 18 c 1
 93.9639 21 110.026 26 129.669 109 c 0
 149.311 192 160.089 238 177.73 321 c 0
 195.373 404 204.788 453 220.431 536 c 0
 236.072 619 222.136 624 152.773 627 c 1
 148.048 633 150.387 644 157.662 650 c 1
 207.449 649 235.299 645 285.599 645 c 0
EndSplineSet
Position2: "'cpsp' Versalabstaende 1" dx=2 dy=0 dh=5 dv=0
Substitution2: "'c2sc' Versale nach Kapitaelchen 1" d.sc
EndChar

StartChar: E
Encoding: 69 69 28
Width: 568
VWidth: 999
Flags: HW
HStem: -5 23<15.6328 83.144> 0 26<200.495 433.219> 328 28<189.5 376.843> 618 27<200.829 435.398> 627 23<15.6328 83.134> 632 20G<484 494>
VStem: 106.5 85<30.5385 328 356 614.498> 396.5 23<256.133 305.939 373.908 427.867> 495.5 23<497.558 529.198> 514.5 25<133.241 168.922>
AnchorPoint: "top_rechts" 448.991 732 basechar 0
AnchorPoint: "unten_anhang" 54.25 4 basechar 0
AnchorPoint: "unten_punkt" 30.0186 -110 basechar 0
AnchorPoint: "top_akzent" 228.073 850 basechar 0
LayerCount: 2
Fore
SplineSet
381.383 357 m 2
 466.531 357.7 471.934 369 486.624 424 c 1
 493.899 430 504.899 430 509.624 424 c 1
 502.247 394 493.486 371.6 486.344 338 c 0
 479.861 307.5 481.204 295 474.765 260 c 1
 467.489 254 456.489 254 451.765 260 c 1
 458.33 305 459.857 326.3 375.006 327 c 2
 259.219 328 l 1
 259.219 328 220.915 152.5 206.166 69 c 0
 201.428 42 211.026 26 233.026 26 c 2
 389.026 26 l 2
 465.026 26 515.33 98 550.635 170 c 1
 564.415 173.2 565.426 170.9 574.572 165 c 1
 555.731 114 526.065 45 501.438 -5 c 1
 501.438 -5 422.5 0 374.5 0 c 2
 149.5 0 l 2
 119.5 0 67.6494 -4 18.4375 -5 c 1
 13.7129 1 16.0508 12 23.3262 18 c 1
 93.9639 21 109.526 26 129.669 109 c 0
 149.704 191.5 159.089 238 176.73 321 c 0
 194.373 404 205.607 454.5 220.431 536 c 0
 235.572 619 222.136 624 152.773 627 c 1
 148.048 633 150.387 644 157.662 650 c 1
 207.449 649 255.599 645 285.599 645 c 2
 580.599 645 l 2
 604.599 645 613.449 649 631.087 652 c 0
 634.087 652 634.874 651 634.449 649 c 0
 634.749 641 628.706 542 624.991 501 c 1
 614.191 496.3 612.945 494.2 600.928 496 c 1
 593.595 565 588.86 618 513.86 618 c 2
 358.86 618 l 2
 334.86 618 319.509 598 313.508 574 c 0
 293.078 492 265.17 356 265.17 356 c 1
 381.383 357 l 2
EndSplineSet
Position2: "'cpsp' Versalabstaende 1" dx=2 dy=0 dh=5 dv=0
Substitution2: "'c2sc' Versale nach Kapitaelchen 1" e.sc
EndChar

StartChar: F
Encoding: 70 70 29
Width: 498
VWidth: 999
Flags: HW
HStem: -5 23<15.6328 83.144 227.846 304.3> 318 28<189.5 376.843> 618 27<200.829 405.398> 627 23<15.6328 83.134> 632 20G<454 464>
VStem: 106.5 85<39.9098 318 346 614.498> 396.5 23<246.133 295.939 363.908 417.867> 465.5 23<497.558 529.198>
AnchorPoint: "top_rechts" 448.991 732 basechar 0
AnchorPoint: "unten_anhang" 54.25 4 basechar 0
AnchorPoint: "unten_punkt" 30.0186 -110 basechar 0
AnchorPoint: "top_akzent" 228.073 850 basechar 0
LayerCount: 2
Fore
SplineSet
214.669 109 m 0
 199.727 26 234.863 21 304.226 18 c 1
 308.951 12 306.612 1 299.337 -5 c 1
 250.55 -4 208.9 0 150.4 0 c 0
 99.2998 0 67.6494 -4 18.4375 -5 c 1
 13.7129 1 16.0508 12 23.3262 18 c 1
 93.9639 21 109.526 26 129.669 109 c 0
 149.704 191.5 159.089 238 176.73 321 c 0
 194.373 404 205.607 454.5 220.431 536 c 0
 235.572 619 222.136 624 152.773 627 c 1
 148.048 633 150.387 644 157.662 650 c 1
 207.449 649 285.599 645 285.599 645 c 1
 550.599 645 l 2
 574.599 645 583.449 649 601.087 652 c 0
 604.087 652 604.874 651 604.449 649 c 0
 604.749 641 598.706 542 594.991 501 c 1
 584.191 496.3 582.945 494.2 570.928 496 c 1
 563.595 565 558.86 618 483.86 618 c 2
 358.86 618 l 2
 334.86 618 319.509 598 313.508 574 c 0
 293.078 492 263.045 346 263.045 346 c 1
 379.257 347 l 2
 464.406 347.7 469.808 359 484.498 414 c 1
 491.773 420 502.773 420 507.498 414 c 1
 500.122 384 491.36 361.6 484.219 328 c 0
 477.735 297.5 479.078 285 472.639 250 c 1
 465.364 244 454.364 244 449.639 250 c 1
 456.204 295 457.731 316.3 372.881 317 c 2
 257.093 318 l 1
 257.093 318 229.717 192.5 214.669 109 c 0
EndSplineSet
Position2: "'cpsp' Versalabstaende 1" dx=2 dy=0 dh=5 dv=0
Substitution2: "'c2sc' Versale nach Kapitaelchen 1" f.sc
EndChar

StartChar: G
Encoding: 71 71 30
Width: 710
VWidth: 999
Flags: HW
HStem: -10 26<314.399 460.634> 284 26<454.361 523.245 630.397 668.639> 631 27<292.288 445.195>
VStem: 32 85<214.802 432.033> 540 79<83.4212 274.003> 590 24<455.186 485.34>
AnchorPoint: "mittelpunkt" 230.807 335 basechar 0
AnchorPoint: "top_rechts" 638.191 732 basechar 0
AnchorPoint: "unten_anhang" 219.025 2 basechar 0
AnchorPoint: "unten_punkt" 195.219 -110 basechar 0
AnchorPoint: "top_akzent" 397.273 850 basechar 0
LayerCount: 2
Fore
SplineSet
513.862 658 m 0
 635.862 658 662.297 613 722.297 613 c 1
 721.845 577 718.323 527.5 711.563 459 c 1
 703.095 453.5 696.288 453 686.288 453 c 1
 678.568 539 639.123 631 494.123 631 c 0
 367.123 631 223.703 502 186.506 327 c 0
 158.448 195 217.401 16 395.401 16 c 0
 449.401 16 514.928 42 555.729 74 c 1
 590.163 236 l 2
 598.687 276.1 572.373 279.8 518.366 284 c 1
 513.642 290 516.617 304 523.893 310 c 1
 570.68 309 607.83 305 646.83 305 c 0
 686.83 305 700.68 309 730.893 310 c 1
 735.617 304 732.642 290 725.366 284 c 1
 695.729 281 676.646 271.2 669.163 236 c 2
 642.594 111 l 2
 640.256 100 643.555 92 652.643 83 c 1
 572.313 25 484.874 -10 366.874 -10 c 0
 165.874 -10 60.4824 134 97.2549 307 c 0
 144.018 527 341.862 658 513.862 658 c 0
EndSplineSet
Position2: "'cpsp' Versalabstaende 1" dx=2 dy=0 dh=5 dv=0
Substitution2: "'c2sc' Versale nach Kapitaelchen 1" g.sc
EndChar

StartChar: grave
Encoding: 96 96 31
Width: 392
VWidth: 999
Flags: HW
LayerCount: 2
Fore
SplineSet
315.524 647 m 1
 358.742 521 l 2
 361.616 511 361.129 504 359.641 497 c 0
 358.578 492 350.303 486 342.303 486 c 0
 336.303 486 330.365 491 317.554 506 c 2
 226.723 615 l 1
 231.061 626 l 1
 240.336 632 266.949 649 300.949 649 c 0
 305.949 649 311.736 648 315.524 647 c 1
EndSplineSet
Substitution2: "'case' Versalformen 1" uni0358
Colour: ff00ff
EndChar

StartChar: ograve
Encoding: 242 242 32
Width: 482
VWidth: 999
Flags: HW
HStem: -10 22<207.901 294.241> 397 22<183.865 273.526>
VStem: 39 76<110.22 300.9> 365 76<102.387 301.282>
AnchorPoint: "top_akzent" 432.272 834 basechar 0
AnchorPoint: "komb_OR" 504.173 396 basechar 0
LayerCount: 2
Fore
SplineSet
363.438 656 m 1
 406.655 530 l 2
 409.529 520 409.041 513 407.554 506 c 0
 406.491 501 398.216 495 390.216 495 c 0
 384.216 495 378.278 500 365.467 515 c 2
 274.636 624 l 1
 278.974 635 l 1
 288.249 641 314.862 658 348.862 658 c 0
 353.862 658 359.649 657 363.438 656 c 1
81.4482 195 m 0
 94.2021 255 124.105 311 167.82 352 c 0
 211.535 393 268.062 419 331.062 419 c 0
 477.062 419 506.404 303 485.361 204 c 0
 473.033 146 441.28 86 389.353 44 c 0
 349.551 12 298.874 -10 237.874 -10 c 0
 102.874 -10 60.8301 98 81.4482 195 c 0
312.385 397 m 0
 226.385 397 179.767 300 162.125 217 c 0
 146.608 144 157.551 12 256.551 12 c 0
 301.551 12 377.479 54 402.984 174 c 0
 432.105 311 394.385 397 312.385 397 c 0
EndSplineSet
Substitution2: "'smcp' Gemeine nach Kapitaelchen 1" ograve.sc
AlternateSubs2: "'aalt' Alle Alternativen zeigen 1" ograve.sc
Colour: ff00ff
EndChar

StartChar: oacute
Encoding: 243 243 33
Width: 482
VWidth: 999
Flags: HW
HStem: -10 22<207.901 294.241> 397 22<183.865 273.526>
VStem: 39 76<110.22 300.9> 365 76<102.387 301.282>
AnchorPoint: "top_akzent" 432.272 834 basechar 0
AnchorPoint: "komb_OR" 504.173 396 basechar 0
LayerCount: 2
Fore
SplineSet
409.438 656 m 1
 412.649 657 418.862 658 423.862 658 c 0
 430.262 658 455.649 657 473.974 635 c 1
 474.636 624 l 1
 336.467 515 l 2
 318.278 500 309.428 496 302.428 496 c 0
 295.428 496 289.703 502 291.191 509 c 0
 293.572 520.2 297.722 524.2 308.543 537 c 2
 409.438 656 l 1
81.4482 195 m 0
 94.2021 255 124.105 311 167.82 352 c 0
 211.535 393 268.062 419 331.062 419 c 0
 477.062 419 506.404 303 485.361 204 c 0
 473.033 146 441.28 86 389.353 44 c 0
 349.551 12 298.874 -10 237.874 -10 c 0
 102.874 -10 60.8301 98 81.4482 195 c 0
312.385 397 m 0
 226.385 397 179.767 300 162.125 217 c 0
 146.608 144 157.551 12 256.551 12 c 0
 301.551 12 377.479 54 402.984 174 c 0
 432.105 311 394.385 397 312.385 397 c 0
EndSplineSet
Substitution2: "'smcp' Gemeine nach Kapitaelchen 1" oacute.sc
AlternateSubs2: "'aalt' Alle Alternativen zeigen 1" oacute.sc
Colour: ff00ff
EndChar

StartChar: ocircumflex
Encoding: 244 244 34
Width: 482
VWidth: 999
Flags: HW
HStem: -10 22<208.901 295.241> 397 22<184.865 274.526>
VStem: 40 76<110.22 300.9> 115 253<539 539> 366 76<102.387 301.282>
AnchorPoint: "top_akzent" 432.06 833 basechar 0
AnchorPoint: "komb_OR" 504.173 396 basechar 0
LayerCount: 2
Fore
SplineSet
397.438 656 m 1
 416.447 609 449.182 556 476.679 516 c 1
 470.191 509 459.869 500.9 450.065 499 c 1
 417.167 523 388.119 551 364.708 582 c 1
 325.906 550 286.742 521 243.065 499 c 1
 234.491 501 228.767 507 224.679 516 c 1
 269.182 556 326.659 610 365.438 656 c 1
 376.626 658.3 387.169 658.5 397.438 656 c 1
81.4482 195 m 0
 94.2021 255 124.105 311 167.82 352 c 0
 211.535 393 268.062 419 331.062 419 c 0
 477.062 419 506.404 303 485.361 204 c 0
 473.033 146 441.28 86 389.353 44 c 0
 349.551 12 298.874 -10 237.874 -10 c 0
 102.874 -10 60.8301 98 81.4482 195 c 0
312.385 397 m 0
 226.385 397 179.767 300 162.125 217 c 0
 146.608 144 157.551 12 256.551 12 c 0
 301.551 12 377.479 54 402.984 174 c 0
 432.105 311 394.385 397 312.385 397 c 0
EndSplineSet
Substitution2: "'smcp' Gemeine nach Kapitaelchen 1" ocircumflex.sc
AlternateSubs2: "'aalt' Alle Alternativen zeigen 1" ocircumflex.sc
Colour: ff00ff
EndChar

StartChar: otilde
Encoding: 245 245 35
Width: 482
VWidth: 999
Flags: HW
HStem: -10 22<207.901 294.241> 397 22<183.865 273.526> 526 44<253 340> 574 46<135 226> 613 10
VStem: 39 76<110.22 300.9> 365 76<102.387 301.282>
AnchorPoint: "top_akzent" 432.272 834 basechar 0
AnchorPoint: "komb_OR" 504.173 396 basechar 0
LayerCount: 2
Fore
SplineSet
430.471 595 m 0
 452.471 595 465.597 605 488.524 647 c 1
 499.736 648 509.099 645 514.249 641 c 1
 489.495 581 452.206 542 406.206 542 c 0
 384.206 542 367.031 560 349.008 574 c 0
 333.346 585 316.046 593 299.046 593 c 0
 273.046 593 259.857 578 242.844 545 c 1
 231.418 543 221.631 544 216.906 550 c 1
 243.447 609 274.736 648 317.736 648 c 0
 347.736 648 365.485 628 382.51 614 c 0
 395.959 602 411.471 595 430.471 595 c 0
81.4482 195 m 0
 94.2021 255 124.105 311 167.82 352 c 0
 211.535 393 268.062 419 331.062 419 c 0
 477.062 419 506.404 303 485.361 204 c 0
 473.033 146 441.28 86 389.353 44 c 0
 349.551 12 298.874 -10 237.874 -10 c 0
 102.874 -10 60.8301 98 81.4482 195 c 0
312.385 397 m 0
 226.385 397 179.767 300 162.125 217 c 0
 146.608 144 157.551 12 256.551 12 c 0
 301.551 12 377.479 54 402.984 174 c 0
 432.105 311 394.385 397 312.385 397 c 0
EndSplineSet
Substitution2: "'smcp' Gemeine nach Kapitaelchen 1" otilde.sc
AlternateSubs2: "'aalt' Alle Alternativen zeigen 1" otilde.sc
Colour: ff00ff
EndChar

StartChar: odieresis
Encoding: 246 246 36
Width: 482
VWidth: 999
Flags: HW
HStem: -10 22<207.901 294.241> 397 22<183.865 273.526> 528 95<118.016 195.984 287.016 364.984>
VStem: 39 76<110.22 300.9> 110 94<535.394 615.312> 279 94<535.394 615.312> 365 76<102.387 301.282>
AnchorPoint: "top_akzent" 432.272 834 basechar 0
LayerCount: 2
Fore
SplineSet
232.22 575 m 0
 237.746 601 263.423 623 289.423 623 c 0
 315.423 623 331.746 601 326.22 575 c 0
 320.693 549 295.229 528 269.229 528 c 0
 243.229 528 226.693 549 232.22 575 c 0
401.22 575 m 0
 406.746 601 432.423 623 458.423 623 c 0
 484.423 623 500.746 601 495.22 575 c 0
 489.693 549 464.229 528 438.229 528 c 0
 412.229 528 395.693 549 401.22 575 c 0
81.4482 195 m 0
 94.2021 255 124.105 311 167.82 352 c 0
 211.535 393 268.062 419 331.062 419 c 0
 477.062 419 506.404 303 485.361 204 c 0
 473.033 146 441.28 86 389.353 44 c 0
 349.551 12 298.874 -10 237.874 -10 c 0
 102.874 -10 60.8301 98 81.4482 195 c 0
312.385 397 m 0
 226.385 397 179.767 300 162.125 217 c 0
 146.608 144 157.551 12 256.551 12 c 0
 301.551 12 377.479 54 402.984 174 c 0
 432.105 311 394.385 397 312.385 397 c 0
EndSplineSet
Substitution2: "'smcp' Gemeine nach Kapitaelchen 1" odieresis.sc
AlternateSubs2: "'aalt' Alle Alternativen zeigen 1" odieresis.sc
Colour: ff00ff
EndChar

StartChar: divide
Encoding: 247 247 37
Width: 527
VWidth: 999
Flags: HW
HStem: 53.6 88.8<229.666 300.725> 208 49<66 461> 321.6 88.8<229.666 300.725>
VStem: 220.8 88.8<62.5104 133.57 330.51 401.57>
LayerCount: 2
Fore
SplineSet
301.818 369.4 m 0
 306.091 389.5 333.863 409.6 353.963 409.6 c 0
 376.563 409.6 389.168 386.1 384.896 366 c 0
 381.134 348.3 356.251 325.8 332.751 325.8 c 0
 312.651 325.8 297.185 347.6 301.818 369.4 c 0
244.854 101.4 m 0
 249.126 121.5 276.898 141.6 296.998 141.6 c 0
 319.598 141.6 332.203 118.1 327.931 98 c 0
 324.168 80.2998 299.286 57.7998 275.786 57.7998 c 0
 255.686 57.7998 240.22 79.5996 244.854 101.4 c 0
515.627 257 m 1
 505.212 208 l 1
 110.212 208 l 1
 120.627 257 l 1
 515.627 257 l 1
EndSplineSet
Colour: ff00ff
EndChar

StartChar: ugrave
Encoding: 249 249 38
Width: 513
VWidth: 999
Flags: HW
HStem: -10 35<190.4 275.97> 29 15<452.884 495.46> 391 23<21.1328 66.3358 289.133 334.746>
VStem: 84 69<60.6264 382.51> 352 69<75.2625 382.611>
AnchorPoint: "top_akzent" 432.272 834 basechar 0
LayerCount: 2
Fore
SplineSet
358.438 656 m 1
 401.655 530 l 2
 404.529 520 404.041 513 402.554 506 c 0
 401.491 501 393.216 495 385.216 495 c 0
 379.216 495 373.278 500 360.467 515 c 2
 269.636 624 l 1
 273.974 635 l 1
 283.249 641 309.862 658 343.862 658 c 0
 348.862 658 354.649 657 358.438 656 c 1
204.874 -10 m 0
 110.874 -10 92.8994 54.0996 109.507 120 c 0
 122.135 170 142.54 266 151.168 316 c 0
 161.847 378 153.26 387 108.109 391 c 1
 103.385 397 105.723 408 112.998 414 c 1
 147.786 413 172.573 412 203.573 412 c 0
 217.573 412 231.786 413 236.998 414 c 0
 241.998 414 244.36 411 243.723 408 c 2
 243.723 408 228.382 349 221.019 320 c 0
 208.391 270 189.897 183 181.27 133 c 0
 166.624 48.0996 211.313 25 240.313 25 c 0
 264.313 25 312.628 50 354.217 81 c 0
 369.768 93 370.43 90 374.956 108 c 0
 387.584 158 410.115 264 418.743 314 c 0
 429.612 376.9 422.472 388 376.109 391 c 1
 371.385 397 373.723 408 380.998 414 c 1
 415.786 413 440.573 412 471.573 412 c 0
 485.573 412 500.786 413 505.998 414 c 0
 510.998 414 512.36 411 511.723 408 c 2
 511.723 408 496.382 349 489.019 320 c 0
 476.391 270 453.859 164 445.231 114 c 0
 437.142 67 440.415 49 500.353 44 c 1
 505.077 38 504.439 35 497.164 29 c 1
 437.676 22 404.488 7 379.874 -10 c 1
 372.449 -12 368.236 -13 361.874 -10 c 1
 361.874 -10 358.313 25 362.99 47 c 0
 364.479 54 358.053 52 352.203 48 c 0
 296.968 10.2002 241.874 -10 204.874 -10 c 0
EndSplineSet
Substitution2: "'smcp' Gemeine nach Kapitaelchen 1" ugrave.sc
AlternateSubs2: "'aalt' Alle Alternativen zeigen 1" ugrave.sc
Colour: ff00ff
EndChar

StartChar: uacute
Encoding: 250 250 39
Width: 513
VWidth: 999
Flags: HW
HStem: -10 35<190.4 275.97> 29 15<452.884 495.46> 391 23<21.1328 66.3358 289.133 334.746>
VStem: 84 69<60.6264 382.51> 352 69<75.2625 382.611>
AnchorPoint: "top_akzent" 432.272 834 basechar 0
LayerCount: 2
Fore
SplineSet
436.438 656 m 1
 439.649 657 445.862 658 450.862 658 c 0
 457.262 658 482.649 657 500.974 635 c 1
 501.636 624 l 1
 363.467 515 l 2
 345.278 500 336.428 496 329.428 496 c 0
 322.428 496 316.703 502 318.191 509 c 0
 320.572 520.2 324.722 524.2 335.543 537 c 2
 436.438 656 l 1
204.874 -10 m 0
 110.874 -10 92.8994 54.0996 109.507 120 c 0
 122.135 170 142.54 266 151.168 316 c 0
 161.847 378 153.26 387 108.109 391 c 1
 103.385 397 105.723 408 112.998 414 c 1
 147.786 413 172.573 412 203.573 412 c 0
 217.573 412 231.786 413 236.998 414 c 0
 241.998 414 244.36 411 243.723 408 c 2
 243.723 408 228.382 349 221.019 320 c 0
 208.391 270 189.897 183 181.27 133 c 0
 166.624 48.0996 211.313 25 240.313 25 c 0
 264.313 25 312.628 50 354.217 81 c 0
 369.768 93 370.43 90 374.956 108 c 0
 387.584 158 410.115 264 418.743 314 c 0
 429.612 376.9 422.472 388 376.109 391 c 1
 371.385 397 373.723 408 380.998 414 c 1
 415.786 413 440.573 412 471.573 412 c 0
 485.573 412 500.786 413 505.998 414 c 0
 510.998 414 512.36 411 511.723 408 c 2
 511.723 408 496.382 349 489.019 320 c 0
 476.391 270 453.859 164 445.231 114 c 0
 437.142 67 440.415 49 500.353 44 c 1
 505.077 38 504.439 35 497.164 29 c 1
 437.676 22 404.488 7 379.874 -10 c 1
 372.449 -12 368.236 -13 361.874 -10 c 1
 361.874 -10 358.313 25 362.99 47 c 0
 364.479 54 358.053 52 352.203 48 c 0
 296.968 10.2002 241.874 -10 204.874 -10 c 0
EndSplineSet
Substitution2: "'smcp' Gemeine nach Kapitaelchen 1" uacute.sc
AlternateSubs2: "'aalt' Alle Alternativen zeigen 1" uacute.sc
Colour: ff00ff
EndChar

StartChar: ucircumflex
Encoding: 251 251 40
Width: 513
VWidth: 999
Flags: HW
HStem: -10 35<190.4 275.97> 29 15<452.884 495.46> 391 23<21.1328 66.3358 289.133 334.746>
VStem: 84 69<60.6264 382.51> 120 253<517 517> 352 69<75.2625 382.611>
AnchorPoint: "top_akzent" 424.272 834 basechar 0
LayerCount: 2
Fore
SplineSet
402.438 656 m 1
 421.447 609 454.182 556 481.679 516 c 1
 475.191 509 464.869 500.9 455.065 499 c 1
 422.167 523 393.119 551 369.708 582 c 1
 330.906 550 291.742 521 248.065 499 c 1
 239.491 501 233.767 507 229.679 516 c 1
 274.182 556 331.659 610 370.438 656 c 1
 381.626 658.3 392.169 658.5 402.438 656 c 1
204.874 -10 m 0
 110.874 -10 92.8994 54.0996 109.507 120 c 0
 122.135 170 142.54 266 151.168 316 c 0
 161.847 378 153.26 387 108.109 391 c 1
 103.385 397 105.723 408 112.998 414 c 1
 147.786 413 172.573 412 203.573 412 c 0
 217.573 412 231.786 413 236.998 414 c 0
 241.998 414 244.36 411 243.723 408 c 2
 243.723 408 228.382 349 221.019 320 c 0
 208.391 270 189.897 183 181.27 133 c 0
 166.624 48.0996 211.313 25 240.313 25 c 0
 264.313 25 312.628 50 354.217 81 c 0
 369.768 93 370.43 90 374.956 108 c 0
 387.584 158 410.115 264 418.743 314 c 0
 429.612 376.9 422.472 388 376.109 391 c 1
 371.385 397 373.723 408 380.998 414 c 1
 415.786 413 440.573 412 471.573 412 c 0
 485.573 412 500.786 413 505.998 414 c 0
 510.998 414 512.36 411 511.723 408 c 2
 511.723 408 496.382 349 489.019 320 c 0
 476.391 270 453.859 164 445.231 114 c 0
 437.142 67 440.415 49 500.353 44 c 1
 505.077 38 504.439 35 497.164 29 c 1
 437.676 22 404.488 7 379.874 -10 c 1
 372.449 -12 368.236 -13 361.874 -10 c 1
 361.874 -10 358.313 25 362.99 47 c 0
 364.479 54 358.053 52 352.203 48 c 0
 296.968 10.2002 241.874 -10 204.874 -10 c 0
EndSplineSet
Substitution2: "'smcp' Gemeine nach Kapitaelchen 1" ucircumflex.sc
AlternateSubs2: "'aalt' Alle Alternativen zeigen 1" ucircumflex.sc
Colour: ff00ff
EndChar

StartChar: ebreve
Encoding: 277 277 41
Width: 425
VWidth: 999
Flags: HW
HStem: -10 49<198.819 330.136> 248 34<124 319.997> 404 33<182.425 285.355> 501 57<163.292 295.981>
VStem: 37 84<130.927 248 282 306.625> 93 27<613.641 639.111> 320 86<257.5 365.153> 336 27<612.798 639.111>
AnchorPoint: "ogonek" 369.928 42 basechar 0
AnchorPoint: "unten_anhang" 241.575 -2 basechar 0
AnchorPoint: "unten_punkt" 212.619 -110 basechar 0
AnchorPoint: "top_akzent" 395.982 795 basechar 0
LayerCount: 2
Fore
SplineSet
253.698 629 m 1
 253.433 576 288.568 539 342.568 539 c 0
 394.568 539 447.37 571 469.698 629 c 1
 494.147 617 l 1
 463.867 531 389.452 482 330.452 482 c 0
 260.452 482 220.08 532 224.147 617 c 1
 253.698 629 l 1
168.478 261 m 1
 353.115 264 l 2
 363.157 264.2 367.965 268 369.878 277 c 0
 386.883 357 345.96 395 309.96 395 c 0
 286.96 395 209.434 369 168.478 261 c 1
386.918 89 m 1
 397.705 88 402.643 83 403.517 73 c 1
 354.889 23 295.874 -10 223.874 -10 c 0
 154.874 -10 114.764 13 90.8408 51 c 0
 67.4922 87 64.7578 140 76.0234 193 c 0
 106.844 338 231.636 417 314.636 417 c 0
 447.636 417 457.356 331 440.352 251 c 0
 438.227 241 429.951 235 418.951 235 c 2
 160.163 236 l 1
 148.473 181 148.995 127 161.405 96 c 0
 180.99 47 221.739 27 255.739 27 c 0
 310.739 27 344.266 53 386.918 89 c 1
EndSplineSet
Colour: ff00ff
EndChar

StartChar: Edotaccent
Encoding: 278 278 42
Width: 568
VWidth: 999
Flags: HW
HStem: -2 33<-218.936 -145.811> 0 39<-38.842 193.336> 323 38<-43.561 124.761> 605 40<-38.499 163.991> 614 33<-218.303 -145.811> 701 104<2.981 85.897>
VStem: -128.6 85<43.3808 323 361 601.619> -7.6 104<711.542 794.458> 138.4 33<251.625 306.925 373.446 432.375> 210.4 33<498.32 539.828> 259.4 35<122.11 168.353>
LayerCount: 2
Fore
SplineSet
412.455 753 m 0
 418.406 781 447.508 805 475.508 805 c 0
 503.508 805 522.406 781 516.455 753 c 0
 510.504 725 481.402 701 453.402 701 c 0
 425.402 701 406.504 725 412.455 753 c 0
381.383 357 m 2
 466.531 357.7 471.934 369 486.624 424 c 1
 493.899 430 504.899 430 509.624 424 c 1
 502.247 394 493.486 371.6 486.344 338 c 0
 479.861 307.5 481.204 295 474.765 260 c 1
 467.489 254 456.489 254 451.765 260 c 1
 458.33 305 459.857 326.3 375.006 327 c 2
 259.219 328 l 1
 259.219 328 220.915 152.5 206.166 69 c 0
 201.428 42 211.026 26 233.026 26 c 2
 389.026 26 l 2
 465.026 26 515.33 98 550.635 170 c 1
 564.415 173.2 565.447 171 574.572 165 c 1
 555.731 114 526.065 45 501.438 -5 c 1
 501.438 -5 422.5 0 374.5 0 c 2
 149.5 0 l 2
 119.5 0 67.6494 -4 18.4375 -5 c 1
 13.7129 1 16.0508 12 23.3262 18 c 1
 93.9639 21 109.526 26 129.669 109 c 0
 149.704 191.5 159.089 238 176.73 321 c 0
 194.373 404 205.607 454.5 220.431 536 c 0
 235.572 619 222.136 624 152.773 627 c 1
 148.048 633 150.387 644 157.662 650 c 1
 207.449 649 255.599 645 285.599 645 c 2
 580.599 645 l 2
 604.599 645 613.449 649 631.087 652 c 0
 634.087 652 634.874 651 634.449 649 c 0
 634.749 641 628.706 542 624.991 501 c 1
 614.191 496.3 612.945 494.2 600.928 496 c 1
 593.595 565 588.86 618 513.86 618 c 2
 358.86 618 l 2
 334.86 618 319.509 598 313.508 574 c 0
 293.078 492 265.17 356 265.17 356 c 1
 381.383 357 l 2
EndSplineSet
Position2: "'cpsp' Versalabstaende 1" dx=2 dy=0 dh=5 dv=0
Colour: ff00ff
EndChar

StartChar: edotaccent
Encoding: 279 279 43
Width: 425
VWidth: 999
Flags: HW
HStem: -10 49<198.819 330.136> 248 34<124 319.997> 404 33<182.425 285.355> 547 98<189.385 267.791>
VStem: 37 84<130.927 248 282 306.625> 181 98<557.729 636.615> 320 86<257.5 365.153>
AnchorPoint: "top_akzent" 398.982 795 basechar 0
AnchorPoint: "ogonek" 369.928 42 basechar 0
AnchorPoint: "unten_anhang" 241.575 -2 basechar 0
AnchorPoint: "unten_punkt" 212.619 -110 basechar 0
LayerCount: 2
Fore
SplineSet
307.321 599 m 0
 312.423 623 345.524 647 369.524 647 c 0
 396.524 647 411.572 619 406.471 595 c 0
 401.986 573.9 372.269 547 344.269 547 c 0
 320.269 547 301.795 573 307.321 599 c 0
168.478 261 m 1
 353.115 264 l 2
 363.157 264.2 367.965 268 369.878 277 c 0
 386.883 357 345.96 395 309.96 395 c 0
 286.96 395 209.434 369 168.478 261 c 1
386.918 89 m 1
 397.705 88 402.643 83 403.517 73 c 1
 354.889 23 295.874 -10 223.874 -10 c 0
 154.874 -10 114.764 13 90.8408 51 c 0
 67.4922 87 64.7578 140 76.0234 193 c 0
 106.844 338 231.636 417 314.636 417 c 0
 447.636 417 457.356 331 440.352 251 c 0
 438.227 241 429.951 235 418.951 235 c 2
 160.163 236 l 1
 148.473 181 148.995 127 161.405 96 c 0
 180.99 47 221.739 27 255.739 27 c 0
 310.739 27 344.266 53 386.918 89 c 1
EndSplineSet
Colour: ff00ff
EndChar

StartChar: Eogonek
Encoding: 280 280 44
Width: 568
VWidth: 999
Flags: HW
HStem: -200 38<146.958 230.272> -2 17<219.123 245.439> -2 33<-218.936 -145.811> 0 39<-38.842 193.336> 323 38<-43.561 124.761> 605 40<-38.499 163.991> 614 33<-218.303 -145.811>
VStem: -128.6 85<43.3808 323 361 601.619> 77.4 62<-155.299 -63.1465> 138.4 33<251.625 306.925 373.446 432.375> 210.4 33<498.32 539.828> 259.4 35<122.11 168.353>
LayerCount: 2
Fore
SplineSet
476.705 -135 m 1
 438.14 -180 393.889 -200 352.889 -200 c 0
 302.889 -200 269.14 -180 280.618 -126 c 0
 289.396 -84.7002 337.055 -27.5 402.815 -0.400391 c 1
 392.778 -0.0996094 383.1 0 374.5 0 c 2
 149.5 0 l 2
 119.5 0 67.6494 -4 18.4375 -5 c 1
 13.7129 1 16.0508 12 23.3262 18 c 1
 93.9639 21 109.526 26 129.669 109 c 0
 149.704 191.5 159.089 238 176.73 321 c 0
 194.373 404 205.607 454.5 220.431 536 c 0
 235.572 619 222.136 624 152.773 627 c 1
 148.048 633 150.387 644 157.662 650 c 1
 207.449 649 255.599 645 285.599 645 c 2
 580.599 645 l 2
 604.599 645 613.449 649 631.087 652 c 0
 634.087 652 634.874 651 634.449 649 c 0
 634.749 641 628.706 542 624.991 501 c 1
 614.191 496.3 612.945 494.2 600.928 496 c 1
 593.595 565 588.86 618 513.86 618 c 2
 358.86 618 l 2
 334.86 618 319.509 598 313.508 574 c 0
 293.078 492 265.17 356 265.17 356 c 1
 381.383 357 l 2
 466.531 357.7 471.934 369 486.624 424 c 1
 493.899 430 504.899 430 509.624 424 c 1
 502.247 394 493.486 371.6 486.344 338 c 0
 479.861 307.5 481.204 295 474.765 260 c 1
 467.489 254 456.489 254 451.765 260 c 1
 458.33 305 459.857 326.3 375.006 327 c 2
 259.219 328 l 1
 259.219 328 220.915 152.5 206.166 69 c 0
 201.428 42 211.026 26 233.026 26 c 2
 389.026 26 l 2
 465.026 26 515.33 98 550.635 170 c 1
 564.415 173.2 565.447 171 574.572 165 c 1
 555.731 114 526.065 45 501.438 -5 c 1
 501.438 -5 489.308 -4.2002 471.698 -3.2998 c 1
 407.979 -12.7998 353.926 -72.7998 344.956 -115 c 0
 339.43 -141 347.966 -162 384.966 -162 c 0
 413.966 -162 433.367 -146 460.043 -124 c 1
 469.043 -124 474.192 -128 476.705 -135 c 1
EndSplineSet
Position2: "'cpsp' Versalabstaende 1" dx=2 dy=0 dh=5 dv=0
Substitution2: "'c2sc' Versale nach Kapitaelchen 1" eogonek.sc
Colour: ff9ccc
EndChar

StartChar: eogonek
Encoding: 281 281 45
Width: 425
VWidth: 999
Flags: HW
HStem: -200 38<244.519 327.833> -10 49<198.819 330.136> 248 34<124 319.997> 404 33<182.425 285.355>
VStem: 37 84<130.927 248 282 306.625> 175 62<-155.299 -69.1643> 320 86<257.5 365.153>
AnchorPoint: "unten_punkt" 47.0439 -108 basechar 0
AnchorPoint: "top_akzent" 368.099 645 basechar 0
LayerCount: 2
Fore
SplineSet
344.305 -135 m 1
 305.74 -180 261.488 -200 220.488 -200 c 0
 170.488 -200 136.74 -180 148.218 -126 c 0
 156.486 -87.0996 195.979 -46.2002 249.693 -8.5 c 1
 241.28 -9.5 232.675 -10 223.874 -10 c 0
 154.874 -10 114.764 13 90.8408 51 c 0
 67.4922 87 64.7578 140 76.0234 193 c 0
 106.844 338 231.636 417 314.636 417 c 0
 447.636 417 457.356 331 440.352 251 c 0
 438.227 241 429.951 235 418.951 235 c 2
 160.163 236 l 1
 148.473 181 148.995 127 161.405 96 c 0
 180.99 47 221.739 27 255.739 27 c 0
 310.739 27 344.266 53 386.918 89 c 1
 397.705 88 402.643 83 403.517 73 c 1
 382.04 51 358.666 32.2998 332.969 18.2002 c 1
 258.348 -36 221.781 -71.5996 212.556 -115 c 0
 207.029 -141 215.565 -162 252.565 -162 c 0
 281.565 -162 300.967 -146 327.643 -124 c 1
 336.643 -124 341.793 -128 344.305 -135 c 1
168.478 261 m 1
 353.115 264 l 2
 363.157 264.2 367.965 268 369.878 277 c 0
 386.883 357 345.96 395 309.96 395 c 0
 286.96 395 209.434 369 168.478 261 c 1
EndSplineSet
AlternateSubs2: "'aalt' Alle Alternativen zeigen 1" eogonek.sc
Substitution2: "'smcp' Gemeine nach Kapitaelchen 1" eogonek.sc
Colour: ff00ff
EndChar

StartChar: Ecaron
Encoding: 282 282 46
Width: 568
VWidth: 999
Flags: HW
HStem: -2 33<-218.936 -145.811> 0 39<-38.842 193.336> 323 38<-43.561 124.761> 605 40<-38.499 163.991> 614 33<-218.303 -145.811> 697 115
VStem: -128.6 85<43.3808 323 361 601.619> -58.6 244 138.4 33<251.625 306.925 373.446 432.375> 210.4 33<498.32 539.828> 259.4 35<122.11 168.353>
LayerCount: 2
Fore
SplineSet
420.552 697 m 1
 398.416 734 369.793 764 339.745 792 c 1
 359.996 812 l 1
 395.383 795 425.344 776 453.03 751 c 1
 495.557 777 531.595 796 572.996 812 c 1
 583.745 792 l 1
 539.581 763 500.779 731 463.552 697 c 1
 420.552 697 l 1
381.383 357 m 2
 466.531 357.7 471.934 369 486.624 424 c 1
 493.899 430 504.899 430 509.624 424 c 1
 502.247 394 493.486 371.6 486.344 338 c 0
 479.861 307.5 481.204 295 474.765 260 c 1
 467.489 254 456.489 254 451.765 260 c 1
 458.33 305 459.857 326.3 375.006 327 c 2
 259.219 328 l 1
 259.219 328 220.915 152.5 206.166 69 c 0
 201.428 42 211.026 26 233.026 26 c 2
 389.026 26 l 2
 465.026 26 515.33 98 550.635 170 c 1
 564.415 173.2 565.447 171 574.572 165 c 1
 555.731 114 526.065 45 501.438 -5 c 1
 501.438 -5 422.5 0 374.5 0 c 2
 149.5 0 l 2
 119.5 0 67.6494 -4 18.4375 -5 c 1
 13.7129 1 16.0508 12 23.3262 18 c 1
 93.9639 21 109.526 26 129.669 109 c 0
 149.704 191.5 159.089 238 176.73 321 c 0
 194.373 404 205.607 454.5 220.431 536 c 0
 235.572 619 222.136 624 152.773 627 c 1
 148.048 633 150.387 644 157.662 650 c 1
 207.449 649 255.599 645 285.599 645 c 2
 580.599 645 l 2
 604.599 645 613.449 649 631.087 652 c 0
 634.087 652 634.874 651 634.449 649 c 0
 634.749 641 628.706 542 624.991 501 c 1
 614.191 496.3 612.945 494.2 600.928 496 c 1
 593.595 565 588.86 618 513.86 618 c 2
 358.86 618 l 2
 334.86 618 319.509 598 313.508 574 c 0
 293.078 492 265.17 356 265.17 356 c 1
 381.383 357 l 2
EndSplineSet
Position2: "'cpsp' Versalabstaende 1" dx=2 dy=0 dh=5 dv=0
Substitution2: "'c2sc' Versale nach Kapitaelchen 1" ecaron.sc
Colour: ff00ff
EndChar

StartChar: ecaron
Encoding: 283 283 47
Width: 425
VWidth: 999
Flags: HW
HStem: -10 49<198.819 330.136> 248 34<124 319.997> 404 33<182.425 285.355>
VStem: 37 84<130.927 248 282 306.625> 320 86<257.5 365.153>
LayerCount: 2
Fore
SplineSet
304.854 498 m 1
 285.844 545 258.408 590 231.485 628 c 1
 254.249 641 l 1
 287.085 612 314.771 587 341.119 551 c 1
 386.195 589 425.51 614 468.249 641 c 1
 484.485 628 l 1
 441.195 589 393.631 544 354.854 498 c 1
 304.854 498 l 1
168.478 261 m 1
 353.115 264 l 2
 363.157 264.2 367.965 268 369.878 277 c 0
 386.883 357 345.96 395 309.96 395 c 0
 286.96 395 209.434 369 168.478 261 c 1
386.918 89 m 1
 397.705 88 402.643 83 403.517 73 c 1
 354.889 23 295.874 -10 223.874 -10 c 0
 154.874 -10 114.764 13 90.8408 51 c 0
 67.4922 87 64.7578 140 76.0234 193 c 0
 106.844 338 231.636 417 314.636 417 c 0
 447.636 417 457.356 331 440.352 251 c 0
 438.227 241 429.951 235 418.951 235 c 2
 160.163 236 l 1
 148.473 181 148.995 127 161.405 96 c 0
 180.99 47 221.739 27 255.739 27 c 0
 310.739 27 344.266 53 386.918 89 c 1
EndSplineSet
AlternateSubs2: "'aalt' Alle Alternativen zeigen 1" ecaron.sc
Substitution2: "'smcp' Gemeine nach Kapitaelchen 1" ecaron.sc
Colour: ff00ff
EndChar

StartChar: Gcircumflex
Encoding: 284 284 48
Width: 710
VWidth: 999
Flags: HW
HStem: -10 36<157.69 342.712> 271 36<306.374 381.073 484.088 525.834> 621 37<131.999 316.595>
VStem: -116.4 91<215.673 431.42> 94.6 243 391.6 85<83.4212 261.003> 434.6 34<457.765 496.593>
LayerCount: 2
Fore
SplineSet
556.346 808 m 1
 578.693 772 608.467 738 638.728 711 c 1
 633.993 701.9 628.172 693.8 618.264 690 c 1
 583.09 708 552.916 726 525.23 751 c 1
 482.491 724 446.878 707 405.264 690 c 1
 397.539 696 395.814 702 395.728 711 c 1
 438.68 739 479.119 774 517.346 808 c 1
 533.131 816.4 542.582 815.7 556.346 808 c 1
513.862 658 m 0
 635.862 658 662.297 613 722.297 613 c 1
 721.845 577 718.323 527.5 711.563 459 c 1
 703.095 453.5 696.288 453 686.288 453 c 1
 678.568 539 639.123 631 494.123 631 c 0
 367.123 631 223.703 502 186.506 327 c 0
 158.448 195 217.401 16 395.401 16 c 0
 449.401 16 514.928 42 555.729 74 c 1
 590.163 236 l 2
 598.687 276.1 572.373 279.8 518.366 284 c 1
 513.642 290 516.617 304 523.893 310 c 1
 570.68 309 607.83 305 646.83 305 c 0
 686.83 305 700.68 309 730.893 310 c 1
 735.617 304 732.642 290 725.366 284 c 1
 695.729 281 676.646 271.2 669.163 236 c 2
 642.594 111 l 2
 640.256 100 643.555 92 652.643 83 c 1
 572.313 25 484.874 -10 366.874 -10 c 0
 165.874 -10 60.4824 134 97.2549 307 c 0
 144.018 527 341.862 658 513.862 658 c 0
EndSplineSet
Position2: "'cpsp' Versalabstaende 1" dx=2 dy=0 dh=5 dv=0
Colour: ff00ff
EndChar

StartChar: gcircumflex
Encoding: 285 285 49
Width: 483
VWidth: 999
Flags: HW
HStem: -238 37<157.851 315.261> -12 61<179.344 373.711> 136 31<180.365 282.513> 408 31<173.451 274.597>
VStem: 32 69<-156.932 -59.0721> 60 82<210.83 362.537> 68 53<54.5074 148.273> 103 253<516 516> 319 80<209.75 366.205> 417 55<-131.4 -48.4907>
LayerCount: 2
Fore
SplineSet
380.548 633 m 1
 399.559 586 432.293 533 459.79 493 c 1
 453.303 486 442.98 477.9 433.177 476 c 1
 400.278 500 371.229 528 347.819 559 c 1
 309.018 527 269.854 498 226.177 476 c 1
 217.602 478 211.877 484 207.79 493 c 1
 252.293 533 309.771 587 348.548 633 c 1
 359.737 635.3 370.279 635.5 380.548 633 c 1
363.54 266 m 0
 380.332 345 356.811 399 296.811 399 c 0
 244.811 399 207.458 355 193.216 288 c 0
 180.25 227 175.671 149 255.671 149 c 0
 290.671 149 344.622 177 363.54 266 c 0
123.874 -10 m 1
 88.8604 -43 76.6328 -77 69.8311 -109 c 0
 56.0156 -174 100.025 -221 164.025 -221 c 0
 250.025 -221 362.716 -166 377.382 -97 c 0
 382.696 -72 375.585 -49 343.049 -28 c 0
 318.236 -13 279.662 -11 231.662 -11 c 0
 218.662 -11 191.024 -14 161.024 -14 c 0
 149.024 -14 133.236 -13 123.874 -10 c 1
501.434 369 m 0
 491.434 369 481.347 378 479.047 386 c 1
 474.96 395 469.598 398 462.598 398 c 0
 450.598 398 427.834 385 418.709 375 c 1
 440.545 346 445.23 321 435.666 276 c 0
 415.897 183 330.633 130 246.633 130 c 0
 209.633 130 185.12 137 164.884 150 c 1
 150.482 134 136.019 113 131.98 94 c 0
 123.266 53 155.227 34 183.227 34 c 0
 188.227 34 198.439 35 212.652 36 c 0
 236.29 39 260.715 41 277.715 41 c 0
 312.715 41 379.359 39.7998 409.913 9 c 0
 432.903 -14.0996 441.285 -41 434.696 -72 c 0
 412.803 -175 258.711 -246 129.711 -246 c 0
 56.7109 -246 -10.8496 -211 6.79297 -128 c 0
 15.5078 -87 50.7734 -34 108.362 -3 c 1
 85.9131 9 72.8643 37 80.0918 71 c 0
 86.8936 103 110.608 144 142.497 167 c 1
 121.023 193 107.4 223 118.24 274 c 0
 136.945 362 224.062 419 309.062 419 c 0
 365.062 419 393.022 400 402.322 392 c 1
 434.124 424 483.524 440 508.524 440 c 0
 534.525 440 549.337 425 545.085 405 c 0
 541.047 386 519.434 369 501.434 369 c 0
EndSplineSet
Colour: ff00ff
EndChar

StartChar: Gbreve
Encoding: 286 286 50
Width: 710
VWidth: 999
Flags: HW
HStem: -10 36<157.69 342.712> 271 36<306.374 381.073 484.088 525.834> 621 37<131.999 316.595> 693 52<144.342 302.092> 786 20<87.604 119.604 328.104 359.604>
VStem: -116.4 91<215.673 431.42> 87.6 28<781.047 806> 331.6 28<780.76 806> 391.6 85<83.4212 261.003> 434.6 34<457.765 496.593>
LayerCount: 2
Fore
SplineSet
670.921 806 m 1
 649.829 735 576.901 693 510.901 693 c 0
 437.901 693 389.042 736 398.921 806 c 1
 426.921 806 l 1
 426.631 767 468.955 745 521.955 745 c 0
 570.955 745 627.631 767 642.921 806 c 1
 670.921 806 l 1
513.862 658 m 0
 635.862 658 662.297 613 722.297 613 c 1
 721.845 577 718.323 527.5 711.563 459 c 1
 703.095 453.5 696.288 453 686.288 453 c 1
 678.568 539 639.123 631 494.123 631 c 0
 367.123 631 223.703 502 186.506 327 c 0
 158.448 195 217.401 16 395.401 16 c 0
 449.401 16 514.928 42 555.729 74 c 1
 590.163 236 l 2
 598.687 276.1 572.373 279.8 518.366 284 c 1
 513.642 290 516.617 304 523.893 310 c 1
 570.68 309 607.83 305 646.83 305 c 0
 686.83 305 700.68 309 730.893 310 c 1
 735.617 304 732.642 290 725.366 284 c 1
 695.729 281 676.646 271.2 669.163 236 c 2
 642.594 111 l 2
 640.256 100 643.555 92 652.643 83 c 1
 572.313 25 484.874 -10 366.874 -10 c 0
 165.874 -10 60.4824 134 97.2549 307 c 0
 144.018 527 341.862 658 513.862 658 c 0
EndSplineSet
Position2: "'cpsp' Versalabstaende 1" dx=2 dy=0 dh=5 dv=0
Substitution2: "'c2sc' Versale nach Kapitaelchen 1" gbreve.sc
Colour: ff00ff
EndChar

StartChar: gbreve
Encoding: 287 287 51
Width: 483
VWidth: 999
Flags: HW
HStem: -238 37<157.851 315.261> -12 61<179.344 373.711> 136 31<180.365 282.513> 408 31<173.451 274.597> 497 57<155.292 287.981>
VStem: 32 69<-156.932 -59.0721> 60 82<210.83 362.537> 68 53<54.5074 148.273> 85 27<609.641 635.111> 319 80<209.75 366.205> 328 27<608.798 635.111> 417 55<-131.4 -48.4907>
LayerCount: 2
Fore
SplineSet
244.848 625 m 1
 244.582 572 279.718 535 333.718 535 c 0
 385.718 535 438.52 567 460.848 625 c 1
 485.297 613 l 1
 455.018 527 380.602 478 321.602 478 c 0
 251.602 478 211.229 528 215.297 613 c 1
 244.848 625 l 1
363.54 266 m 0
 380.332 345 356.811 399 296.811 399 c 0
 244.811 399 207.458 355 193.216 288 c 0
 180.25 227 175.671 149 255.671 149 c 0
 290.671 149 344.622 177 363.54 266 c 0
123.874 -10 m 1
 88.8604 -43 76.6328 -77 69.8311 -109 c 0
 56.0156 -174 100.025 -221 164.025 -221 c 0
 250.025 -221 362.716 -166 377.382 -97 c 0
 382.696 -72 375.585 -49 343.049 -28 c 0
 318.236 -13 279.662 -11 231.662 -11 c 0
 218.662 -11 191.024 -14 161.024 -14 c 0
 149.024 -14 133.236 -13 123.874 -10 c 1
501.434 369 m 0
 491.434 369 481.347 378 479.047 386 c 1
 474.96 395 469.598 398 462.598 398 c 0
 450.598 398 427.834 385 418.709 375 c 1
 440.545 346 445.23 321 435.666 276 c 0
 415.897 183 330.633 130 246.633 130 c 0
 209.633 130 185.12 137 164.884 150 c 1
 150.482 134 136.019 113 131.98 94 c 0
 123.266 53 155.227 34 183.227 34 c 0
 188.227 34 198.439 35 212.652 36 c 0
 236.29 39 260.715 41 277.715 41 c 0
 312.715 41 379.359 39.7998 409.913 9 c 0
 432.903 -14.0996 441.285 -41 434.696 -72 c 0
 412.803 -175 258.711 -246 129.711 -246 c 0
 56.7109 -246 -10.8496 -211 6.79297 -128 c 0
 15.5078 -87 50.7734 -34 108.362 -3 c 1
 85.9131 9 72.8643 37 80.0918 71 c 0
 86.8936 103 110.608 144 142.497 167 c 1
 121.023 193 107.4 223 118.24 274 c 0
 136.945 362 224.062 419 309.062 419 c 0
 365.062 419 393.022 400 402.322 392 c 1
 434.124 424 483.524 440 508.524 440 c 0
 534.525 440 549.337 425 545.085 405 c 0
 541.047 386 519.434 369 501.434 369 c 0
EndSplineSet
AlternateSubs2: "'aalt' Alle Alternativen zeigen 1" gbreve.sc
Substitution2: "'smcp' Gemeine nach Kapitaelchen 1" gbreve.sc
Colour: ff00ff
EndChar

StartChar: Gdotaccent
Encoding: 288 288 52
Width: 710
VWidth: 999
Flags: HW
HStem: -10 36<157.69 342.712> 271 36<306.374 381.073 484.088 525.834> 621 37<131.999 316.595> 701 104<186.146 269.062>
VStem: -116.4 91<215.673 431.42> 175.6 104<711.542 794.458> 391.6 85<83.4212 261.003> 434.6 34<457.765 496.593>
LayerCount: 2
Fore
SplineSet
465.655 753 m 0
 471.606 781 500.708 805 528.708 805 c 0
 556.708 805 575.606 781 569.655 753 c 0
 563.703 725 534.603 701 506.603 701 c 0
 478.603 701 459.703 725 465.655 753 c 0
513.862 658 m 0
 635.862 658 662.297 613 722.297 613 c 1
 721.845 577 718.323 527.5 711.563 459 c 1
 703.095 453.5 696.288 453 686.288 453 c 1
 678.568 539 639.123 631 494.123 631 c 0
 367.123 631 223.703 502 186.506 327 c 0
 158.448 195 217.401 16 395.401 16 c 0
 449.401 16 514.928 42 555.729 74 c 1
 590.163 236 l 2
 598.687 276.1 572.373 279.8 518.366 284 c 1
 513.642 290 516.617 304 523.893 310 c 1
 570.68 309 607.83 305 646.83 305 c 0
 686.83 305 700.68 309 730.893 310 c 1
 735.617 304 732.642 290 725.366 284 c 1
 695.729 281 676.646 271.2 669.163 236 c 2
 642.594 111 l 2
 640.256 100 643.555 92 652.643 83 c 1
 572.313 25 484.874 -10 366.874 -10 c 0
 165.874 -10 60.4824 134 97.2549 307 c 0
 144.018 527 341.862 658 513.862 658 c 0
EndSplineSet
Position2: "'cpsp' Versalabstaende 1" dx=2 dy=0 dh=5 dv=0
Colour: ff00ff
EndChar

StartChar: gdotaccent
Encoding: 289 289 53
Width: 483
VWidth: 999
Flags: HW
HStem: -238 37<157.851 315.261> -12 61<179.344 373.711> 136 31<180.365 282.513> 408 31<173.451 274.597> 547 98<189.385 267.791>
VStem: 32 69<-156.932 -59.0721> 60 82<210.83 362.537> 68 53<54.5074 148.273> 181 98<557.729 636.615> 319 80<209.75 366.205> 417 55<-131.4 -48.4907>
LayerCount: 2
Fore
SplineSet
297.321 599 m 0
 302.423 623 335.524 647 359.524 647 c 0
 386.524 647 401.572 619 396.471 595 c 0
 391.986 573.9 362.269 547 334.269 547 c 0
 310.269 547 291.795 573 297.321 599 c 0
363.54 266 m 0
 380.332 345 356.811 399 296.811 399 c 0
 244.811 399 207.458 355 193.216 288 c 0
 180.25 227 175.671 149 255.671 149 c 0
 290.671 149 344.622 177 363.54 266 c 0
123.874 -10 m 1
 88.8604 -43 76.6328 -77 69.8311 -109 c 0
 56.0156 -174 100.025 -221 164.025 -221 c 0
 250.025 -221 362.716 -166 377.382 -97 c 0
 382.696 -72 375.585 -49 343.049 -28 c 0
 318.236 -13 279.662 -11 231.662 -11 c 0
 218.662 -11 191.024 -14 161.024 -14 c 0
 149.024 -14 133.236 -13 123.874 -10 c 1
501.434 369 m 0
 491.434 369 481.347 378 479.047 386 c 1
 474.96 395 469.598 398 462.598 398 c 0
 450.598 398 427.834 385 418.709 375 c 1
 440.545 346 445.23 321 435.666 276 c 0
 415.897 183 330.633 130 246.633 130 c 0
 209.633 130 185.12 137 164.884 150 c 1
 150.482 134 136.019 113 131.98 94 c 0
 123.266 53 155.227 34 183.227 34 c 0
 188.227 34 198.439 35 212.652 36 c 0
 236.29 39 260.715 41 277.715 41 c 0
 312.715 41 379.359 39.7998 409.913 9 c 0
 432.903 -14.0996 441.285 -41 434.696 -72 c 0
 412.803 -175 258.711 -246 129.711 -246 c 0
 56.7109 -246 -10.8496 -211 6.79297 -128 c 0
 15.5078 -87 50.7734 -34 108.362 -3 c 1
 85.9131 9 72.8643 37 80.0918 71 c 0
 86.8936 103 110.608 144 142.497 167 c 1
 121.023 193 107.4 223 118.24 274 c 0
 136.945 362 224.062 419 309.062 419 c 0
 365.062 419 393.022 400 402.322 392 c 1
 434.124 424 483.524 440 508.524 440 c 0
 534.525 440 549.337 425 545.085 405 c 0
 541.047 386 519.434 369 501.434 369 c 0
EndSplineSet
Colour: ff00ff
EndChar

StartChar: Gcommaaccent
Encoding: 290 290 54
Width: 710
VWidth: 999
Flags: HW
HStem: -226 24<177.919 208.58> -123 82<182.928 247.944> -10 36<157.69 342.712> 271 36<306.374 381.073 484.088 525.834> 621 37<131.999 316.595>
VStem: -116.4 91<215.673 431.42> 249.6 39<-177.408 -99.958> 391.6 85<83.4212 261.003> 434.6 34<457.765 496.593>
LayerCount: 2
Fore
SplineSet
367.885 -41 m 0
 405.885 -41 422.658 -75 411.605 -127 c 0
 398.852 -187 343.476 -217 284.562 -226 c 1
 279.838 -220 279.751 -211 281.664 -202 c 1
 333.002 -191 364.104 -167 367.929 -149 c 0
 372.181 -129 360.03 -125 342.455 -123 c 1
 326.093 -120 303.006 -111 308.745 -84 c 0
 313.847 -60 338.885 -41 367.885 -41 c 0
513.862 658 m 0
 635.862 658 662.297 613 722.297 613 c 1
 721.845 577 718.323 527.5 711.563 459 c 1
 703.095 453.5 696.288 453 686.288 453 c 1
 678.568 539 639.123 631 494.123 631 c 0
 367.123 631 223.703 502 186.506 327 c 0
 158.448 195 217.401 16 395.401 16 c 0
 449.401 16 514.928 42 555.729 74 c 1
 590.163 236 l 2
 598.687 276.1 572.373 279.8 518.366 284 c 1
 513.642 290 516.617 304 523.893 310 c 1
 570.68 309 607.83 305 646.83 305 c 0
 686.83 305 700.68 309 730.893 310 c 1
 735.617 304 732.642 290 725.366 284 c 1
 695.729 281 676.646 271.2 669.163 236 c 2
 642.594 111 l 2
 640.256 100 643.555 92 652.643 83 c 1
 572.313 25 484.874 -10 366.874 -10 c 0
 165.874 -10 60.4824 134 97.2549 307 c 0
 144.018 527 341.862 658 513.862 658 c 0
EndSplineSet
Position2: "'cpsp' Versalabstaende 1" dx=2 dy=0 dh=5 dv=0
Colour: ff00ff
EndChar

StartChar: gcommaaccent
Encoding: 291 291 55
Width: 483
VWidth: 999
Flags: HW
HStem: -238 37<157.851 315.261> -12 61<179.344 373.711> 136 31<180.365 282.513> 408 31<173.451 274.597> 511 82<200.44 272.661> 673 20<246.927 275.524>
VStem: 32 69<-156.932 -59.0721> 60 82<210.83 362.537> 68 53<54.5074 148.273> 166 34<566 641.371> 319 80<209.75 366.205> 417 55<-131.4 -48.4907>
LayerCount: 2
Fore
SplineSet
336.616 511 m 0
 297.616 511 282.481 548 290.133 584 c 0
 295.234 608 306.91 630 327.162 650 c 0
 348.547 671.1 380.239 688 419.302 693 c 1
 422.451 689 421.538 680 420.051 673 c 1
 360.5 661 333.698 629 328.81 606 c 0
 324.644 586.4 330.846 593 355.046 593 c 0
 395.046 593 399.944 569 396.331 552 c 0
 392.931 536 371.616 511 336.616 511 c 0
363.54 266 m 0
 380.332 345 356.811 399 296.811 399 c 0
 244.811 399 207.458 355 193.216 288 c 0
 180.25 227 175.671 149 255.671 149 c 0
 290.671 149 344.622 177 363.54 266 c 0
123.874 -10 m 1
 88.8604 -43 76.6328 -77 69.8311 -109 c 0
 56.0156 -174 100.025 -221 164.025 -221 c 0
 250.025 -221 362.716 -166 377.382 -97 c 0
 382.696 -72 375.585 -49 343.049 -28 c 0
 318.236 -13 279.662 -11 231.662 -11 c 0
 218.662 -11 191.024 -14 161.024 -14 c 0
 149.024 -14 133.236 -13 123.874 -10 c 1
501.434 369 m 0
 491.434 369 481.347 378 479.047 386 c 1
 474.96 395 469.598 398 462.598 398 c 0
 450.598 398 427.834 385 418.709 375 c 1
 440.545 346 445.23 321 435.666 276 c 0
 415.897 183 330.633 130 246.633 130 c 0
 209.633 130 185.12 137 164.884 150 c 1
 150.482 134 136.019 113 131.98 94 c 0
 123.266 53 155.227 34 183.227 34 c 0
 188.227 34 198.439 35 212.652 36 c 0
 236.29 39 260.715 41 277.715 41 c 0
 312.715 41 379.359 39.7998 409.913 9 c 0
 432.903 -14.0996 441.285 -41 434.696 -72 c 0
 412.803 -175 258.711 -246 129.711 -246 c 0
 56.7109 -246 -10.8496 -211 6.79297 -128 c 0
 15.5078 -87 50.7734 -34 108.362 -3 c 1
 85.9131 9 72.8643 37 80.0918 71 c 0
 86.8936 103 110.608 144 142.497 167 c 1
 121.023 193 107.4 223 118.24 274 c 0
 136.945 362 224.062 419 309.062 419 c 0
 365.062 419 393.022 400 402.322 392 c 1
 434.124 424 483.524 440 508.524 440 c 0
 534.525 440 549.337 425 545.085 405 c 0
 541.047 386 519.434 369 501.434 369 c 0
EndSplineSet
Colour: ff00ff
EndChar

StartChar: Hcircumflex
Encoding: 292 292 56
Width: 730
VWidth: 999
Flags: HW
HStem: -35.5 7.9<7.959 145.378 149.779 289.67 434.959 572.378 576.779 716.67> -30.7 8<11.048 286.983 438.048 713.983> -5 23<15.633 83.311 214.694 282.368 442.633 510.311 641.694 709.368> 41.4 7.8<5.942 49.666 249.503 291.364 432.942 476.666 676.503 718.364> 295 8<219.499 505.533> 326 32<188.546 536.426> 381 8<219.721 505.678> 596.2 7.8<7.481 49.247 249.388 292.903 434.481 476.248 676.388 719.903> 627 23<15.633 83.311 214.842 282.368 442.633 510.311 641.842 709.368> 668 8<11.846 287.809 438.846 714.809> 673 8.1<9.174 149.066 153.467 290.886 436.175 576.066 580.467 717.886>
VStem: 78.5 8<84.4885 563.687> 106.5 85<30.3891 326 358 614.607> 108.9 243 211.5 8<88.0471 295 389 545.096> 504.5 8<79.7108 295 389 568.219> 533.5 85<30.3891 326 358 614.607> 638.5 8<88.0471 545.096>
LayerCount: 2
Fore
SplineSet
214.669 109 m 0
 199.026 26 212.964 21 282.326 18 c 1
 287.051 12 284.713 1 277.438 -5 c 1
 227.649 -4 199.8 0 149.5 0 c 0
 98.7998 0 67.6494 -4 18.4375 -5 c 1
 13.7129 1 16.0508 12 23.3262 18 c 1
 93.9639 21 110.026 26 129.669 109 c 0
 149.311 192 160.089 238 177.73 321 c 0
 195.373 404 204.788 453 220.431 536 c 0
 236.072 619 222.136 624 152.773 627 c 1
 148.048 633 150.387 644 157.662 650 c 1
 207.449 649 235.299 645 285.599 645 c 0
 336.299 645 367.449 649 416.662 650 c 1
 421.387 644 419.048 633 411.773 627 c 1
 341.136 624 325.572 619 305.431 536 c 0
 288.366 465.6 278.931 424.5 265.445 362 c 1
 271.883 357 367.458 355 427.458 355 c 0
 487.458 355 604.563 355.5 613.346 362 c 1
 626.267 424.2 634.294 466.2 647.431 536 c 0
 663.072 619 649.136 624 579.773 627 c 1
 575.048 633 577.387 644 584.662 650 c 1
 634.449 649 662.299 645 712.599 645 c 0
 763.299 645 794.449 649 843.662 650 c 1
 848.387 644 846.048 633 838.773 627 c 1
 768.136 624 752.572 619 732.431 536 c 0
 712.075 452 701.16 403 683.519 320 c 0
 665.876 237 657.205 191.5 641.669 109 c 0
 626.026 26 639.964 21 709.326 18 c 1
 714.051 12 711.713 1 704.438 -5 c 1
 654.649 -4 626.8 0 576.5 0 c 0
 525.8 0 494.649 -4 445.438 -5 c 1
 440.713 1 443.051 12 450.326 18 c 1
 520.964 21 537.026 26 556.669 109 c 0
 574.517 184.5 589.655 252.9 604.943 322 c 1
 594.112 327.5 480.931 329 420.931 329 c 0
 360.931 329 269.506 327 256.943 322 c 1
 239.917 241.9 230.417 192.5 214.669 109 c 0
560.221 806 m 1
 582.568 770 612.342 736 642.603 709 c 1
 637.868 699.9 632.047 691.8 622.139 688 c 1
 586.965 706 556.791 724 529.104 749 c 1
 486.366 722 450.752 705 409.139 688 c 1
 401.414 694 399.689 700 399.603 709 c 1
 442.554 737 482.994 772 521.221 806 c 1
 537.006 814.4 546.457 813.7 560.221 806 c 1
EndSplineSet
Position2: "'cpsp' Versalabstaende 1" dx=2 dy=0 dh=5 dv=0
Colour: ff00ff
EndChar

StartChar: hcircumflex
Encoding: 293 293 57
Width: 511
VWidth: 999
Flags: HW
HStem: -2 33<14.8555 74.8652 177.846 230.145 312.188 364.637 469.435 525.812> 387 52<251.766 355.581> 641 30<20.0654 78.3801> 678 20<145.5 162.5>
VStem: 88 79<40.3963 331.447 358 635.885> 144 243 377 79<40.3691 365.453>
LayerCount: 2
Fore
SplineSet
461.484 835 m 1
 483.833 799 513.605 765 543.867 738 c 1
 539.133 728.9 533.311 720.8 523.403 717 c 1
 488.229 735 458.055 753 430.369 778 c 1
 387.63 751 352.017 734 310.403 717 c 1
 302.679 723 300.954 729 300.867 738 c 1
 343.818 766 384.258 801 422.484 835 c 1
 438.271 843.4 447.722 842.7 461.484 835 c 1
215.028 273 m 2
 215.028 273 189.733 154 181.105 104 c 0
 167.535 25.0996 172.676 22 219.826 18 c 1
 224.551 12 222.213 1 214.938 -5 c 1
 175.149 -4 162 0 125 0 c 0
 84 0 61.1494 -4 21.9375 -5 c 1
 17.2129 1 19.5508 12 26.8262 18 c 1
 82.6758 22 92.7139 25 112.105 104 c 0
 126.859 164 201.679 516 212.433 576 c 0
 226.737 656 217.374 651 168.012 654 c 1
 163.287 660 162.351 665 166.051 673 c 1
 204.688 676 273.239 688 299.364 698 c 1
 308.364 698 310.939 696 309.451 689 c 0
 300.391 653.9 302 661 286.321 599 c 0
 273.693 549 228.481 341 228.481 341 c 2
 225.719 328 234.632 337 238.481 341 c 0
 310.298 406 372.062 419 419.062 419 c 0
 452.062 419 479.511 407 491.047 386 c 0
 506.883 357 499.992 310 486.84 258 c 0
 474.212 208 462.733 154 454.105 104 c 0
 440.647 26.0996 447.889 23 499.826 18 c 1
 503.551 12 501.213 1 494.938 -5 c 1
 454.149 -4 437 0 398 0 c 0
 360 0 342.149 -4 301.938 -5 c 1
 298.213 1 300.551 12 306.826 18 c 1
 357.889 23 364.447 26.0996 384.105 104 c 0
 396.733 154 408.85 211 417.478 261 c 0
 422.441 290 429.419 336 423.458 355 c 0
 417.134 377 398.685 389 379.685 389 c 0
 341.685 389 283.183 349 239.53 313 c 0
 229.83 305 219.279 293 215.028 273 c 2
EndSplineSet
Colour: ff00ff
EndChar

StartChar: Hbar
Encoding: 294 294 58
Width: 730
VWidth: 999
Flags: HW
HStem: -5 23<15.6328 83.3104 214.694 282.367 442.633 510.31 641.694 709.367> 329 26<189.098 535.864> 512 34<33.9385 698.938> 627 23<15.6328 83.3104 214.842 282.367 442.633 510.31 641.842 709.367>
VStem: 106.5 85<30.3891 325.368 358.471 614.607> 533.5 85<30.3891 325.24 358.164 614.607>
LayerCount: 2
Fore
SplineSet
214.669 109 m 0
 199.026 26 212.964 21 282.326 18 c 1
 287.051 12 284.713 1 277.438 -5 c 1
 227.649 -4 199.8 0 149.5 0 c 0
 98.7998 0 67.6494 -4 18.4375 -5 c 1
 13.7129 1 16.0508 12 23.3262 18 c 1
 93.9639 21 110.026 26 129.669 109 c 0
 149.311 192 160.089 238 177.73 321 c 0
 193.608 395.7 202.82 442.8 215.929 512 c 1
 142.729 512 l 1
 149.956 546 l 1
 222.256 546 l 1
 234.857 619.4 219.257 624.1 152.773 627 c 1
 148.048 633 150.387 644 157.662 650 c 1
 207.449 649 235.299 645 285.599 645 c 0
 336.299 645 367.449 649 416.662 650 c 1
 421.387 644 419.048 633 411.773 627 c 1
 344.057 624.1 326.958 619.4 307.956 546 c 1
 649.256 546 l 1
 661.857 619.4 646.257 624.1 579.773 627 c 1
 575.048 633 577.387 644 584.662 650 c 1
 634.449 649 662.299 645 712.599 645 c 0
 763.299 645 794.449 649 843.662 650 c 1
 848.387 644 846.048 633 838.773 627 c 1
 771.057 624.1 753.957 619.4 734.956 546 c 1
 814.956 546 l 1
 807.729 512 l 1
 726.629 512 l 1
 709.85 442 699.417 394.8 683.519 320 c 0
 665.876 237 657.205 191.5 641.669 109 c 0
 626.026 26 639.964 21 709.326 18 c 1
 714.051 12 711.713 1 704.438 -5 c 1
 654.649 -4 626.8 0 576.5 0 c 0
 525.8 0 494.649 -4 445.438 -5 c 1
 440.713 1 443.051 12 450.326 18 c 1
 520.964 21 537.026 26 556.669 109 c 0
 574.517 184.5 589.655 252.9 604.943 322 c 1
 594.112 327.5 480.931 329 420.931 329 c 0
 360.931 329 269.506 327 256.943 322 c 1
 239.917 241.9 230.417 192.5 214.669 109 c 0
642.929 512 m 1
 299.629 512 l 1
 286.02 455.5 277.357 417.1 265.445 362 c 1
 271.883 357 367.458 355 427.458 355 c 0
 487.458 355 604.563 355.5 613.346 362 c 1
 624.794 416.8 632.283 455.8 642.929 512 c 1
EndSplineSet
Position2: "'cpsp' Versalabstaende 1" dx=2 dy=0 dh=5 dv=0
Colour: ff9ccc
EndChar

StartChar: hbar
Encoding: 295 295 59
Width: 511
VWidth: 999
Flags: HW
HStem: -5 23<19.1328 72.242 173.902 219.867 299.777 345.83 449.982 499.223> 389 30<252.357 333.342> 538 31<21.75 276.936> 654 19<23.7998 76.1763> 678 20<139 155.5>
VStem: 90 69<26.837 319.786 341.151 649.538> 362 70<26.8583 366.205>
LayerCount: 2
Fore
SplineSet
393.944 569 m 2
 398.944 569 401.22 567 399.669 563 c 2
 393.056 546 l 2
 390.39 539.1 379.355 538 370.355 538 c 2
 272.056 538 l 1
 254.036 458.4 228.481 341 228.481 341 c 2
 225.719 328 234.632 337 238.481 341 c 0
 310.298 406 372.062 419 419.062 419 c 0
 452.062 419 479.511 407 491.047 386 c 0
 506.883 357 499.992 310 486.84 258 c 0
 474.212 208 462.733 154 454.105 104 c 0
 440.647 26.0996 447.889 23 499.826 18 c 1
 503.551 12 501.213 1 494.938 -5 c 1
 454.149 -4 437 0 398 0 c 0
 360 0 342.149 -4 301.938 -5 c 1
 298.213 1 300.551 12 306.826 18 c 1
 357.889 23 364.447 26.0996 384.105 104 c 0
 396.733 154 408.85 211 417.478 261 c 0
 422.441 290 429.419 336 423.458 355 c 0
 417.134 377 398.685 389 379.685 389 c 0
 341.685 389 283.183 349 239.53 313 c 0
 229.83 305 219.279 293 215.028 273 c 2
 215.028 273 189.733 154 181.105 104 c 0
 167.535 25.0996 172.676 22 219.826 18 c 1
 224.551 12 222.213 1 214.938 -5 c 1
 175.149 -4 162 0 125 0 c 0
 84 0 61.1494 -4 21.9375 -5 c 1
 17.2129 1 19.5508 12 26.8262 18 c 1
 82.6758 22 92.7139 25 112.105 104 c 0
 124.858 156 182.89 427.6 205.056 538 c 1
 139.355 538 l 2
 135.355 538 133.483 538.6 135.631 544 c 2
 139.969 555 l 2
 143.503 564.1 147.944 569 164.944 569 c 2
 211.145 569 l 1
 211.598 571.6 212.107 574 212.433 576 c 0
 226.737 656 217.374 651 168.012 654 c 1
 163.287 660 162.351 665 166.051 673 c 1
 204.688 676 273.239 688 299.364 698 c 1
 308.364 698 310.939 696 309.451 689 c 0
 300.391 653.9 302 661 286.321 599 c 0
 284.513 591.9 282.002 581.5 279.145 569 c 1
 393.944 569 l 2
EndSplineSet
Colour: ff9ccc
EndChar

StartChar: Itilde
Encoding: 296 296 60
Width: 303
VWidth: 999
Flags: HW
HStem: -5 23<15.6328 83.3107 214.694 282.367> 627 23<15.6328 83.3107 214.842 282.367> 697 44<162.438 249.438> 745 46<44.438 135.438> 784 10
VStem: 109.5 79<33.5092 611.486>
LayerCount: 2
Fore
SplineSet
366.016 718 m 0
 388.016 718 401.142 728 424.068 770 c 1
 435.281 771 444.644 768 449.793 764 c 1
 425.04 704 387.75 665 341.75 665 c 0
 319.75 665 302.576 683 284.552 697 c 0
 268.89 708 251.591 716 234.591 716 c 0
 208.591 716 195.402 701 178.388 668 c 1
 166.963 666 157.175 667 152.45 673 c 1
 178.991 732 210.281 771 253.281 771 c 0
 283.281 771 301.03 751 318.054 737 c 0
 331.504 725 347.016 718 366.016 718 c 0
214.669 109 m 0
 199.026 26 212.964 21 282.326 18 c 1
 287.051 12 284.713 1 277.438 -5 c 1
 227.649 -4 199.8 0 149.5 0 c 0
 98.7998 0 67.6494 -4 18.4375 -5 c 1
 13.7129 1 16.0508 12 23.3262 18 c 1
 93.9639 21 110.026 26 129.669 109 c 0
 149.311 192 160.089 238 177.73 321 c 0
 195.373 404 204.788 453 220.431 536 c 0
 236.072 619 222.136 624 152.773 627 c 1
 148.048 633 150.387 644 157.662 650 c 1
 207.449 649 235.299 645 285.599 645 c 0
 336.299 645 367.449 649 416.662 650 c 1
 421.387 644 419.048 633 411.773 627 c 1
 341.136 624 325.572 619 305.431 536 c 0
 285.075 452 274.16 403 256.519 320 c 0
 238.876 237 230.204 191.5 214.669 109 c 0
EndSplineSet
Position2: "'cpsp' Versalabstaende 1" dx=2 dy=0 dh=5 dv=0
Colour: ff00ff
EndChar

StartChar: itilde
Encoding: 297 297 61
Width: 267
VWidth: 999
Flags: HW
HStem: -2 33<26.625 88.875 194.125 256.375> 422 20<157.75 176> 526 44<138.2 216.5> 574 46<32 113.9> 613 10
VStem: 102 79<40.8314 380.346>
AnchorPoint: "unten_anhang" 141.575 -2 basechar 0
AnchorPoint: "unten_punkt" 112.619 -110 basechar 0
AnchorPoint: "top_akzent" 307.982 795 basechar 0
LayerCount: 2
Fore
SplineSet
300.368 547 m 0
 320.168 547 332.194 557 353.722 599 c 1
 363.834 600 372.196 597 376.746 593 c 1
 353.192 533 318.803 494 277.403 494 c 0
 257.603 494 242.529 512 226.604 526 c 0
 212.743 537 197.344 545 182.043 545 c 0
 158.644 545 146.455 530 130.44 497 c 1
 120.115 495 111.328 496 107.203 502 c 1
 132.344 561 161.334 600 200.034 600 c 0
 227.034 600 242.583 580 257.607 566 c 0
 269.456 554 283.269 547 300.368 547 c 0
199.169 109 m 0
 183.313 25 191.676 22 251.826 18 c 1
 256.551 12 254.213 1 246.938 -5 c 1
 204.149 -4 182.2 0 140 0 c 0
 97.4004 0 72.1494 -4 29.9375 -5 c 1
 25.2129 1 27.5508 12 34.8262 18 c 1
 96.8887 23 106.026 26 126.169 109 c 0
 133.445 139 145.492 190.5 151.869 220.5 c 0
 158.245 250.5 162.878 277 168.255 307 c 0
 178.583 365 171.125 369.9 117.709 375 c 1
 116.984 381 116.26 387 119.535 393 c 1
 190.447 402 227.86 411 258.699 422 c 1
 266.699 422 271.062 419 270.211 415 c 2
 270.211 415 255.212 360.9 242.169 311.3 c 0
 234.229 281 227.033 249.5 220.656 219.5 c 0
 214.279 189.5 204.846 139 199.169 109 c 0
EndSplineSet
Colour: ff00ff
EndChar

StartChar: Imacron
Encoding: 298 298 62
Width: 303
VWidth: 999
Flags: HW
HStem: -5 23<15.6328 83.3107 214.694 282.367> 627 23<15.6328 83.3107 214.842 282.367> 745 50<20.3287 277.028>
VStem: 18.4 261<745.239 795> 109.5 79<33.5092 611.486>
LayerCount: 2
Fore
SplineSet
422.682 787 m 2
 198.682 787 l 2
 189.682 787 188.021 798 189.508 805 c 0
 192.059 817 207.31 837 218.31 837 c 2
 443.31 837 l 2
 453.31 837 454.972 826 453.696 820 c 0
 451.146 808 435.682 787 422.682 787 c 2
214.669 109 m 0
 199.026 26 212.964 21 282.326 18 c 1
 287.051 12 284.713 1 277.438 -5 c 1
 227.649 -4 199.8 0 149.5 0 c 0
 98.7998 0 67.6494 -4 18.4375 -5 c 1
 13.7129 1 16.0508 12 23.3262 18 c 1
 93.9639 21 110.026 26 129.669 109 c 0
 149.311 192 160.089 238 177.73 321 c 0
 195.373 404 204.788 453 220.431 536 c 0
 236.072 619 222.136 624 152.773 627 c 1
 148.048 633 150.387 644 157.662 650 c 1
 207.449 649 235.299 645 285.599 645 c 0
 336.299 645 367.449 649 416.662 650 c 1
 421.387 644 419.048 633 411.773 627 c 1
 341.136 624 325.572 619 305.431 536 c 0
 285.075 452 274.16 403 256.519 320 c 0
 238.876 237 230.204 191.5 214.669 109 c 0
EndSplineSet
Position2: "'cpsp' Versalabstaende 1" dx=2 dy=0 dh=5 dv=0
Colour: ff00ff
EndChar

StartChar: imacron
Encoding: 299 299 63
Width: 267
VWidth: 999
Flags: HW
HStem: -2 33<26.625 88.875 194.125 256.375> 422 20<157.75 176> 518 50<8.30163 239.331>
VStem: 6.6 234.9<518.239 568> 102 79<40.8314 380.346>
LayerCount: 2
Fore
SplineSet
338.932 560 m 2
 137.332 560 l 2
 129.231 560 127.97 571 129.458 578 c 0
 132.009 590 146.159 610 156.06 610 c 2
 358.56 610 l 2
 367.56 610 368.821 599 367.546 593 c 0
 364.995 581 350.632 560 338.932 560 c 2
199.169 109 m 0
 183.313 25 191.676 22 251.826 18 c 1
 256.551 12 254.213 1 246.938 -5 c 1
 204.149 -4 182.2 0 140 0 c 0
 97.4004 0 72.1494 -4 29.9375 -5 c 1
 25.2129 1 27.5508 12 34.8262 18 c 1
 96.8887 23 106.026 26 126.169 109 c 0
 133.445 139 145.492 190.5 151.869 220.5 c 0
 158.245 250.5 162.878 277 168.255 307 c 0
 178.583 365 171.125 369.9 117.709 375 c 1
 116.984 381 116.26 387 119.535 393 c 1
 190.447 402 227.86 411 258.699 422 c 1
 266.699 422 271.062 419 270.211 415 c 2
 270.211 415 255.212 360.9 242.169 311.3 c 0
 234.229 281 227.033 249.5 220.656 219.5 c 0
 214.279 189.5 204.846 139 199.169 109 c 0
EndSplineSet
Colour: ff00ff
EndChar

StartChar: Ibreve
Encoding: 300 300 64
Width: 303
VWidth: 999
Flags: HW
HStem: -35.5 7.9<-152.104 -14.6855 -10.2845 129.608> -5 23<-144.43 -76.7523 54.6315 122.305> 41.4 7.8<-154.121 -110.397 89.4385 131.301> 596.2 7.8<-152.582 -110.816 89.2875 132.84> 627 23<-144.43 -76.7523 54.7785 122.305> 668 8<-148.217 127.746> 673 8.1<-150.889 -10.9965 -6.5955 130.823> 692 52<-89.8245 67.9255> 785 20<-146.562 -114.562 93.9375 125.438>
VStem: -146.6 28<780.047 805> -81.6 8<84.4885 563.687> -50.6 79<33.5092 611.486> 51.4 8<88.047 545.097> 97.4 28<779.76 805>
LayerCount: 2
Fore
SplineSet
456.508 805 m 1
 435.416 734 362.489 692 296.489 692 c 0
 223.489 692 174.629 735 184.508 805 c 1
 212.508 805 l 1
 212.219 766 254.542 744 307.542 744 c 0
 356.542 744 413.219 766 428.508 805 c 1
 456.508 805 l 1
214.669 109 m 0
 199.026 26 212.964 21 282.326 18 c 1
 287.051 12 284.713 1 277.438 -5 c 1
 227.649 -4 199.8 0 149.5 0 c 0
 98.7998 0 67.6494 -4 18.4375 -5 c 1
 13.7129 1 16.0508 12 23.3262 18 c 1
 93.9639 21 110.026 26 129.669 109 c 0
 149.311 192 160.089 238 177.73 321 c 0
 195.373 404 204.788 453 220.431 536 c 0
 236.072 619 222.136 624 152.773 627 c 1
 148.048 633 150.387 644 157.662 650 c 1
 207.449 649 235.299 645 285.599 645 c 0
 336.299 645 367.449 649 416.662 650 c 1
 421.387 644 419.048 633 411.773 627 c 1
 341.136 624 325.572 619 305.431 536 c 0
 285.075 452 274.16 403 256.519 320 c 0
 238.876 237 230.204 191.5 214.669 109 c 0
EndSplineSet
Position2: "'cpsp' Versalabstaende 1" dx=2 dy=0 dh=5 dv=0
Colour: ff00ff
EndChar

StartChar: ibreve
Encoding: 301 301 65
Width: 267
VWidth: 999
Flags: HW
HStem: -2 33<26.625 88.875 194.125 256.375> 422 20<157.75 176> 503 57<67.1628 186.583>
VStem: 3.9 24.3<615.641 641.111> 102 79<40.8314 380.346> 222.6 24.3<614.798 641.111>
LayerCount: 2
Fore
SplineSet
162.323 631 m 1
 160.958 578 191.793 541 240.394 541 c 0
 287.193 541 335.395 573 356.724 631 c 1
 378.473 619 l 1
 349.393 533 281.377 484 228.277 484 c 0
 165.277 484 130.005 534 135.473 619 c 1
 162.323 631 l 1
199.169 109 m 0
 183.313 25 191.676 22 251.826 18 c 1
 256.551 12 254.213 1 246.938 -5 c 1
 204.149 -4 182.2 0 140 0 c 0
 97.4004 0 72.1494 -4 29.9375 -5 c 1
 25.2129 1 27.5508 12 34.8262 18 c 1
 96.8887 23 106.026 26 126.169 109 c 0
 133.445 139 145.492 190.5 151.869 220.5 c 0
 158.245 250.5 162.878 277 168.255 307 c 0
 178.583 365 171.125 369.9 117.709 375 c 1
 116.984 381 116.26 387 119.535 393 c 1
 190.447 402 227.86 411 258.699 422 c 1
 266.699 422 271.062 419 270.211 415 c 2
 270.211 415 255.212 360.9 242.169 311.3 c 0
 234.229 281 227.033 249.5 220.656 219.5 c 0
 214.279 189.5 204.846 139 199.169 109 c 0
EndSplineSet
Colour: ff00ff
EndChar

StartChar: Iogonek
Encoding: 302 302 66
Width: 303
VWidth: 999
Flags: HW
HStem: -200 38<-17.0435 66.2705> -35.5 7.9<-152.104 -14.6855 -10.2845 129.608> -5 23<-144.43 -76.7523 54.6315 122.305> -2 17<55.1215 81.4375> 41.4 7.8<-154.121 -110.397 89.4385 131.301> 596.2 7.8<-152.582 -110.816 89.2875 132.84> 627 23<-144.43 -76.7523 54.7785 122.305> 668 8<-148.217 127.746> 673 8.1<-150.889 -10.9965 -6.5955 130.823>
VStem: -86.6 62<-155.299 -63.1465> -81.6 8<84.4885 563.687> -50.6 79<33.5092 611.486> 51.4 8<88.047 545.097>
AnchorPoint: "top_akzent" 326.673 850 basechar 0
LayerCount: 2
Fore
SplineSet
252.705 -135 m 1
 214.14 -180 169.889 -200 128.889 -200 c 0
 78.8887 -200 45.1396 -180 56.6182 -126 c 0
 65.3965 -84.7002 113.033 -27.5996 178.693 -0.5 c 1
 169.657 -0.200195 160.1 0 149.5 0 c 0
 98.7998 0 67.6494 -4 18.4375 -5 c 1
 13.7129 1 16.0508 12 23.3262 18 c 1
 93.9639 21 110.026 26 129.669 109 c 0
 149.311 192 160.089 238 177.73 321 c 0
 195.373 404 204.788 453 220.431 536 c 0
 236.072 619 222.136 624 152.773 627 c 1
 148.048 633 150.387 644 157.662 650 c 1
 207.449 649 235.299 645 285.599 645 c 0
 336.299 645 367.449 649 416.662 650 c 1
 421.387 644 419.048 633 411.773 627 c 1
 341.136 624 325.572 619 305.431 536 c 0
 285.075 452 274.16 403 256.519 320 c 0
 238.876 237 230.204 191.5 214.669 109 c 0
 199.026 26 212.964 21 282.326 18 c 1
 287.051 12 284.713 1 277.438 -5 c 1
 265.38 -4.7998 254.586 -4.2998 244.492 -3.7998 c 1
 182.232 -14.9004 129.777 -73.5 120.956 -115 c 0
 115.43 -141 123.966 -162 160.966 -162 c 0
 189.966 -162 209.367 -146 236.043 -124 c 1
 245.043 -124 250.192 -128 252.705 -135 c 1
EndSplineSet
Position2: "'cpsp' Versalabstaende 1" dx=2 dy=0 dh=5 dv=0
Colour: ff9ccc
EndChar

StartChar: iogonek
Encoding: 303 303 67
Width: 267
VWidth: 999
Flags: HW
HStem: -200 38<130.519 213.833> -2 17<202.684 229> -2 33<26.625 88.875 194.125 256.375> 422 20<157.75 176> 547 98<99.3848 177.791>
VStem: 61 62<-155.299 -63.1465> 91 98<557.729 636.615> 102 79<40.8314 380.346>
AnchorPoint: "top_akzent" 296.731 775 basechar 0
LayerCount: 2
Fore
SplineSet
230.305 -135 m 1
 191.74 -180 147.488 -200 106.488 -200 c 0
 56.4883 -200 22.7402 -180 34.2178 -126 c 0
 43.0176 -84.5996 90.8184 -27.2002 156.857 -0.200195 c 1
 151.579 -0.0996094 146 0 140 0 c 0
 97.4004 0 72.1494 -4 29.9375 -5 c 1
 25.2129 1 27.5508 12 34.8262 18 c 1
 96.8887 23 106.026 26 126.169 109 c 0
 133.445 139 145.492 190.5 151.869 220.5 c 0
 158.245 250.5 162.878 277 168.255 307 c 0
 178.583 365 171.125 369.9 117.709 375 c 1
 116.984 381 116.26 387 119.535 393 c 1
 190.447 402 227.86 411 258.699 422 c 1
 266.699 422 271.062 419 270.211 415 c 2
 270.211 415 255.212 360.9 242.169 311.3 c 0
 234.229 281 227.033 249.5 220.656 219.5 c 0
 214.279 189.5 204.846 139 199.169 109 c 0
 183.313 25 191.676 22 251.826 18 c 1
 256.551 12 254.213 1 246.938 -5 c 1
 237.479 -4.7998 229.064 -4.40039 221.25 -4 c 1
 159.326 -15.4004 107.335 -73.7002 98.5557 -115 c 0
 93.0293 -141 101.565 -162 138.565 -162 c 0
 167.565 -162 186.967 -146 213.643 -124 c 1
 222.643 -124 227.793 -128 230.305 -135 c 1
217.321 599 m 0
 222.423 623 255.524 647 279.524 647 c 0
 306.524 647 321.572 619 316.471 595 c 0
 311.986 573.9 282.269 547 254.269 547 c 0
 230.269 547 211.795 573 217.321 599 c 0
EndSplineSet
Colour: ff9ccc
EndChar

StartChar: Idotaccent
Encoding: 304 304 68
Width: 303
VWidth: 999
Flags: HW
HStem: -5 23<15.6328 83.3107 214.694 282.367> 627 23<15.6328 83.3107 214.842 282.367> 701 104<104.98 187.896>
VStem: 94.4 104<711.542 794.458> 109.5 79<33.5092 611.486>
LayerCount: 2
Fore
SplineSet
254.455 753 m 0
 260.406 781 289.508 805 317.508 805 c 0
 345.508 805 364.406 781 358.455 753 c 0
 352.504 725 323.402 701 295.402 701 c 0
 267.402 701 248.504 725 254.455 753 c 0
214.669 109 m 0
 199.026 26 212.964 21 282.326 18 c 1
 287.051 12 284.713 1 277.438 -5 c 1
 227.649 -4 199.8 0 149.5 0 c 0
 98.7998 0 67.6494 -4 18.4375 -5 c 1
 13.7129 1 16.0508 12 23.3262 18 c 1
 93.9639 21 110.026 26 129.669 109 c 0
 149.311 192 160.089 238 177.73 321 c 0
 195.373 404 204.788 453 220.431 536 c 0
 236.072 619 222.136 624 152.773 627 c 1
 148.048 633 150.387 644 157.662 650 c 1
 207.449 649 235.299 645 285.599 645 c 0
 336.299 645 367.449 649 416.662 650 c 1
 421.387 644 419.048 633 411.773 627 c 1
 341.136 624 325.572 619 305.431 536 c 0
 285.075 452 274.16 403 256.519 320 c 0
 238.876 237 230.204 191.5 214.669 109 c 0
EndSplineSet
Substitution2: "'c2sc' Versale nach Kapitaelchen 1" idotaccent.sc
Position2: "'cpsp' Versalabstaende 1" dx=2 dy=0 dh=5 dv=0
Colour: ff00ff
EndChar

StartChar: afii10057
Encoding: 1032 1032 69
Width: 384
VWidth: 999
Flags: HW
HStem: -7.3 40.3<106.417 176.927> 614 33<109.625 191.5 311 375.375>
VStem: 210 85<100.045 600.635>
LayerCount: 2
Fore
SplineSet
406.167 523 m 2
 342.825 225 l 2
 321.569 125 275.577 58.7002 220.102 24 c 0
 182.749 0.700195 148.148 -7.2998 121.048 -7.2998 c 0
 95.3486 -7.2998 10.9561 4.5 21.4785 54 c 0
 26.1543 76 53.1299 90 67.1299 90 c 0
 98.1299 90 106.497 76.2002 113.391 63 c 0
 118.565 53 121.015 33 135.015 33 c 0
 168.015 33 218.928 42 253.149 203 c 2
 321.167 523 l 2
 338.81 606 322.872 611 243.51 614 c 1
 238.785 620 243.249 641 250.524 647 c 1
 300.312 646 335.099 645 389.099 645 c 0
 436.099 645 460.312 646 509.524 647 c 1
 514.249 641 509.785 620 502.51 614 c 1
 441.872 611 423.81 606 406.167 523 c 2
EndSplineSet
EndChar

StartChar: afii10061
Encoding: 1036 1036 70
Width: 606
VWidth: 999
Flags: HW
HStem: -2 29<20 52 246 278 576 599> 324 42<191 293.192> 590 61<425.487 520.042> 618 29<20 52 246 278> 698 122
VStem: 106 85<35.2953 324 366 609.248> 288 201
LayerCount: 2
Fore
SplineSet
601.297 820 m 1
 627.069 806.7 644.071 789.3 652.243 768 c 1
 495.915 710 l 2
 473.002 701 460.364 698 451.364 698 c 0
 442.364 698 437.853 705 439.553 713 c 0
 441.041 720 444.104 725 459.017 734 c 2
 601.297 820 l 1
18 0 m 1
 22.0391 19 l 2
 23.1016 24 26.7393 27 30.7393 27 c 2
 58.1641 29 l 2
 100.823 32.0996 115.14 43 121.092 71 c 2
 228.008 574 l 2
 234.384 604 221.297 613 182.935 616 c 2
 157.36 618 l 2
 153.36 618 149.998 621 151.061 626 c 2
 155.099 645 l 1
 157.524 647 l 1
 207.312 646 237.099 645 287.099 645 c 0
 337.099 645 366.312 646 415.524 647 c 1
 417.099 645 l 1
 413.061 626 l 2
 411.998 621 408.36 618 403.36 618 c 2
 376.935 616 l 2
 336.276 612.9 318.959 602 313.008 574 c 2
 268.796 366 l 1
 304.796 366 350.008 367 376.984 381 c 0
 442.786 413 470.39 477 491.293 533 c 0
 514.471 595 554.374 651 633.374 651 c 0
 686.374 651 698.21 622 693.321 599 c 0
 687.157 570 661.819 559 640.819 559 c 0
 627.819 559 614.882 564 607.008 574 c 0
 598.346 585 591.408 590 578.408 590 c 0
 548.408 590 534.494 557 523.229 528 c 0
 499.052 466 459.771 380 377.82 352 c 1
 376.757 347 l 1
 445.757 347 475.617 304 487.738 234 c 0
 511.144 99 547.589 31 581.951 28 c 2
 597.739 27 l 2
 602.739 27 605.102 24 604.039 19 c 2
 600 0 l 1
 598.575 -2 l 1
 519.787 -1 l 2
 442 0 423.217 81 403.599 191 c 0
 385.754 291 373.868 324 259.868 324 c 1
 206.092 71 l 2
 199.715 41 212.823 32.0996 252.164 29 c 2
 277.739 27 l 2
 281.739 27 285.102 24 284.039 19 c 2
 280 0 l 1
 277.575 -2 l 1
 230 0 201 0 151 0 c 0
 101 0 69 0 19.5752 -2 c 1
 18 0 l 1
EndSplineSet
LCarets2: 1 0 
Colour: ff00ff
EndChar

StartChar: uni040D
Encoding: 1037 1037 71
Width: 710
VWidth: 999
Flags: HW
HStem: -35.5 7.9<7.45864 144.877 149.278 289.17 414.459 551.877 556.278 696.17> -5 23<15.1328 82.8102 214.194 281.867 422.133 489.81 621.194 688.867> 41.4 7.8<5.4415 49.1656 249.001 290.863 412.441 456.166 656.001 697.863> 596.2 7.8<6.98051 48.7468 248.85 292.402 413.98 455.747 655.85 699.402> 627 23<15.1328 82.8102 214.341 281.867 422.133 489.81 621.341 688.867> 668 8<11.3456 287.309 418.346 694.309> 673 8.1<8.67366 148.566 152.967 290.385 415.674 555.566 559.967 697.385> 698 120
VStem: 78 8<84.4885 563.687> 109 79<33.5092 611.486> 211 8<88.047 545.097> 223 212 485 8<84.4885 563.687> 516 79<33.5092 611.486> 618 8<88.047 545.097>
LayerCount: 2
Fore
SplineSet
472.871 818 m 1
 576.017 734 l 2
 585.316 726 588.041 720 586.553 713 c 0
 584.853 705 576.364 698 568.364 698 c 0
 560.364 698 547.002 701 527.915 710 c 2
 387.307 773 l 1
 409.368 790.7 436.206 806.4 472.871 818 c 1
621.669 109 m 0
 606.026 26 619.964 21 689.326 18 c 1
 694.051 12 691.713 1 684.438 -5 c 1
 634.649 -4 606.8 0 556.5 0 c 0
 505.8 0 474.649 -4 425.438 -5 c 1
 420.713 1 423.051 12 430.326 18 c 1
 500.964 21 517.026 26 536.669 109 c 0
 556.311 192 567.089 238 584.73 321 c 0
 602.373 404 611.788 453 627.431 536 c 0
 628.372 540.9 629.149 545.5 629.885 549.9 c 2
 614.602 478 l 1
 606.57 475.5 600.514 471 594.339 465 c 2
 248.97 125 l 2
 233.86 109.9 221.917 101.7 209.767 77 c 1
 204.429 24.5996 223.278 20.5996 282.326 18 c 1
 287.051 12 284.713 1 277.438 -5 c 1
 227.649 -4 199.8 0 149.5 0 c 0
 98.7998 0 67.6494 -4 18.4375 -5 c 1
 13.7129 1 16.0508 12 23.3262 18 c 1
 93.9639 21 110.026 26 129.669 109 c 0
 149.311 192 160.089 238 177.73 321 c 0
 195.373 404 204.788 453 220.431 536 c 0
 236.072 619 222.136 624 152.773 627 c 1
 148.048 633 150.387 644 157.662 650 c 1
 207.449 649 235.299 645 285.599 645 c 0
 336.299 645 367.449 649 416.662 650 c 1
 421.387 644 419.048 633 411.773 627 c 1
 341.136 624 325.572 619 305.431 536 c 0
 285.075 452 274.16 403 256.519 320 c 0
 240.406 244.2 231.747 199.7 218.59 129.8 c 1
 226.497 167 l 1
 231.161 167.3 237.684 170.7 246.535 178 c 1
 594.029 520 l 2
 609.36 535.2 623.369 555 632.683 572 c 1
 636.612 620.6 617.342 624.5 559.773 627 c 1
 555.048 633 557.387 644 564.662 650 c 1
 614.449 649 642.299 645 692.599 645 c 0
 743.299 645 774.449 649 823.662 650 c 1
 828.387 644 826.048 633 818.773 627 c 1
 748.136 624 732.572 619 712.431 536 c 0
 692.075 452 681.16 403 663.519 320 c 0
 645.876 237 637.205 191.5 621.669 109 c 0
EndSplineSet
LCarets2: 1 0 
Colour: ff00ff
EndChar

StartChar: afii10062
Encoding: 1038 1038 72
Width: 580
VWidth: 999
Flags: HW
HStem: -22 62<133 229.447> 614 33<1.46875 58.6416 176.509 232.375 383.625 442.046 535.176 587.375> 697 31<266.585 357.415>
VStem: 187 69<734.873 803.004> 368 69<736.589 803.004>
LayerCount: 2
Fore
SplineSet
466.741 728 m 0
 499.741 728 526.354 745 529.968 762 c 0
 531.031 767 531.307 773 531.731 775 c 0
 534.92 790 548.108 805 571.108 805 c 0
 598.108 805 605.132 791 601.094 772 c 0
 590.041 720 526.152 697 460.152 697 c 0
 394.152 697 340.041 720 351.094 772 c 0
 355.132 791 368.108 805 395.108 805 c 0
 418.108 805 424.92 790 421.731 775 c 0
 421.307 773 419.031 767 417.968 762 c 0
 414.354 745 433.741 728 466.741 728 c 0
215.667 523 m 2
 198.037 593.9 191.447 609 135.51 614 c 1
 130.785 620 134.249 641 141.524 647 c 1
 188.312 646 205.099 645 245.099 645 c 0
 284.099 645 319.312 646 366.524 647 c 1
 371.249 641 366.785 620 359.51 614 c 1
 290.021 607 288.063 591.2 301.905 534 c 2
 375.676 229 l 1
 377.676 229 l 1
 550.229 528 l 2
 582.133 584 590.447 609 517.51 614 c 1
 512.785 620 517.249 641 524.524 647 c 1
 571.312 646 610.099 645 633.099 645 c 0
 656.099 645 681.312 646 721.524 647 c 1
 726.249 641 721.785 620 714.51 614 c 1
 646.81 606 623.402 568.8 594.442 521 c 2
 376.222 161 l 2
 310.053 52 239.324 -22 149.324 -22 c 0
 107.324 -22 64.2129 1 71.0146 33 c 0
 76.9658 61 100.217 81 130.217 81 c 0
 144.217 81 164.729 74 172.179 62 c 0
 177.266 53 189.502 40 203.502 40 c 0
 235.502 40 264.966 61 311.907 136 c 1
 215.667 523 l 2
EndSplineSet
LCarets2: 1 0 
Colour: ff00ff
EndChar

StartChar: afii10020
Encoding: 1043 1043 73
Width: 481
VWidth: 999
Flags: HW
HStem: -2 33<8.625 81.75 201.25 274.375> 605 40<185.978 404.91> 614 33<8.625 81.75>
VStem: 99 85<43.3808 601.619> 452 29<487.513 529.662>
LayerCount: 2
Fore
SplineSet
278.099 645 m 1
 483.099 645 l 1
 483.099 645 564.312 646 603.524 647 c 1
 601.84 613.2 598.971 574.3 585.152 490 c 1
 574.539 485.7 564.747 484.8 555.303 486 c 1
 548.969 555 546.597 605 471.597 605 c 2
 348.597 605 l 2
 324.597 605 310.471 595 305.37 571 c 2
 209.932 122 l 2
 192.29 39 208.227 34 277.589 31 c 1
 282.313 25 277.851 4 270.575 -2 c 1
 220.787 -1 192 0 142 0 c 0
 91 0 60.7871 -1 11.5752 -2 c 1
 6.85059 4 11.3135 25 18.5889 31 c 1
 89.2266 34 107.29 39 124.932 122 c 2
 210.167 523 l 2
 227.81 606 211.872 611 142.51 614 c 1
 137.785 620 142.249 641 149.524 647 c 1
 199.312 646 278.099 645 278.099 645 c 1
EndSplineSet
Colour: ff00ff
EndChar

StartChar: afii10021
Encoding: 1044 1044 74
Width: 659
VWidth: 999
Flags: HW
HStem: 0 39<182.009 462.022> 605 40<269.132 462.578> 618 29<151 187 586 621>
VStem: 34 27<-140 -94.0922> 464 85<40.4891 603.884> 599 27<-140 -98.3137>
LayerCount: 2
Fore
SplineSet
121.99 47 m 0
 153.638 73.0996 186.82 145 251.979 301 c 1
 298.211 415 332.104 518 345.495 581 c 0
 349.959 602 343.17 612.4 317.723 615 c 2
 288.36 618 l 2
 283.36 618 280.785 620 281.636 624 c 2
 286.099 645 l 1
 288.524 647 l 1
 288.524 647 358.099 645 388.099 645 c 2
 649.099 645 l 2
 679.099 645 758.524 647 758.524 647 c 1
 760.099 645 l 1
 756.061 626 l 2
 754.785 620 750.424 618.3 746.36 618 c 2
 716.935 616 l 2
 684.268 613.8 676.746 601 669.095 565 c 2
 565.579 78 l 2
 557.715 41 577.877 30 594.739 27 c 0
 615.652 23.2998 622.651 20 620.7 8 c 2
 596.242 -140 l 1
 569.242 -140 569.029 -141 569.029 -141 c 1
 568.933 -85 551 0 471 0 c 2
 181 0 l 2
 98 0 53.082 -89 31.0293 -141 c 1
 4.24219 -140 l 1
 42.7002 8 l 2
 45.8516 20 57.5205 25.5 67.7393 27 c 0
 87.877 30 104.408 32.5 121.99 47 c 0
555.597 605 m 2
 432.597 605 l 2
 405.597 605 392.621 591 385.307 566 c 0
 355.739 465 317.732 361 291.279 293 c 0
 244.41 176 198.367 77 193.903 56 c 0
 191.353 44 203.29 39 217.29 39 c 2
 436.29 39 l 2
 460.29 39 472.928 42 480.792 79 c 2
 584.307 566 l 2
 590.896 597 586.597 605 555.597 605 c 2
EndSplineSet
EndChar

StartChar: afii10024
Encoding: 1046 1046 75
Width: 863
Flags: HW
HStem: -2 29<6 28 303 335 529 561 835 856> 324 42<294.678 389 474 568.322> 590 61<79.7859 169.758 693.242 783.214> 618 29<303 335 529 561>
VStem: 389 85<35.2953 324 366 609.248>
LayerCount: 2
Fore
SplineSet
6 0 m 1
 10.0391 19 l 2
 11.1016 24 13.7393 27 18.7393 27 c 2
 33.9512 28 l 2
 66.5889 31 128.043 99 204.738 234 c 1
 245.617 304 291.757 347 357.757 347 c 1
 358.82 352 l 1
 292.771 380 290.052 466 293.229 528 c 0
 294.394 557 295.408 590 267.408 590 c 0
 255.408 590 246.346 585 234.008 574 c 0
 222.882 564 208.819 559 196.819 559 c 0
 176.819 559 158.157 570 164.321 599 c 0
 169.21 622 192.374 651 242.374 651 c 0
 317.374 651 331.471 595 327.293 533 c 0
 323.489 477 323.786 413 371.984 381 c 1
 391.008 367 432.796 366 466.796 366 c 1
 511.008 574 l 2
 517.384 604 504.297 613 465.935 616 c 2
 440.36 618 l 2
 436.36 618 432.998 621 434.061 626 c 2
 438.099 645 l 1
 440.524 647 l 1
 490.312 646 518.099 645 568.099 645 c 0
 618.099 645 649.312 646 698.524 647 c 1
 700.099 645 l 1
 696.061 626 l 2
 694.998 621 691.36 618 686.36 618 c 2
 659.935 616 l 2
 619.276 612.9 601.959 602 596.008 574 c 2
 551.796 366 l 1
 585.796 366 628.008 367 652.984 381 c 1
 714.786 413 742.289 477 762.293 533 c 0
 784.471 595 822.374 651 897.374 651 c 0
 947.374 651 958.21 622 953.321 599 c 0
 947.157 570 923.819 559 903.819 559 c 0
 891.819 559 879.882 564 873.008 574 c 0
 865.346 585 858.408 590 846.408 590 c 0
 818.408 590 805.394 557 794.229 528 c 0
 771.052 466 731.771 380 653.82 352 c 1
 652.757 347 l 1
 718.757 347 746.617 304 757.738 234 c 1
 777.043 99 809.589 31 840.951 28 c 2
 855.739 27 l 2
 860.739 27 862.102 24 861.039 19 c 2
 857 0 l 1
 855.575 -2 l 1
 781.787 -1 l 2
 708 0 691.217 81 673.599 191 c 1
 658.854 291 647.868 324 542.868 324 c 1
 489.092 71 l 2
 482.715 41 495.823 32.0996 535.164 29 c 2
 560.739 27 l 2
 564.739 27 568.102 24 567.039 19 c 2
 563 0 l 1
 560.575 -2 l 1
 513 0 482 0 432 0 c 0
 382 0 352 0 302.575 -2 c 1
 301 0 l 1
 305.039 19 l 2
 306.102 24 309.739 27 313.739 27 c 2
 341.164 29 l 2
 383.823 32.0996 398.14 43 404.092 71 c 2
 457.868 324 l 1
 352.868 324 327.854 291 270.599 191 c 1
 206.217 81 155 0 80.7871 -1 c 2
 5.5752 -2 l 1
 6 0 l 1
EndSplineSet
Colour: ff9ccc
EndChar

StartChar: afii10025
Encoding: 1047 1047 76
Width: 578
Flags: HW
HStem: -12 36<200.078 368.458> 317 49<169.194 379.155> 624 34<212.7 364.797>
VStem: 68 30<465.533 503.865> 421 88<427.266 574.759> 445 92<91.578 257.488>
LayerCount: 2
Fore
SplineSet
68.4443 115 m 0
 73.5449 139 89.9463 155 109.946 155 c 0
 137.946 155 147.42 129 154.894 103 c 0
 169.903 56 214.102 24 292.102 24 c 0
 391.102 24 463.067 85 482.41 176 c 0
 497.927 249 476.656 323 355.656 323 c 0
 322.656 323 292.381 317 265.381 317 c 0
 253.381 317 237.443 322 241.694 342 c 0
 245.945 362 263.796 366 275.796 366 c 0
 302.796 366 337.521 360 364.521 360 c 0
 470.521 360 512.187 429 526.854 498 c 0
 541.732 568 514.636 624 428.636 624 c 0
 314.636 624 241.331 552 196.626 464 c 1
 167.052 466 l 1
 225.061 626 l 1
 297.548 633 368.862 658 443.862 658 c 0
 582.862 658 633.771 587 616.341 505 c 0
 598.486 421 527.071 372 452.82 352 c 1
 451.545 346 l 1
 542.356 331 592.689 262 574.622 177 c 0
 546.777 46 412.449 -12 285.449 -12 c 0
 185.449 -12 122.672 12.0996 98.29 39 c 0
 76.5127 63.0996 61.4297 82 68.4443 115 c 0
EndSplineSet
EndChar

StartChar: afii10026
Encoding: 1048 1048 77
Width: 710
VWidth: 999
Flags: HW
HStem: -35.5 7.9<7.45864 144.877 149.278 289.17 414.459 551.877 556.278 696.17> -5 23<15.1328 82.8102 214.194 281.867 422.133 489.81 621.194 688.867> 41.4 7.8<5.4415 49.1656 249.001 290.863 412.441 456.166 656.001 697.863> 596.2 7.8<6.98051 48.7468 248.85 292.402 413.98 455.747 655.85 699.402> 627 23<15.1328 82.8102 214.341 281.867 422.133 489.81 621.341 688.867> 668 8<11.3456 287.309 418.346 694.309> 673 8.1<8.67366 148.566 152.967 290.385 415.674 555.566 559.967 697.385>
VStem: 78 8<84.4885 563.687> 109 79<33.5092 611.486> 211 8<88.047 545.097> 485 8<84.4885 563.687> 516 79<33.5092 611.486> 618 8<88.047 545.097>
LayerCount: 2
Fore
SplineSet
226.497 167 m 1
 231.161 167.3 237.684 170.7 246.535 178 c 1
 594.029 520 l 2
 609.36 535.2 623.369 555 632.683 572 c 1
 636.612 620.6 617.342 624.5 559.773 627 c 1
 555.048 633 557.387 644 564.662 650 c 1
 614.449 649 642.299 645 692.599 645 c 0
 743.299 645 774.449 649 823.662 650 c 1
 828.387 644 826.048 633 818.773 627 c 1
 748.136 624 732.572 619 712.431 536 c 0
 692.075 452 681.16 403 663.519 320 c 0
 645.876 237 637.205 191.5 621.669 109 c 0
 606.026 26 619.964 21 689.326 18 c 1
 694.051 12 691.713 1 684.438 -5 c 1
 634.649 -4 606.8 0 556.5 0 c 0
 505.8 0 474.649 -4 425.438 -5 c 1
 420.713 1 423.051 12 430.326 18 c 1
 500.964 21 517.026 26 536.669 109 c 0
 556.311 192 567.089 238 584.73 321 c 0
 602.373 404 611.788 453 627.431 536 c 0
 628.372 540.9 629.149 545.5 629.885 549.9 c 2
 614.602 478 l 1
 606.57 475.5 600.514 471 594.339 465 c 2
 248.97 125 l 2
 233.86 109.9 221.917 101.7 209.767 77 c 1
 204.429 24.5996 223.278 20.5996 282.326 18 c 1
 287.051 12 284.713 1 277.438 -5 c 1
 227.649 -4 199.8 0 149.5 0 c 0
 98.7998 0 67.6494 -4 18.4375 -5 c 1
 13.7129 1 16.0508 12 23.3262 18 c 1
 93.9639 21 110.026 26 129.669 109 c 0
 149.311 192 160.089 238 177.73 321 c 0
 195.373 404 204.788 453 220.431 536 c 0
 236.072 619 222.136 624 152.773 627 c 1
 148.048 633 150.387 644 157.662 650 c 1
 207.449 649 235.299 645 285.599 645 c 0
 336.299 645 367.449 649 416.662 650 c 1
 421.387 644 419.048 633 411.773 627 c 1
 341.136 624 325.572 619 305.431 536 c 0
 285.075 452 274.16 403 256.519 320 c 0
 240.406 244.2 231.747 199.7 218.59 129.8 c 1
 226.497 167 l 1
EndSplineSet
EndChar

StartChar: afii10027
Encoding: 1049 1049 78
Width: 710
VWidth: 999
Flags: HW
HStem: -35.5 7.9<7.45864 144.877 149.278 289.17 414.459 551.877 556.278 696.17> -5 23<15.1328 82.8102 214.194 281.867 422.133 489.81 621.194 688.867> 41.4 7.8<5.4415 49.1656 249.001 290.863 412.441 456.166 656.001 697.863> 596.2 7.8<6.98051 48.7468 248.85 292.402 413.98 455.747 655.85 699.402> 627 23<15.1328 82.8102 214.341 281.867 422.133 489.81 621.341 688.867> 668 8<11.3456 287.309 418.346 694.309> 673 8.1<8.67366 148.566 152.967 290.385 415.674 555.566 559.967 697.385> 697 31<305.585 396.415>
VStem: 78 8<84.4885 563.687> 109 79<33.5092 611.486> 211 8<88.047 545.097> 226 69<734.873 803.004> 407 69<736.589 803.004> 485 8<84.4885 563.687> 516 79<33.5092 611.486> 618 8<88.047 545.097>
LayerCount: 2
Fore
SplineSet
505.741 728 m 0
 538.741 728 565.354 745 568.968 762 c 0
 570.031 767 570.307 773 570.731 775 c 0
 573.92 790 587.108 805 610.108 805 c 0
 637.108 805 644.132 791 640.094 772 c 0
 629.041 720 565.152 697 499.152 697 c 0
 433.152 697 379.041 720 390.094 772 c 0
 394.132 791 407.108 805 434.108 805 c 0
 457.108 805 463.92 790 460.731 775 c 0
 460.307 773 458.031 767 456.968 762 c 0
 453.354 745 472.741 728 505.741 728 c 0
226.497 167 m 1
 231.161 167.3 237.684 170.7 246.535 178 c 1
 594.029 520 l 2
 609.36 535.2 623.369 555 632.683 572 c 1
 636.612 620.6 617.342 624.5 559.773 627 c 1
 555.048 633 557.387 644 564.662 650 c 1
 614.449 649 642.299 645 692.599 645 c 0
 743.299 645 774.449 649 823.662 650 c 1
 828.387 644 826.048 633 818.773 627 c 1
 748.136 624 732.572 619 712.431 536 c 0
 692.075 452 681.16 403 663.519 320 c 0
 645.876 237 637.205 191.5 621.669 109 c 0
 606.026 26 619.964 21 689.326 18 c 1
 694.051 12 691.713 1 684.438 -5 c 1
 634.649 -4 606.8 0 556.5 0 c 0
 505.8 0 474.649 -4 425.438 -5 c 1
 420.713 1 423.051 12 430.326 18 c 1
 500.964 21 517.026 26 536.669 109 c 0
 556.311 192 567.089 238 584.73 321 c 0
 602.373 404 611.788 453 627.431 536 c 0
 628.372 540.9 629.149 545.5 629.885 549.9 c 2
 614.602 478 l 1
 606.57 475.5 600.514 471 594.339 465 c 2
 248.97 125 l 2
 233.86 109.9 221.917 101.7 209.767 77 c 1
 204.429 24.5996 223.278 20.5996 282.326 18 c 1
 287.051 12 284.713 1 277.438 -5 c 1
 227.649 -4 199.8 0 149.5 0 c 0
 98.7998 0 67.6494 -4 18.4375 -5 c 1
 13.7129 1 16.0508 12 23.3262 18 c 1
 93.9639 21 110.026 26 129.669 109 c 0
 149.311 192 160.089 238 177.73 321 c 0
 195.373 404 204.788 453 220.431 536 c 0
 236.072 619 222.136 624 152.773 627 c 1
 148.048 633 150.387 644 157.662 650 c 1
 207.449 649 235.299 645 285.599 645 c 0
 336.299 645 367.449 649 416.662 650 c 1
 421.387 644 419.048 633 411.773 627 c 1
 341.136 624 325.572 619 305.431 536 c 0
 285.075 452 274.16 403 256.519 320 c 0
 240.406 244.2 231.747 199.7 218.59 129.8 c 1
 226.497 167 l 1
EndSplineSet
LCarets2: 1 0 
Colour: ff00ff
EndChar

StartChar: afii10033
Encoding: 1055 1055 79
Width: 667
VWidth: 999
Flags: HW
HStem: -2 33<13.625 86.75 206.25 279.375 387.625 460.75 580.25 653.375> 605 40<199.245 467.755> 614 33<13.625 86.75 580.25 653.375>
VStem: 104 85<43.3808 598.5> 478 85<43.3808 598.5>
LayerCount: 2
Fore
SplineSet
658.099 645 m 2
 685.099 645 733.949 649 784.162 650 c 1
 788.887 644 786.548 633 779.273 627 c 1
 708.636 624 689.935 616 672.293 533 c 2
 582.807 112 l 2
 565.164 29 580.464 21 649.826 18 c 1
 654.551 12 652.213 1 644.938 -5 c 1
 596.149 -4 569.2 0 520 0 c 0
 471.2 0 444.149 -4 393.938 -5 c 1
 389.213 1 391.551 12 398.826 18 c 1
 469.464 21 488.164 29 505.807 112 c 2
 596.993 541 l 2
 610.172 603 590.723 615 566.723 615 c 2
 361.723 615 l 2
 337.723 615 313.172 603 299.993 541 c 2
 208.807 112 l 2
 191.164 29 206.464 21 275.826 18 c 1
 280.551 12 278.213 1 270.938 -5 c 1
 221.149 -4 195.8 0 147 0 c 0
 97.7998 0 69.1494 -4 19.9375 -5 c 1
 15.2129 1 17.5508 12 24.8262 18 c 1
 95.4639 21 114.164 29 131.807 112 c 2
 221.293 533 l 2
 238.935 616 223.636 624 154.273 627 c 1
 149.548 633 151.887 644 159.162 650 c 1
 208.949 649 260.099 645 283.099 645 c 2
 658.099 645 l 2
EndSplineSet
Colour: ff00ff
EndChar

StartChar: afii10034
Encoding: 1056 1056 80
Width: 529
VWidth: 999
Flags: HW
HStem: -2 33<-225.409 -152.284 -28.284 55.341> 282 34<-49.249 108.506> 618 34<-223.33 -156.175 -59.729 115.041>
VStem: -135 85<47.6546 292 318.199 600.635> 175 93<395.93 561.649>
LayerCount: 2
Fore
SplineSet
252.502 296.4 m 1
 237.191 223.9 224.124 159.6 209.567 85 c 0
 198.303 27.2998 228.07 21.5 296.326 18 c 1
 301.051 12 298.713 1 291.438 -5 c 1
 241.649 -4 205.3 0 149.5 0 c 0
 98.7998 0 67.6494 -4 18.4375 -5 c 1
 13.7129 1 16.0508 12 23.3262 18 c 1
 93.9639 21 110.178 25.2998 129.669 109 c 0
 149.011 192 159.089 238 176.73 321 c 0
 194.373 404 204.088 453 220.431 536 c 0
 236.709 618.7 222.136 624 152.773 627 c 1
 148.048 633 150.387 644 157.662 650 c 1
 207.449 649 235.299 645 285.599 645 c 0
 325.599 645 397.725 655 423.725 655 c 0
 608.725 655 621.344 545 608.803 486 c 0
 590.735 401 514.504 287 332.504 287 c 0
 298.604 287 272.699 289.8 252.502 296.4 c 1
315.421 583 m 0
 296.479 500 275.437 404.3 257.795 321.3 c 2
 256.562 315.5 l 1
 269.487 312.8 308.905 311 332.605 311 c 0
 429.605 311 495.021 360 517.977 468 c 0
 544.971 595 480.623 631 411.623 631 c 0
 339.623 631 322.742 611.8 315.421 583 c 0
EndSplineSet
Colour: ff00ff
EndChar

StartChar: afii10035
Encoding: 1057 1057 81
Width: 642
VWidth: 999
Flags: HW
HStem: -10 41<268.215 458.261> 621 37<270.584 441.041>
VStem: 33 91<201.241 442.946> 562 33<454.756 496.422>
LayerCount: 2
Fore
SplineSet
350.874 -10 m 0
 135.874 -10 69.7334 154 103.955 315 c 0
 126.125 419.3 181.472 512.2 260.795 573 c 0
 331.273 627 408.862 658 493.862 658 c 0
 616.862 658 653.36 618 703.297 613 c 1
 700.606 558 698.404 510 692.351 458 c 1
 684.131 453.2 677.318 452.2 668.288 453 c 1
 660.568 539 621.123 631 483.123 631 c 0
 431.123 631 355.347 601 292.78 540 c 0
 246.736 495.1 210.338 420.3 191.994 334 c 0
 160.961 188 201.464 21 356.464 21 c 0
 449.464 21 526.179 62 613.758 140 c 1
 624.758 140 630.482 134 633.569 125 c 1
 546.652 36 447.874 -10 350.874 -10 c 0
EndSplineSet
Colour: ff00ff
EndChar

StartChar: afii10036
Encoding: 1058 1058 82
Width: 597
VWidth: 999
Flags: HW
HStem: -2 33<164.625 246.5 368.5 450.375> 606 39<98.3488 251.688 363.118 494.389>
VStem: 3 34<502.785 541.578> 265 85<44.3649 597.249> 557 34<505.143 543.266>
LayerCount: 2
Fore
SplineSet
378.931 536 m 0
 390.196 597 385.935 616 348.935 616 c 2
 289.935 616 l 2
 223.935 616 170.283 580 133.278 500 c 1
 121.278 500 119.491 501 110.341 505 c 1
 131.544 553 153.234 608 166.8 653 c 0
 167.012 654 169.438 656 171.438 656 c 0
 208.8 653 325.099 645 402.099 645 c 2
 488.099 645 l 2
 567.099 645 679.8 653 714.438 656 c 0
 715.438 656 717.012 654 716.8 653 c 0
 708.234 608 701.756 554 698.979 508 c 1
 689.129 504 684.916 503 673.916 503 c 1
 673.283 580 633.935 616 558.935 616 c 2
 526.935 616 l 2
 490.935 616 479.534 600 463.931 536 c 0
 443.227 451.3 432.66 403 415.019 320 c 0
 397.376 237 388.705 191.5 373.169 109 c 0
 357.526 26 381.464 21 450.826 18 c 1
 455.551 12 453.213 1 445.938 -5 c 1
 396.149 -4 362.2 0 308 0 c 0
 253.4 0 216.149 -4 166.938 -5 c 1
 162.213 1 164.551 12 171.826 18 c 1
 242.464 21 268.526 26 288.169 109 c 0
 307.811 192 318.589 238 336.23 321 c 0
 353.873 404 363.737 453.7 378.931 536 c 0
EndSplineSet
Colour: ff00ff
EndChar

StartChar: afii10037
Encoding: 1059 1059 83
Width: 580
VWidth: 999
Flags: HW
HStem: -22 62<133 229.447> 614 33<1.46875 58.6416 176.509 232.375 383.625 442.046 535.176 587.375>
LayerCount: 2
Fore
SplineSet
215.667 523 m 2
 198.037 593.9 191.447 609 135.51 614 c 1
 130.785 620 134.249 641 141.524 647 c 1
 188.312 646 205.099 645 245.099 645 c 0
 284.099 645 319.312 646 366.524 647 c 1
 371.249 641 366.785 620 359.51 614 c 1
 290.021 607 288.063 591.2 301.905 534 c 2
 375.676 229 l 1
 377.676 229 l 1
 550.229 528 l 2
 582.133 584 590.447 609 517.51 614 c 1
 512.785 620 517.249 641 524.524 647 c 1
 571.312 646 610.099 645 633.099 645 c 0
 656.099 645 681.312 646 721.524 647 c 1
 726.249 641 721.785 620 714.51 614 c 1
 646.81 606 623.402 568.8 594.442 521 c 2
 376.222 161 l 2
 310.053 52 239.324 -22 149.324 -22 c 0
 107.324 -22 64.2129 1 71.0146 33 c 0
 76.9658 61 100.217 81 130.217 81 c 0
 144.217 81 164.729 74 172.179 62 c 0
 177.266 53 189.502 40 203.502 40 c 0
 235.502 40 264.966 61 311.907 136 c 1
 215.667 523 l 2
EndSplineSet
EndChar

StartChar: afii10039
Encoding: 1061 1061 84
Width: 677
VWidth: 999
Flags: HW
HStem: -2 29<-157.242 -97.2241 16.7578 38.7578 258.758 281.758 439.54 488.758> 618 29<-144.242 -96.5547 271.758 306.758 403.989 467.758>
DStem2: -32.2422 104 1.75781 77 0.593199 0.805056<-37.1488 242.53 346.726 618.122> 39.7578 572 100.758 344 0.578967 -0.815351<-37.4198 228.231 307.823 589.683>
LayerCount: 2
Fore
SplineSet
573.181 102 m 2
 603.188 43.7002 626.964 21 668.326 18 c 1
 673.051 12 671.713 1 664.438 -5 c 1
 634.649 -4 602.5 0 563.5 0 c 0
 523.5 0 488.649 -4 448.438 -5 c 1
 443.713 1 446.051 12 453.326 18 c 1
 509.964 21 503.844 44.9004 484.109 85.2002 c 2
 397.978 261 l 2
 392.888 271.4 388.378 277 384.378 277 c 0
 381.378 277 370.05 268.4 360.34 258 c 2
 189.017 73 l 2
 157.59 39 167.664 21 211.326 18 c 1
 216.051 12 213.713 1 206.438 -5 c 1
 166.649 -4 125.5 0 102.5 0 c 0
 79.5 0 41.6494 -4 11.4375 -5 c 1
 6.71289 1 9.05078 12 16.3262 18 c 1
 61.9404 22.2998 114.211 47.0996 158.268 93 c 2
 348.354 291 l 2
 357.088 300.1 359.968 308 361.243 314 c 0
 363.368 324 362.199 326.5 353.619 344 c 2
 254.469 547 l 2
 225.745 605.7 198.136 624 156.773 627 c 1
 152.048 633 153.387 644 160.662 650 c 1
 190.449 649 222.599 645 261.599 645 c 0
 301.599 645 336.449 649 376.662 650 c 1
 381.387 644 379.048 633 371.773 627 c 1
 315.136 624 321.291 599.8 340.989 559.8 c 1
 416.673 396 l 2
 421.928 384.5 426.059 379 429.059 379 c 0
 433.059 379 440.494 383.4 452.885 397 c 2
 613.082 572 l 2
 643.682 605.4 634.436 624 590.773 627 c 1
 586.048 633 588.387 644 595.662 650 c 1
 635.449 649 676.599 645 699.599 645 c 0
 722.599 645 760.449 649 790.662 650 c 1
 795.387 644 793.048 633 785.773 627 c 1
 740.159 622.7 688.075 596.9 643.831 552 c 2
 469.209 375 l 2
 454.542 360.1 453.958 355 452.045 346 c 0
 450.408 338.3 457.866 325.4 464.817 312 c 2
 573.181 102 l 2
EndSplineSet
Colour: ff00ff
EndChar

StartChar: afii10040
Encoding: 1062 1062 85
Width: 674
VWidth: 487
Flags: HW
HStem: -2 33<10.625 83.75> 0 39<194.443 469.051> 614 33<10.625 83.75 203.25 276.375 382.625 455.75 575.25 648.375>
VStem: 101 85<45.451 601.619> 473 85<39.9611 601.619> 609 33<-144.75 -92.9922>
LayerCount: 2
Fore
SplineSet
669.167 523 m 2
 583.932 122 l 2
 566.29 39 589.227 34 612.589 31 c 0
 636.73 27.9004 639.251 20 638.338 11 c 0
 632.136 -37 622.87 -90 612.029 -141 c 1
 601.521 -148.1 586.329 -149 578.817 -142 c 1
 579.908 -71 547 0 470 0 c 2
 144 0 l 2
 124 0 62.7871 -1 13.5752 -2 c 1
 8.85059 4 13.3135 25 20.5889 31 c 1
 91.2266 34 109.29 39 126.932 122 c 2
 212.167 523 l 2
 229.81 606 213.872 611 144.51 614 c 1
 139.785 620 144.249 641 151.524 647 c 1
 201.312 646 230.099 645 280.099 645 c 0
 331.099 645 361.312 646 410.524 647 c 1
 415.249 641 410.785 620 403.51 614 c 1
 332.872 611 314.81 606 297.167 523 c 2
 204.918 89 l 2
 198.328 58 212.29 39 241.29 39 c 2
 444.29 39 l 2
 476.29 39 482.353 44 498.932 122 c 2
 584.167 523 l 2
 601.81 606 585.872 611 516.51 614 c 1
 511.785 620 516.249 641 523.524 647 c 1
 573.312 646 602.099 645 652.099 645 c 0
 703.099 645 733.312 646 782.524 647 c 1
 787.249 641 782.785 620 775.51 614 c 1
 704.872 611 686.81 606 669.167 523 c 2
EndSplineSet
EndChar

StartChar: afii10041
Encoding: 1063 1063 86
Width: 650
VWidth: 999
Flags: HW
HStem: -2 33<362.625 435.75 555.25 628.375> 250 58<220.92 371.066> 614 33<11.625 84.75 204.25 277.375 362.625 435.75 555.25 628.375>
VStem: 102 85<340.483 601.619> 453 85<43.3808 314.922 340.809 601.619>
LayerCount: 2
Fore
SplineSet
213.167 523 m 2
 230.81 606 214.872 611 145.51 614 c 1
 140.785 620 145.249 641 152.524 647 c 1
 202.312 646 231.099 645 281.099 645 c 0
 332.099 645 362.312 646 411.524 647 c 1
 416.249 641 411.785 620 404.51 614 c 1
 333.872 611 315.81 606 298.167 523 c 2
 275.636 417 l 2
 258.206 335 292.468 308 364.468 308 c 0
 392.968 308 456.297 311.9 528.032 353 c 1
 564.167 523 l 2
 581.81 606 565.872 611 496.51 614 c 1
 491.785 620 496.249 641 503.524 647 c 1
 553.312 646 582.099 645 632.099 645 c 0
 683.099 645 713.312 646 762.524 647 c 1
 767.249 641 762.785 620 755.51 614 c 1
 684.872 611 666.81 606 649.167 523 c 2
 563.932 122 l 2
 546.29 39 562.227 34 631.589 31 c 1
 636.313 25 631.851 4 624.575 -2 c 1
 574.787 -1 546 0 496 0 c 0
 445 0 414.787 -1 365.575 -2 c 1
 360.851 4 365.313 25 372.589 31 c 1
 443.227 34 461.29 39 478.932 122 c 2
 519.934 314.9 l 1
 437.534 265.5 367.339 250 310.139 250 c 0
 196.139 250 171.931 329 192.975 428 c 2
 213.167 523 l 2
EndSplineSet
EndChar

StartChar: afii10042
Encoding: 1064 1064 87
Width: 969
VWidth: 487
Flags: HW
HStem: 0 37<18.1958 95.1693 200.678 431.849 534.377 768.806 873.831 950.804> 614 33<15.625 88.75 208.25 281.375 349.625 422.75 542.25 615.375 687.625 760.75 880.25 953.375>
VStem: 106 85<43.3808 601.619> 440 85<41.6898 601.619> 778 85<43.3808 601.619>
LayerCount: 2
Fore
SplineSet
820 0 m 2
 149 0 l 1
 149 0 67.7871 -1 18.5752 -2 c 1
 13.8506 4 18.3135 25 25.5889 31 c 1
 96.2266 34 114.29 39 131.932 122 c 2
 217.167 523 l 2
 234.81 606 218.872 611 149.51 614 c 1
 144.785 620 149.249 641 156.524 647 c 1
 206.312 646 235.099 645 285.099 645 c 0
 336.099 645 366.312 646 415.524 647 c 1
 420.249 641 415.785 620 408.51 614 c 1
 337.872 611 319.81 606 302.167 523 c 2
 216.932 122 l 2
 199.502 40 215.864 37 257.864 37 c 2
 396.864 37 l 2
 433.864 37 448.502 40 465.932 122 c 2
 551.167 523 l 2
 568.81 606 552.872 611 483.51 614 c 1
 478.785 620 483.249 641 490.524 647 c 1
 540.312 646 569.099 645 619.099 645 c 0
 670.099 645 700.312 646 749.524 647 c 1
 754.249 641 749.785 620 742.51 614 c 1
 671.872 611 653.81 606 636.167 523 c 2
 550.932 122 l 2
 533.502 40 549.864 37 587.864 37 c 2
 716.864 37 l 2
 772.864 37 786.502 40 803.932 122 c 2
 889.167 523 l 2
 906.81 606 890.872 611 821.51 614 c 1
 816.785 620 821.249 641 828.524 647 c 1
 877.312 646 907.099 645 958.099 645 c 0
 1008.1 645 1037.31 646 1087.52 647 c 1
 1092.25 641 1087.79 620 1080.51 614 c 1
 1009.87 611 991.81 606 974.167 523 c 2
 888.932 122 l 2
 871.29 39 887.227 34 956.589 31 c 1
 961.313 25 956.851 4 949.575 -2 c 1
 900.787 -1 868 0 820 0 c 2
EndSplineSet
EndChar

StartChar: afii10043
Encoding: 1065 1065 88
Width: 979
VWidth: 487
Flags: HW
HStem: 0 37<18.1958 95.1693 200.678 431.849 534.377 768.806> 614 33<15.625 88.75 208.25 281.375 349.625 422.75 542.25 615.375 687.625 760.75 880.25 953.375>
VStem: 106 85<43.3808 601.619> 440 85<41.6898 601.619> 778 85<43.3808 601.619> 914 33<-144.75 -92.9922>
LayerCount: 2
Fore
SplineSet
775 0 m 2
 149 0 l 1
 149 0 67.7871 -1 18.5752 -2 c 1
 13.8506 4 18.3135 25 25.5889 31 c 1
 96.2266 34 114.29 39 131.932 122 c 2
 217.167 523 l 2
 234.81 606 218.872 611 149.51 614 c 1
 144.785 620 149.249 641 156.524 647 c 1
 206.312 646 235.099 645 285.099 645 c 0
 336.099 645 366.312 646 415.524 647 c 1
 420.249 641 415.785 620 408.51 614 c 1
 337.872 611 319.81 606 302.167 523 c 2
 216.932 122 l 2
 199.502 40 215.864 37 257.864 37 c 2
 396.864 37 l 2
 433.864 37 448.502 40 465.932 122 c 2
 551.167 523 l 2
 568.81 606 552.872 611 483.51 614 c 1
 478.785 620 483.249 641 490.524 647 c 1
 540.312 646 569.099 645 619.099 645 c 0
 670.099 645 700.312 646 749.524 647 c 1
 754.249 641 749.785 620 742.51 614 c 1
 671.872 611 653.81 606 636.167 523 c 2
 550.932 122 l 2
 533.502 40 549.864 37 587.864 37 c 2
 716.864 37 l 2
 772.864 37 786.502 40 803.932 122 c 2
 889.167 523 l 2
 906.81 606 890.872 611 821.51 614 c 1
 816.785 620 821.249 641 828.524 647 c 1
 877.312 646 907.099 645 958.099 645 c 0
 1008.1 645 1037.31 646 1087.52 647 c 1
 1092.25 641 1087.79 620 1080.51 614 c 1
 1009.87 611 991.81 606 974.167 523 c 2
 888.932 122 l 2
 871.29 39 894.227 34 917.589 31 c 0
 941.73 27.9004 944.251 20 943.338 11 c 0
 937.136 -37 927.87 -90 917.029 -141 c 1
 906.521 -148.1 891.329 -149 883.817 -142 c 1
 884.908 -71 852 0 775 0 c 2
EndSplineSet
EndChar

StartChar: afii10044
Encoding: 1066 1066 89
Width: 723
VWidth: 999
Flags: HW
HStem: -2 33<174.625 247.75 371.537 520.434> 333 40<350 518.724> 605 40<115.773 256.866> 614 33<367.25 440.375>
VStem: 26 30<470.147 516.776> 265 85<46.5258 333 373 599.457> 594 93<87.5271 266.225>
LayerCount: 2
Fore
SplineSet
439.589 31 m 0
 591.589 31 619.72 121 632.897 183 c 0
 645.651 243 636.781 333 507.781 333 c 2
 420.781 333 l 1
 370.83 98 l 2
 363.816 65 369.589 31 439.589 31 c 0
453.575 -2 m 0
 364.575 -2 351 0 308 0 c 0
 257 0 226.787 -1 177.575 -2 c 1
 172.851 4 177.313 25 184.589 31 c 1
 255.227 34 273.29 39 290.932 122 c 2
 376.167 523 l 2
 392.108 598 381.597 605 334.597 605 c 2
 292.597 605 l 2
 226.597 605 172.829 512 155.689 469 c 1
 141.052 466 133.283 468.5 126.752 474 c 1
 142.655 530 159.708 582 179.099 645 c 1
 266.099 645 444.099 645 444.099 645 c 2
 494.099 645 525.312 646 574.524 647 c 1
 579.249 641 574.785 620 567.51 614 c 1
 496.872 611 478.81 606 461.167 523 c 2
 429.283 373 l 1
 489.283 373 l 2
 735.283 373 744.815 272 725.897 183 c 0
 690.4 16 574.575 -2 453.575 -2 c 0
EndSplineSet
EndChar

StartChar: afii10045
Encoding: 1067 1067 90
Width: 796
VWidth: 999
Flags: HW
HStem: -4 23<517.633 585.311 716.694 784.367> -2 33<13.625 86.75 203.821 338.719> 333 40<189 350.404> 614 33<13.625 86.75 206.25 279.375> 628 23<517.633 585.311 716.842 784.367>
VStem: 104 85<43.498 333 373 601.619> 429 93<101.953 262.707> 611.5 79<34.5092 612.486>
LayerCount: 2
Fore
SplineSet
716.881 110 m 0
 701.239 27 715.176 22 784.539 19 c 1
 789.264 13 786.925 2 779.649 -4 c 1
 729.862 -3 702.013 1 651.713 1 c 0
 601.013 1 569.862 -3 520.649 -4 c 1
 515.925 2 518.264 13 525.539 19 c 1
 596.176 22 612.239 27 631.881 110 c 0
 651.523 193 662.301 239 679.943 322 c 0
 697.585 405 707.001 454 722.643 537 c 0
 738.285 620 724.348 625 654.985 628 c 1
 650.261 634 652.599 645 659.874 651 c 1
 709.662 650 737.512 646 787.812 646 c 0
 838.512 646 869.662 650 918.874 651 c 1
 923.599 645 921.261 634 913.985 628 c 1
 843.348 625 827.785 620 807.643 537 c 0
 787.288 453 776.373 404 758.73 321 c 0
 741.089 238 732.417 192.5 716.881 110 c 0
252.589 31 m 0
 404.589 31 454.72 121 467.897 183 c 0
 480.651 243 462.781 333 334.781 333 c 2
 259.781 333 l 1
 209.83 98 l 2
 202.816 65 204.589 31 252.589 31 c 0
129.932 122 m 2
 215.167 523 l 2
 232.81 606 216.872 611 147.51 614 c 1
 142.785 620 147.249 641 154.524 647 c 1
 204.312 646 233.099 645 283.099 645 c 0
 334.099 645 364.312 646 413.524 647 c 1
 418.249 641 413.785 620 406.51 614 c 1
 335.872 611 317.81 606 300.167 523 c 2
 268.283 373 l 1
 356.283 373 l 2
 575.283 373 579.815 272 560.897 183 c 0
 532.606 49.9004 435.075 -2 243.575 -2 c 0
 207.575 -2 176 0 147 0 c 0
 96 0 65.7871 -1 16.5752 -2 c 1
 11.8506 4 16.3135 25 23.5889 31 c 1
 94.2266 34 112.29 39 129.932 122 c 2
EndSplineSet
Colour: ff00ff
EndChar

StartChar: afii10046
Encoding: 1068 1068 91
Width: 558
VWidth: 999
Flags: HW
HStem: -2 33<13.625 86.75 203.821 338.719> 333 40<189 350.404> 614 33<13.625 86.75 206.25 279.375>
VStem: 104 85<43.498 333 373 601.619> 429 93<101.953 262.707>
LayerCount: 2
Fore
SplineSet
252.589 31 m 0
 404.589 31 454.72 121 467.897 183 c 0
 480.651 243 462.781 333 334.781 333 c 2
 259.781 333 l 1
 209.83 98 l 2
 202.816 65 204.589 31 252.589 31 c 0
129.932 122 m 2
 215.167 523 l 2
 232.81 606 216.872 611 147.51 614 c 1
 142.785 620 147.249 641 154.524 647 c 1
 204.312 646 233.099 645 283.099 645 c 0
 334.099 645 364.312 646 413.524 647 c 1
 418.249 641 413.785 620 406.51 614 c 1
 335.872 611 317.81 606 300.167 523 c 2
 268.283 373 l 1
 356.283 373 l 2
 575.283 373 579.815 272 560.897 183 c 0
 532.606 49.9004 435.075 -2 243.575 -2 c 0
 207.575 -2 176 0 147 0 c 0
 96 0 65.7871 -1 16.5752 -2 c 1
 11.8506 4 16.3135 25 23.5889 31 c 1
 94.2266 34 112.29 39 129.932 122 c 2
EndSplineSet
EndChar

StartChar: afii10047
Encoding: 1069 1069 92
Width: 622
Flags: HMW
HStem: -10 35<188.603 354.115> 291 50<151.594 280.008> 323 56<306.833 443.595> 621 37<205.922 372.452>
VStem: 46 91<72.2243 143.539> 53 30<457.067 493.656> 498 87<334 461.696>
LayerCount: 2
Fore
SplineSet
268.874 -10 m 0
 171.874 -10 56.6279 50 72.3574 124 c 0
 76.6084 144 89.6465 163 114.646 163 c 0
 143.646 163 152.907 136 158.043 99 c 0
 163.541 59 196.313 25 272.313 25 c 0
 420.313 25 517.396 143 560.979 301 c 1
 531.168 316 503.656 323 465.656 323 c 0
 407.656 323 371.854 291 304.854 291 c 0
 245.854 291 189.019 320 194.332 345 c 0
 196.032 353 201.883 357 205.883 357 c 0
 213.883 357 226.481 341 264.481 341 c 0
 323.481 341 374.559 379 437.559 379 c 0
 450.559 379 514.008 367 567.781 333 c 1
 568.994 334 l 1
 614.269 547 514.998 621 435.998 621 c 0
 297.998 621 223.78 540 179.501 454 c 1
 150.351 458 l 1
 171.404 510 189.819 559 205.297 613 c 1
 262.935 616 311.862 658 438.862 658 c 0
 604.862 658 698.505 534 654.081 325 c 0
 614.758 140 483.874 -10 268.874 -10 c 0
EndSplineSet
EndChar

StartChar: afii10048
Encoding: 1070 1070 93
Width: 905
VWidth: 999
Flags: HW
HStem: -35.5 7.9<7.45864 144.877 149.278 289.17> -10 38<517.016 661.795> -5 23<15.1328 82.8102 214.194 281.867> 41.4 7.8<5.4415 49.1656 249.001 290.863> 305 39<187 285> 596.2 7.8<6.98051 48.7468 248.85 292.402> 619 39<495.06 647.995> 627 23<15.1328 82.8102 214.341 281.867> 668 8<11.3456 287.309> 673 8.1<8.67366 148.566 152.967 290.385>
VStem: 78 8<84.4885 563.687> 109 79<33.5092 611.486> 211 8<88.047 545.097> 285 93<192.404 305 344 446.869> 773 93<191.039 458.298>
LayerCount: 2
Fore
SplineSet
693.572 619 m 0
 609.572 619 492.143 537 447.506 327 c 0
 406.695 135 489.951 28 597.951 28 c 0
 700.951 28 800.845 131 838.893 310 c 0
 883.104 518 818.572 619 693.572 619 c 0
214.669 109 m 0
 199.026 26 212.964 21 282.326 18 c 1
 287.051 12 284.713 1 277.438 -5 c 1
 227.649 -4 199.8 0 149.5 0 c 0
 98.7998 0 67.6494 -4 18.4375 -5 c 1
 13.7129 1 16.0508 12 23.3262 18 c 1
 93.9639 21 110.026 26 129.669 109 c 0
 149.311 192 160.089 238 177.73 321 c 0
 195.373 404 204.788 453 220.431 536 c 0
 236.072 619 222.136 624 152.773 627 c 1
 148.048 633 150.387 644 157.662 650 c 1
 207.449 649 235.299 645 285.599 645 c 0
 336.299 645 367.449 649 416.662 650 c 1
 421.387 644 419.048 633 411.773 627 c 1
 341.136 624 325.572 619 305.431 536 c 0
 287.161 460.4 276.429 413.2 261.619 344 c 1
 359.119 344 l 1
 410.167 523 556.862 658 712.862 658 c 0
 880.862 658 978.018 527 935.931 329 c 0
 893.42 129 749.874 -10 571.874 -10 c 0
 413.874 -10 310.594 111 349.83 305 c 1
 253.33 305 l 1
 237.743 231.2 229.221 186.4 214.669 109 c 0
EndSplineSet
EndChar

StartChar: afii10049
Encoding: 1071 1071 94
Width: 580
Flags: HW
HStem: -2 29<7 22 305 337 527 560> 329 33<233.803 237 311.619 392> 611 35<218.954 390.324> 618 28<526 563>
VStem: 88 81<416.839 570.598> 392 81<35.8445 324 362 607.704>
LayerCount: 2
Fore
SplineSet
275.703 502 m 0
 253.173 396 307.945 362 390.945 362 c 2
 468.945 362 l 1
 514.22 575 l 2
 521.234 608 517.872 611 430.872 611 c 0
 374.872 611 295.471 595 275.703 502 c 0
6 0 m 1
 10.0391 19 l 2
 11.1016 24 14.7393 27 18.7393 27 c 2
 27.9512 28 l 2
 60.8018 32 121.965 86.4004 201.763 220 c 0
 240.578 285 275.893 310 306.293 326 c 1
 306.931 329 l 1
 241.057 339 170.685 389 192.365 491 c 0
 207.031 560 259.312 646 445.312 646 c 0
 480.312 646 539.099 645 572.099 645 c 0
 603.099 645 700.312 646 700.312 646 c 1
 695.848 625 l 2
 694.998 621 692.36 618 687.36 618 c 2
 656.935 616 l 2
 614.297 613 601.81 606 594.582 572 c 2
 488.517 73 l 2
 482.14 43 492.802 32 533.164 29 c 2
 559.739 27 l 2
 563.739 27 567.102 24 566.039 19 c 2
 562 0 l 1
 559.575 -2 l 1
 559.575 -2 473 0 434 0 c 0
 398 0 304.575 -2 304.575 -2 c 1
 303 0 l 1
 307.039 19 l 2
 308.102 24 311.739 27 316.739 27 c 2
 343.164 29 l 2
 385.845 32.2002 401.565 45 407.517 73 c 2
 460.868 324 l 1
 354.868 324 328.704 295 264.173 189 c 0
 198.11 80.5 144.021 0.0996094 72.7871 -1 c 2
 6.5752 -2 l 1
 6 0 l 1
EndSplineSet
EndChar

StartChar: afii10089
Encoding: 1095 1095 95
Width: 510
VWidth: 999
Flags: HW
HStem: -2 29<274 294 450 470> 146 35<165.488 293.187> 402 29<18 30 186 206 275 294 415.352 480>
VStem: 71 75<194.637 397.49> 335 75<32.4718 189 207.909 398.291>
LayerCount: 2
Fore
SplineSet
410.032 353 m 2
 418.322 392 413.546 398.7 379.235 401 c 2
 364.447 402 l 2
 360.512 402.3 358.66 403 359.511 407 c 2
 364.187 429 l 1
 366.612 431 l 1
 366.612 431 422.887 429 459.187 429 c 0
 502.887 429 571.612 431 571.612 431 c 1
 572.187 429 l 1
 567.511 407 l 2
 566.873 404 564.469 402.1 561.447 402 c 2
 535.235 401 l 2
 504.08 399.8 493.747 394 485.032 353 c 2
 426.579 78 l 2
 418.502 40 420.479 33.2998 456.164 29 c 2
 472.739 27 l 2
 475.654 26.5996 477.313 25 476.676 22 c 2
 472 0 l 1
 469.575 -2 l 1
 469.575 -2 411 0 374 0 c 0
 333 0 273.575 -2 273.575 -2 c 1
 272 0 l 1
 276.464 21 l 2
 277.313 25 279.633 26.5 283.739 27 c 2
 300.164 29 l 2
 337.32 33.5 343.29 39 351.579 78 c 2
 375.173 189 l 1
 330.009 160 295.033 146 235.033 146 c 0
 137.033 146 111.599 191 134.129 297 c 2
 146.245 354 l 2
 154.322 392 148.621 396.7 115.235 401 c 2
 107.447 402 l 2
 104.533 402.4 102.66 403 103.511 407 c 2
 108.187 429 l 1
 109.612 431 l 1
 109.612 431 162.887 429 197.187 429 c 0
 236.187 429 297.612 431 297.612 431 c 1
 298.187 429 l 1
 293.723 408 l 2
 292.873 404 290.512 402.3 286.447 402 c 2
 271.235 401 l 2
 237.968 398.8 229.109 391 222.308 359 c 2
 208.279 293 l 2
 191.699 215 191.473 181 253.473 181 c 0
 302.473 181 344.023 193 382.825 225 c 1
 410.032 353 l 2
EndSplineSet
EndChar

StartChar: afii10090
Encoding: 1096 1096 96
Width: 818
VWidth: 999
Flags: HW
HStem: -2 29<33 63 750 784> 0 34<182.117 365.221 449.273 630.268> 402 29<33 63 219 242 305 329 484 513 565 594 750 775>
VStem: 103 75<35.9712 397.122> 369 75<36.284 396.916> 635 75<36.4002 397.278>
CounterMasks: 1 1c
LayerCount: 2
Fore
SplineSet
785.032 353 m 2
 725.092 71 l 2
 717.439 35 723.711 31.0996 756.164 29 c 2
 786.739 27 l 2
 790.675 26.7002 792.102 24 791.464 21 c 2
 787 0 l 1
 783.575 -2 l 1
 783.575 -2 700 0 670 0 c 2
 137 0 l 2
 107 0 32.5752 -2 32.5752 -2 c 1
 32 0 l 1
 36.6758 22 l 2
 37.3135 25 38.6328 26.5 42.7393 27 c 2
 69.1641 29 l 2
 104.538 31.7002 111.29 39 118.304 72 c 2
 178.032 353 l 2
 186.109 391 183.327 397.2 148.022 400 c 2
 122.447 402 l 2
 119.49 402.2 117.66 403 118.511 407 c 2
 123.187 429 l 1
 124.612 431 l 1
 232.187 429 l 1
 333.612 431 l 1
 335.187 429 l 1
 330.723 408 l 2
 329.873 404 327.533 402.4 323.447 402 c 2
 304.022 400 l 2
 269.879 396.5 261.747 394 253.032 353 c 2
 196.067 85 l 2
 187.565 45 191.227 34 226.227 34 c 2
 336.227 34 l 2
 371.227 34 378.99 47 386.854 84 c 2
 443.82 352 l 2
 452.109 391 446.121 396.7 414.022 400 c 2
 394.447 402 l 2
 391.512 402.3 389.66 403 390.511 407 c 2
 395.187 429 l 1
 396.612 431 l 1
 496.187 429 l 1
 604.612 431 l 1
 605.187 429 l 1
 600.511 407 l 2
 599.873 404 597.512 402.3 593.447 402 c 2
 569.022 400 l 2
 537.87 397.4 527.535 393 518.82 352 c 2
 462.067 85 l 2
 453.14 43 463.227 34 491.227 34 c 2
 602.227 34 l 2
 639.227 34 646.479 54 653.067 85 c 2
 710.032 353 l 2
 718.109 391 714.985 397 679.022 400 c 2
 655.447 402 l 2
 651.512 402.3 649.66 403 650.511 407 c 2
 655.187 429 l 1
 656.612 431 l 1
 760.187 429 l 1
 866.612 431 l 1
 867.187 429 l 1
 862.723 408 l 2
 861.873 404 859.512 402.3 856.447 402 c 2
 835.022 400 l 2
 802.785 397 793.747 394 785.032 353 c 2
EndSplineSet
EndChar

StartChar: afii10091
Encoding: 1097 1097 97
Width: 809
VWidth: 999
Flags: HMW
HStem: -2 29<33 63> 0 34<181.744 365.221 448.881 630.687> 402 29<33 63 219 242 305 329 484 513 565 594 750 775>
VStem: 104 74<35.7845 397.151> 369 75<36.1619 397.035> 635 74<36.5977 397.021>
CounterMasks: 1 1c
LayerCount: 2
Fore
SplineSet
784.032 353 m 2
 724.729 74 l 2
 719.415 49 729.377 30 751.739 27 c 0
 764.277 25.2998 777.889 23 775.062 5 c 2
 752.793 -128 l 1
 727.58 -129 l 1
 725.995 -80 716 0 636 0 c 2
 137 0 l 2
 107 0 32.5752 -2 32.5752 -2 c 1
 32 0 l 1
 36.4639 21 l 2
 37.3135 25 38.6328 26.5 42.7393 27 c 2
 69.1641 29 l 2
 103.117 31.5996 111.864 37 119.304 72 c 2
 179.032 353 l 2
 187.109 391 182.349 397.3 148.022 400 c 2
 122.447 402 l 2
 119.49 402.2 117.66 403 118.511 407 c 2
 123.187 429 l 1
 124.612 431 l 1
 231.187 429 l 1
 333.612 431 l 1
 335.187 429 l 1
 330.723 408 l 2
 329.873 404 327.533 402.4 323.447 402 c 2
 304.022 400 l 2
 269.879 396.5 261.747 394 253.032 353 c 2
 195.643 83 l 2
 187.353 44 191.227 34 226.227 34 c 2
 336.227 34 l 2
 371.227 34 378.777 46 386.643 83 c 2
 443.82 352 l 2
 452.109 391 446.821 396.7 414.022 400 c 2
 394.447 402 l 2
 391.512 402.3 389.66 403 390.511 407 c 2
 395.187 429 l 1
 396.612 431 l 1
 497.187 429 l 1
 604.612 431 l 1
 605.187 429 l 1
 600.511 407 l 2
 599.873 404 597.512 402.3 593.447 402 c 2
 569.022 400 l 2
 533.406 397.1 527.535 393 518.82 352 c 2
 461.643 83 l 2
 452.928 42 463.227 34 492.227 34 c 2
 601.227 34 l 2
 638.227 34 645.841 51 652.854 84 c 2
 710.032 353 l 2
 718.109 391 711.049 397.3 679.022 400 c 2
 655.447 402 l 2
 651.512 402.3 649.66 403 650.511 407 c 2
 655.187 429 l 1
 656.612 431 l 1
 758.187 429 l 1
 866.612 431 l 1
 867.187 429 l 1
 862.723 408 l 2
 861.873 404 859.512 402.3 856.447 402 c 2
 835.022 400 l 2
 799.421 396.7 792.747 394 784.032 353 c 2
EndSplineSet
EndChar

StartChar: afii10092
Encoding: 1098 1098 98
Width: 537
VWidth: 999
Flags: HMW
HStem: -2 31<128 153 280.978 394.853> 224 32<271 396.312> 392 37<95.6091 193.705> 402 29<311 345>
VStem: 196 75<35.7372 224 256 391.315> 431 75<61.062 196.916>
LayerCount: 2
Fore
SplineSet
211.729 74 m 2
 269.757 347 l 2
 277.622 384 272.322 392 250.322 392 c 0
 168.322 392 145.883 357 111.453 275 c 1
 85.5156 280 l 1
 102.293 326 115.858 371 129.187 429 c 1
 325.187 429 l 1
 436.612 431 l 1
 438.187 429 l 1
 433.511 407 l 2
 432.66 403 430.49 402.2 427.447 402 c 2
 396.022 400 l 2
 359.634 397.7 354.322 392 346.883 357 c 2
 325.414 256 l 1
 382.414 256 l 2
 478.414 256 554.888 230 534.908 136 c 0
 517.053 52 444.575 -2 332.575 -2 c 1
 332.575 -2 270.8 0 231 0 c 0
 190.8 0 127.575 -2 127.575 -2 c 1
 126 0 l 1
 130.039 19 l 2
 131.102 24 134.633 26.5 139.739 27 c 2
 159.164 29 l 2
 195.771 32.7998 205.565 45 211.729 74 c 2
457.782 126 m 0
 469.048 179 456.612 224 385.612 224 c 2
 318.612 224 l 1
 287.579 78 l 2
 279.928 42 294.164 29 340.164 29 c 0
 390.164 29 440.353 44 457.782 126 c 0
EndSplineSet
EndChar

StartChar: afii10093
Encoding: 1099 1099 99
Width: 681
VWidth: 999
Flags: HW
HStem: -2 31<38 63 188.805 304.466> -2 33<432.625 494.875 600.125 662.375> 224 32<181 306.312> 398 33<432.625 494.875 600.125 662.375> 401 29<38 63 224 249>
VStem: 106 75<34.4717 224 256 394.233> 341 75<61.062 196.916> 508 79<40.8314 388.169>
LayerCount: 2
Fore
SplineSet
643.192 302 m 0
 630.564 252 610.159 156 601.531 106 c 0
 587.96 27.0996 593.464 21 650.613 17 c 1
 655.338 11 653.213 1 645.938 -5 c 1
 605.149 -4 583 0 542 0 c 0
 500.2 0 474.149 -4 433.938 -5 c 1
 429.213 1 431.338 11 438.613 17 c 1
 497.676 22 505.561 27.0996 525.531 106 c 0
 538.159 156 558.564 252 567.192 302 c 0
 580.763 380.9 575.26 387 518.109 391 c 1
 513.385 397 515.723 408 522.998 414 c 1
 563.786 413 586.535 409 627.936 409 c 0
 669.336 409 694.786 413 734.998 414 c 1
 739.723 408 737.385 397 730.109 391 c 1
 671.047 386 663.163 380.9 643.192 302 c 0
367.782 126 m 0
 379.048 179 366.612 224 295.612 224 c 2
 228.612 224 l 1
 196.729 74 l 2
 189.29 39 204.164 29 250.164 29 c 0
 300.164 29 350.353 44 367.782 126 c 0
121.729 74 m 2
 181.458 355 l 2
 187.622 384 182.624 395.3 147.811 399 c 2
 129.235 401 l 2
 124.342 401.5 121.873 404 123.148 410 c 2
 126.975 428 l 1
 129.399 430 l 1
 129.399 430 197.187 429 233.187 429 c 0
 272.187 429 340.399 430 340.399 430 c 1
 341.975 428 l 1
 338.148 410 l 2
 336.873 404 332.32 401.4 328.235 401 c 2
 308.811 399 l 2
 275.388 395.6 262.622 384 256.458 355 c 2
 235.414 256 l 1
 292.414 256 l 2
 388.414 256 464.888 230 444.907 136 c 0
 427.053 52 353.575 -2 242.575 -2 c 0
 203.175 -2 181.4 0 142 0 c 0
 101.4 0 37.5752 -2 37.5752 -2 c 1
 36 0 l 1
 40.0391 19 l 2
 41.1016 24 44.6328 26.5 49.7393 27 c 2
 69.1641 29 l 2
 106.372 32.7998 115.565 45 121.729 74 c 2
EndSplineSet
Colour: ff00ff
EndChar

StartChar: afii10094
Encoding: 1100 1100 100
Width: 447
VWidth: 999
Flags: HW
HStem: -2 31<38 63 188.805 304.466> 224 32<181 306.312> 401 29<38 63 224 249>
VStem: 106 75<34.4717 224 256 394.233> 341 75<61.062 196.916>
LayerCount: 2
Fore
SplineSet
367.782 126 m 0
 379.048 179 366.612 224 295.612 224 c 2
 228.612 224 l 1
 196.729 74 l 2
 189.29 39 204.164 29 250.164 29 c 0
 300.164 29 350.353 44 367.782 126 c 0
121.729 74 m 2
 181.458 355 l 2
 187.622 384 182.624 395.3 147.811 399 c 2
 129.235 401 l 2
 124.342 401.5 121.873 404 123.148 410 c 2
 126.975 428 l 1
 129.399 430 l 1
 129.399 430 197.187 429 233.187 429 c 0
 272.187 429 340.399 430 340.399 430 c 1
 341.975 428 l 1
 338.148 410 l 2
 336.873 404 332.32 401.4 328.235 401 c 2
 308.811 399 l 2
 275.388 395.6 262.622 384 256.458 355 c 2
 235.414 256 l 1
 292.414 256 l 2
 388.414 256 464.888 230 444.907 136 c 0
 427.053 52 353.575 -2 242.575 -2 c 0
 203.175 -2 181.4 0 142 0 c 0
 101.4 0 37.5752 -2 37.5752 -2 c 1
 36 0 l 1
 40.0391 19 l 2
 41.1016 24 44.6328 26.5 49.7393 27 c 2
 69.1641 29 l 2
 106.372 32.7998 115.565 45 121.729 74 c 2
EndSplineSet
EndChar

StartChar: afii10095
Encoding: 1101 1101 101
Width: 432
Flags: HMW
HStem: -10 33<135.868 248.983> 188 40<96.8259 189.858> 210 46<168.145 303.228> 408 31<137.092 253.245>
VStem: 35 72<45.2656 105.438> 51 25<298.88 331.675> 315 81<106.985 208.09 230 333.791>
LayerCount: 2
Fore
SplineSet
52.4297 82 m 0
 55.8301 98 69.5938 111 87.5938 111 c 0
 104.594 111 115.31 105.9 122.729 74 c 0
 128.99 47 150.889 23 190.889 23 c 0
 274.889 23 332.43 82 357.724 201 c 1
 346.787 206 334.637 210 321.637 210 c 0
 283.637 210 260.961 188 215.961 188 c 0
 172.961 188 130.787 206 133.763 220 c 0
 134.612 224 138.738 234 144.738 234 c 0
 151.738 234 162.463 228 175.463 228 c 0
 210.463 228 243.414 256 286.414 256 c 0
 315.414 256 339.864 244 362.463 228 c 1
 365.888 230 l 1
 385.443 322 373.723 408 284.723 408 c 0
 210.723 408 169.521 360 138.917 296 c 1
 114.767 300 l 1
 134.97 348 147.196 382 158.273 420 c 1
 207.911 423 252.312 439 299.312 439 c 0
 432.312 439 468.694 342 442.975 221 c 0
 408.753 60 293.874 -10 194.874 -10 c 0
 103.874 -10 41.1641 29 52.4297 82 c 0
EndSplineSet
EndChar

StartChar: afii10096
Encoding: 1102 1102 102
Width: 686
VWidth: 999
Flags: HW
HStem: -10 35<422.78 523.403> -2 29<29 54 214 240> 198 39<171 268> 402 29<29 54 214 240> 406 33<403.08 503.112>
VStem: 97 74<33.7976 198 237 394.785> 268 80<113.871 198 237 323.327> 569 80<107.111 329.997>
LayerCount: 2
Fore
SplineSet
535.298 406 m 0
 461.298 406 414.53 313 396.038 226 c 0
 379.671 149 386.313 25 480.313 25 c 0
 521.313 25 580.266 53 608.323 185 c 0
 639.356 331 613.298 406 535.298 406 c 0
319.376 237 m 1
 354.67 356 437.312 439 552.312 439 c 0
 696.312 439 717.23 321 695.125 217 c 0
 673.869 117 594.874 -10 455.874 -10 c 0
 327.874 -10 290.618 97 310.086 198 c 1
 213.086 198 l 1
 186.729 74 l 2
 180.565 45 188.487 32.4004 220.164 29 c 2
 238.739 27 l 2
 243.633 26.5 247.102 24 246.039 19 c 2
 242 0 l 1
 239.575 -2 l 1
 239.575 -2 171 0 132 0 c 0
 97 0 28.5752 -2 28.5752 -2 c 1
 27 0 l 1
 31.0391 19 l 2
 32.1016 24 35.6328 26.5 40.7393 27 c 2
 60.1641 29 l 2
 93.2871 32.4004 106.565 45 112.729 74 c 2
 172.67 356 l 2
 178.622 384 171.079 396.5 139.022 400 c 2
 120.447 402 l 2
 115.554 402.5 113.085 405 114.148 410 c 2
 118.187 429 l 1
 120.612 431 l 1
 120.612 431 188.187 429 223.187 429 c 0
 262.187 429 331.612 431 331.612 431 c 1
 333.187 429 l 1
 329.148 410 l 2
 328.085 405 323.554 402.5 318.447 402 c 2
 299.022 400 l 2
 267.542 396.8 252.622 384 246.67 356 c 2
 221.376 237 l 1
 319.376 237 l 1
EndSplineSet
EndChar

StartChar: afii10097
Encoding: 1103 1103 103
Width: 439
Flags: HW
HStem: -2 29<17 32 224 245 360.133 408> 196 34<214.641 280> 204 26<167.232 185> 402 29<162.408 277.495 380 406>
VStem: 57 75<253.842 376.353> 280 75<29.6205 196 230 399.607>
LayerCount: 2
Fore
SplineSet
14 0 m 1
 18.0391 19 l 2
 19.5264 26 25.7393 27 29.7393 27 c 2
 37.9512 28 l 2
 65.5889 31 111.701 94.0996 134.845 131 c 0
 160.56 172 198.661 196 227.724 201 c 1
 228.361 204 l 1
 173.361 204 107.801 239 122.893 310 c 0
 129.057 339 157.612 431 328.612 431 c 0
 404.612 431 378.187 429 410.187 429 c 0
 444.187 429 497.612 431 497.612 431 c 1
 499.187 429 l 1
 494.085 405 l 2
 493.66 403 492.447 402 490.447 402 c 2
 465.022 400 l 2
 446.811 399 438.109 391 433.646 370 c 2
 371.367 77 l 2
 365.841 51 366.164 29 381.951 28 c 2
 403.739 27 l 2
 411.739 27 412.251 20 411.826 18 c 2
 407.575 -2 l 1
 407.575 -2 352 0 317 0 c 0
 281 0 223.575 -2 223.575 -2 c 1
 228.251 20 l 2
 229.102 24 231.739 27 235.739 27 c 2
 250.951 28 l 2
 284.419 30.2002 288.077 38 296.367 77 c 2
 321.661 196 l 1
 296.661 196 l 2
 256.661 196 220.125 154.9 181.918 89 c 0
 153.502 40 112 0 79.7871 -1 c 2
 16.5752 -2 l 1
 14 0 l 1
200.23 321 m 0
 189.603 271 204.888 230 261.888 230 c 2
 328.888 230 l 1
 357.796 366 l 2
 364.598 398 358.447 402 319.447 402 c 0
 233.447 402 210.221 368 200.23 321 c 0
EndSplineSet
EndChar

StartChar: uni04AE
Encoding: 1198 1198 104
Width: 610
VWidth: 999
Flags: HW
HStem: -2 33<-43.1539 38.7211 160.721 242.596> 614 33<-192.31 -132.801 -28.2999 29.5961 197.145 254.331 311.006 377.297>
VStem: 57.2 85<44.3649 325.991>
DStem2: -19.7789 576 -95.1134 547 0.510948 -0.859612<-29.6148 264.07> 247.221 576 159.753 334 0.483796 0.875181<-260.327 28.8238>
LayerCount: 2
Fore
SplineSet
382.169 109 m 2
 366.451 28 380.464 21 459.826 18 c 1
 464.551 12 462.213 1 454.938 -5 c 1
 405.149 -4 371.2 0 317 0 c 0
 262.4 0 225.149 -4 175.938 -5 c 1
 171.213 1 173.551 12 180.826 18 c 1
 261.464 21 278.352 28 297.169 109 c 2
 332.052 259 l 2
 339.917 296 333.623 296.5 322.394 326 c 2
 237.969 547 l 2
 211.907 615.4 182.636 624 141.273 627 c 1
 136.548 633 137.887 644 145.162 650 c 1
 174.949 649 217.099 645 256.099 645 c 0
 296.099 645 334.949 649 375.162 650 c 1
 379.887 644 377.548 633 370.273 627 c 1
 313.636 624 298.287 618.6 313.433 576 c 2
 392.445 354 l 2
 397.844 338 409.307 335 421.92 352 c 2
 588.433 576 l 2
 619.682 618.1 595.936 624 552.273 627 c 1
 547.548 633 549.674 643 556.949 649 c 1
 596.736 648 624.099 645 647.099 645 c 0
 670.099 645 710.736 648 740.949 649 c 1
 745.674 643 743.548 633 736.273 627 c 1
 690.659 622.7 655.271 615.7 616.395 565 c 2
 439.594 334 l 2
 430.037 321.5 421.361 307.5 412.901 267.7 c 2
 382.169 109 l 2
EndSplineSet
Colour: ff00ff
EndChar

StartChar: uni04C0
Encoding: 1216 1216 105
Width: 303
VWidth: 999
Flags: HW
HStem: -35.5 7.9<-152.104 -14.6855 -10.2845 129.608> -5 23<-144.43 -76.7523 54.6315 122.305> 41.4 7.8<-154.121 -110.397 89.4385 131.301> 596.2 7.8<-152.582 -110.816 89.2875 132.84> 627 23<-144.43 -76.7523 54.7785 122.305> 668 8<-148.217 127.746> 673 8.1<-150.889 -10.9965 -6.5955 130.823>
VStem: -81.6 8<84.4885 563.687> -50.6 79<33.5092 611.486> 51.4 8<88.047 545.097>
CounterMasks: 1 01c0
LayerCount: 2
Fore
SplineSet
214.669 109 m 0
 199.026 26 212.964 21 282.326 18 c 1
 287.051 12 284.713 1 277.438 -5 c 1
 227.649 -4 199.8 0 149.5 0 c 0
 98.7998 0 67.6494 -4 18.4375 -5 c 1
 13.7129 1 16.0508 12 23.3262 18 c 1
 93.9639 21 110.026 26 129.669 109 c 0
 149.311 192 160.089 238 177.73 321 c 0
 195.373 404 204.788 453 220.431 536 c 0
 236.072 619 222.136 624 152.773 627 c 1
 148.048 633 150.387 644 157.662 650 c 1
 207.449 649 235.299 645 285.599 645 c 0
 336.299 645 367.449 649 416.662 650 c 1
 421.387 644 419.048 633 411.773 627 c 1
 341.136 624 325.572 619 305.431 536 c 0
 285.075 452 274.16 403 256.519 320 c 0
 238.876 237 230.204 191.5 214.669 109 c 0
EndSplineSet
Colour: ff00ff
EndChar

StartChar: uni04D0
Encoding: 1232 1232 106
Width: 689
VWidth: 999
Flags: HW
HStem: -2 33<-151.73 -87.2642 3.726 72.02 281.27 358.596 465.793 533.02> 241 42<85.664 284.645> 638 20<226.145 240.848> 698 31<158.23 249.06>
VStem: 78.6 69<735.873 804.004> 259.6 69<737.589 804.004>
DStem2: -48.372 102 -0.354996 79 0.390001 0.920814<-30.5131 181.817 227.512 466.368> 178.645 638 184.645 555 0.390001 0.920814<-561.337 -408.806 -359.549 -74.0876> 233.645 658 190.645 555 0.338836 -0.940845<82.3371 370.098 415.035 619.885>
LayerCount: 2
Fore
SplineSet
517.554 729 m 0
 550.554 729 577.167 746 580.78 763 c 0
 581.844 768 582.119 774 582.544 776 c 0
 585.732 791 598.921 806 621.921 806 c 0
 648.921 806 655.945 792 651.906 773 c 0
 640.854 721 576.965 698 510.965 698 c 0
 444.965 698 390.854 721 401.906 773 c 0
 405.944 792 418.921 806 445.921 806 c 0
 468.921 806 475.732 791 472.544 776 c 0
 472.119 774 469.844 768 468.78 763 c 0
 465.167 746 484.554 729 517.554 729 c 0
319.591 278 m 2
 498.591 278 l 1
 461.469 555 l 1
 458.469 555 l 1
 298.28 296.3 l 2
 291.912 286.1 297.591 278 319.591 278 c 2
162.166 69 m 2
 137.103 27.2998 183.278 20.5996 220.326 18 c 1
 225.051 12 222.713 1 215.438 -5 c 1
 178.649 -4 149.5 0 108.5 0 c 0
 69.5 0 45.6494 -4 8.4375 -5 c 1
 3.71289 1 6.05078 12 13.3262 18 c 1
 57.4639 21 90.3525 31.2998 129.056 92 c 2
 477.111 638 l 1
 490.111 638 503.449 649 520.362 658 c 1
 605.654 76 l 2
 613.135 25.0996 645.27 21.5 683.326 18 c 1
 688.051 12 685.713 1 678.438 -5 c 1
 641.649 -4 612.5 0 571.5 0 c 0
 532.5 0 476.649 -4 439.438 -5 c 1
 434.713 1 437.051 12 444.326 18 c 1
 492.648 21.4004 533.063 21 527.679 62 c 2
 503.289 246 l 1
 294.789 246 l 2
 270.789 246 262.876 237 255.112 224 c 2
 162.166 69 l 2
EndSplineSet
LCarets2: 1 0 
Colour: ff00ff
EndChar

StartChar: uni04D1
Encoding: 1233 1233 107
Width: 447
VWidth: 999
Flags: HW
HStem: -10 41<139.654 240.143 343.315 429.949> 406 33<144.709 258.364> 503 31<171.971 246.548>
VStem: 36 83<50.144 160.39> 55 74<295.655 377.387> 88 73<540.553 619.612> 257 73<541.079 620.243> 293 78<68.9033 233 264.049 372.119>
DStem2: 201 243 214 212 0.971457 0.237216<-61.6983 87.0019>
LayerCount: 2
Fore
SplineSet
455.408 590 m 0
 443.718 535 378.916 503 314.916 503 c 0
 249.916 503 201.931 536 213.408 590 c 0
 217.234 608 236.423 623 259.423 623 c 0
 281.423 623 290.447 609 287.046 593 c 0
 286.408 590 285.983 588 284.346 585 c 0
 282.708 582 282.07 579 281.646 577 c 0
 276.969 555 292.505 534 322.505 534 c 0
 351.505 534 376.756 554 381.433 576 c 0
 382.07 579 382.708 582 382.346 585 c 0
 381.771 587 382.195 589 382.834 592 c 0
 386.447 609 406.423 623 424.423 623 c 0
 448.423 623 459.447 609 455.408 590 c 0
331.062 212 m 1
 244.811 192 l 2
 169.912 174.6 142.526 129.5 134.556 92 c 0
 128.179 62 138.251 20 186.251 20 c 0
 213.251 20 253.841 51 283.092 71 c 0
 292.367 77 298.163 83.0996 301.193 95 c 2
 331.062 212 l 1
290.777 46 m 1
 288.777 46 l 1
 266.589 31 l 2
 217.787 -1 195.874 -10 151.874 -10 c 0
 84.874 -10 45.1885 15 60.7051 88 c 0
 74.5215 153 142.209 201.4 239.188 222 c 2
 333.438 242 l 2
 336.651 243 341.414 256 342.902 263 c 0
 365.858 371 328.385 397 296.385 397 c 0
 260.385 397 210.134 377 203.757 347 c 0
 201.632 337 201.356 331 201.719 328 c 0
 202.868 324 202.593 318 201.105 311 c 0
 198.555 299 183.304 279 155.304 279 c 0
 133.304 279 126.642 290 131.53 313 c 0
 142.37 364 231.062 419 309.062 419 c 0
 379.062 419 443.768 390.8 410.627 257 c 2
 375.444 115 l 2
 364.783 71.9004 360.102 24 397.102 24 c 0
 417.102 24 423.502 40 429.502 40 c 0
 433.502 40 442.502 40 441.015 33 c 0
 439.951 28 397.874 -10 350.874 -10 c 0
 299.874 -10 292.526 26 290.777 46 c 1
EndSplineSet
LCarets2: 1 0 
Colour: ff00ff
EndChar

StartChar: uni04D2
Encoding: 1234 1234 108
Width: 689
VWidth: 999
Flags: HW
HStem: -2 33<-151.73 -87.2642 3.726 72.02 281.27 358.596 465.793 533.02> 241 42<85.664 284.645> 638 20<226.145 240.848> 711 95<79.661 157.629 248.661 326.629>
VStem: 71.6 94<718.394 798.312> 240.6 94<718.394 798.312>
DStem2: -48.372 102 -0.354996 79 0.390001 0.920814<-30.5131 181.817 227.512 466.368> 178.645 638 184.645 555 0.390001 0.920814<-561.337 -408.806 -359.549 -74.0876> 233.645 658 190.645 555 0.338836 -0.940845<82.3371 370.098 415.035 619.885>
LayerCount: 2
Fore
SplineSet
392.718 758 m 0
 398.244 784 423.921 806 449.921 806 c 0
 475.921 806 492.244 784 486.718 758 c 0
 481.191 732 455.728 711 429.728 711 c 0
 403.728 711 387.191 732 392.718 758 c 0
561.718 758 m 0
 567.244 784 592.921 806 618.921 806 c 0
 644.921 806 661.244 784 655.718 758 c 0
 650.191 732 624.728 711 598.728 711 c 0
 572.728 711 556.191 732 561.718 758 c 0
319.591 278 m 2
 498.591 278 l 1
 461.469 555 l 1
 458.469 555 l 1
 298.28 296.3 l 2
 291.912 286.1 297.591 278 319.591 278 c 2
162.166 69 m 2
 137.103 27.2998 183.278 20.5996 220.326 18 c 1
 225.051 12 222.713 1 215.438 -5 c 1
 178.649 -4 149.5 0 108.5 0 c 0
 69.5 0 45.6494 -4 8.4375 -5 c 1
 3.71289 1 6.05078 12 13.3262 18 c 1
 57.4639 21 90.3525 31.2998 129.056 92 c 2
 477.111 638 l 1
 490.111 638 503.449 649 520.362 658 c 1
 605.654 76 l 2
 613.135 25.0996 645.27 21.5 683.326 18 c 1
 688.051 12 685.713 1 678.438 -5 c 1
 641.649 -4 612.5 0 571.5 0 c 0
 532.5 0 476.649 -4 439.438 -5 c 1
 434.713 1 437.051 12 444.326 18 c 1
 492.648 21.4004 533.063 21 527.679 62 c 2
 503.289 246 l 1
 294.789 246 l 2
 270.789 246 262.876 237 255.112 224 c 2
 162.166 69 l 2
EndSplineSet
LCarets2: 1 0 
Colour: ff00ff
EndChar

StartChar: uni04D3
Encoding: 1235 1235 109
Width: 447
VWidth: 999
Flags: HW
HStem: -10 41<139.654 240.143 343.315 429.949> 406 33<144.709 258.364> 528 95<91.0156 168.984 260.016 337.984>
VStem: 36 83<50.144 160.39> 55 74<295.655 377.387> 83 94<535.394 615.312> 252 94<535.394 615.312> 293 78<68.9033 233 264.049 372.119>
DStem2: 201 243 214 212 0.971457 0.237216<-61.6983 87.0019>
LayerCount: 2
Fore
SplineSet
205.22 575 m 0
 210.746 601 236.423 623 262.423 623 c 0
 288.423 623 304.746 601 299.22 575 c 0
 293.693 549 268.229 528 242.229 528 c 0
 216.229 528 199.693 549 205.22 575 c 0
374.22 575 m 0
 379.746 601 405.423 623 431.423 623 c 0
 457.423 623 473.746 601 468.22 575 c 0
 462.693 549 437.229 528 411.229 528 c 0
 385.229 528 368.693 549 374.22 575 c 0
331.062 212 m 1
 244.811 192 l 2
 169.912 174.6 142.526 129.5 134.556 92 c 0
 128.179 62 138.251 20 186.251 20 c 0
 213.251 20 253.841 51 283.092 71 c 0
 292.367 77 298.163 83.0996 301.193 95 c 2
 331.062 212 l 1
290.777 46 m 1
 288.777 46 l 1
 266.589 31 l 2
 217.787 -1 195.874 -10 151.874 -10 c 0
 84.874 -10 45.1885 15 60.7051 88 c 0
 74.5215 153 142.209 201.4 239.188 222 c 2
 333.438 242 l 2
 336.651 243 341.414 256 342.902 263 c 0
 365.858 371 328.385 397 296.385 397 c 0
 260.385 397 210.134 377 203.757 347 c 0
 201.632 337 201.356 331 201.719 328 c 0
 202.868 324 202.593 318 201.105 311 c 0
 198.555 299 183.304 279 155.304 279 c 0
 133.304 279 126.642 290 131.53 313 c 0
 142.37 364 231.062 419 309.062 419 c 0
 379.062 419 443.768 390.8 410.627 257 c 2
 375.444 115 l 2
 364.783 71.9004 360.102 24 397.102 24 c 0
 417.102 24 423.502 40 429.502 40 c 0
 433.502 40 442.502 40 441.015 33 c 0
 439.951 28 397.874 -10 350.874 -10 c 0
 299.874 -10 292.526 26 290.777 46 c 1
EndSplineSet
LCarets2: 1 0 
Colour: ff00ff
EndChar

StartChar: uni04D4
Encoding: 1236 1236 110
Width: 891
VWidth: 999
Flags: HW
HStem: -2 29<4 35 167 201 342 374> 0 39<514.23 740.226> 266 39<271 429> 329 34<512 654.005> 605 40<517.062 711.984> 618 28<296 333>
VStem: 429 83<40.8651 266 305 329 363 597.745> 671 33<247 312.081 407 445>
DStem2: 102.87 85 148 68 0.46188 0.886943<-25.6807 228.955 272.783 581.116>
LayerCount: 2
Fore
SplineSet
489.103 271 m 1
 301.603 271 l 1
 160.792 79 l 2
 132.202 40 180.778 20.5996 217.826 18 c 1
 222.551 12 220.213 1 212.938 -5 c 1
 176.149 -4 136 0 95 0 c 0
 56 0 33.1494 -4 -4.0625 -5 c 1
 -8.78711 1 -6.44922 12 0.826172 18 c 1
 44.9639 21 88.376 42.7002 132.681 102 c 2
 472.394 557 l 2
 495.119 587.7 496.636 624 427.273 627 c 1
 422.548 633 424.887 644 432.162 650 c 1
 481.949 649 573.399 645 605.099 645 c 2
 903.599 645 l 2
 927.599 645 936.449 649 954.087 652 c 0
 957.087 652 957.874 651 957.449 649 c 0
 957.749 641 951.706 542 947.991 501 c 1
 937.191 496.3 935.945 494.2 923.928 496 c 1
 916.595 565 911.86 618 836.86 618 c 2
 681.86 618 l 2
 657.86 618 642.509 598 636.508 574 c 0
 616.078 492 588.17 356 588.17 356 c 1
 704.383 357 l 2
 789.531 357.7 794.934 369 809.624 424 c 1
 816.899 430 827.899 430 832.624 424 c 1
 825.247 394 816.486 371.6 809.344 338 c 0
 802.861 307.5 804.204 295 797.765 260 c 1
 790.489 254 779.489 254 774.765 260 c 1
 781.33 305 782.857 326.3 698.006 327 c 2
 582.219 328 l 1
 582.219 328 543.915 152.5 529.166 69 c 0
 524.428 42 534.026 26 556.026 26 c 2
 712.026 26 l 2
 788.026 26 838.33 98 873.635 170 c 1
 887.415 173.2 888.447 171 897.572 165 c 1
 878.731 114 849.065 45 824.438 -5 c 1
 824.438 -5 745.5 0 697.5 0 c 2
 472.5 0 l 2
 442.5 0 390.649 -4 341.438 -5 c 1
 336.713 1 339.051 12 346.326 18 c 1
 416.964 21 432.526 26 452.669 109 c 0
 468.357 173.4 477.391 215.9 489.103 271 c 1
543.431 536 m 0
 550.508 574 551.81 606 548.234 608 c 1
 321.767 300 l 1
 495.267 300 l 1
 496.712 306.8 498.179 313.7 499.73 321 c 0
 517.373 404 528.313 455 543.431 536 c 0
EndSplineSet
Colour: ff00ff
EndChar

StartChar: uni04D5
Encoding: 1237 1237 111
Width: 687
VWidth: 999
Flags: HW
HStem: -10 42<132.793 243.1> -10 49<444.327 573.669> 218 35<215.914 298 372 518.524> 406 33<139.076 257.423 437.083 538.999>
VStem: 39 72<52.4808 155.985> 50 73<295.734 386.997> 298 73<125.441 215> 572 76<285.698 380.924>
AnchorPoint: "top_akzent" 478.099 645 basechar 0
LayerCount: 2
Fore
SplineSet
346.622 384 m 0
 335.174 399.3 307.298 406 286.298 406 c 0
 247.298 406 206.322 392 200.158 363 c 0
 198.032 353 197.545 346 198.907 343 c 0
 200.057 339 199.568 332 198.081 325 c 0
 194.68 309 177.066 292 152.066 292 c 0
 121.066 292 117.381 317 121.632 337 c 0
 133.96 395 221.312 439 303.312 439 c 0
 327.312 439 403.675 436 426.434 369 c 1
 468.998 414 526.312 439 583.312 439 c 0
 697.312 439 727.283 373 720.057 339 c 0
 702.84 258 648.975 221 417.337 218 c 1
 398.207 128 438.29 39 513.29 39 c 0
 567.29 39 607.604 64 645.043 99 c 1
 653.573 98.2002 659.469 88.2998 661.643 83 c 1
 621.164 29 554.874 -10 488.874 -10 c 0
 397.874 -10 368.761 35.0996 352.541 59 c 0
 346.454 68 341.524 64.0996 327.053 52 c 0
 271.062 5 216.975 -10 179.874 -10 c 0
 143.874 -10 108.943 -4.5 89.7002 8 c 0
 59.3662 27.5996 51.8389 60.4004 60.6807 102 c 0
 69.1826 142 105.11 184 145.616 205.2 c 0
 194.115 230.6 263.043 243.9 351.139 250 c 1
 366.931 329 364.521 360 346.622 384 c 0
343.699 215 m 1
 273.23 209.5 219.639 192.6 184.113 169.9 c 0
 155.545 151.7 138.568 129.7 133.743 107 c 0
 124.604 64 144.802 32 200.802 32 c 0
 232.802 32 293.517 73 317.019 113 c 1
 325.058 132 333.072 165 343.699 215 c 1
425.776 253 m 1
 579.202 255 630.453 275 643.419 336 c 0
 650.221 368 623.298 406 575.298 406 c 0
 507.298 406 451.844 338 425.776 253 c 1
EndSplineSet
Colour: ff00ff
EndChar

StartChar: uni04D6
Encoding: 1238 1238 112
Width: 568
VWidth: 999
Flags: HW
HStem: -2 33<-218.936 -145.811> 0 39<-38.842 193.336> 323 38<-43.561 124.761> 605 40<-38.499 163.991> 614 33<-218.303 -145.811> 698 31<3.024 93.854>
VStem: -128.6 85<43.3808 323 361 601.619> -76.6 69<735.873 804.004> 104.4 69<737.589 804.004> 138.4 33<251.625 306.925 373.446 432.375> 210.4 33<498.32 539.828> 259.4 35<122.11 168.353>
LayerCount: 2
Fore
SplineSet
453.354 729 m 0
 486.354 729 512.967 746 516.581 763 c 0
 517.644 768 517.919 774 518.344 776 c 0
 521.532 791 534.721 806 557.721 806 c 0
 584.721 806 591.745 792 587.706 773 c 0
 576.653 721 512.765 698 446.765 698 c 0
 380.765 698 326.653 721 337.706 773 c 0
 341.745 792 354.721 806 381.721 806 c 0
 404.721 806 411.532 791 408.344 776 c 0
 407.919 774 405.644 768 404.581 763 c 0
 400.967 746 420.354 729 453.354 729 c 0
381.383 357 m 2
 466.531 357.7 471.934 369 486.624 424 c 1
 493.899 430 504.899 430 509.624 424 c 1
 502.247 394 493.486 371.6 486.344 338 c 0
 479.861 307.5 481.204 295 474.765 260 c 1
 467.489 254 456.489 254 451.765 260 c 1
 458.33 305 459.857 326.3 375.006 327 c 2
 259.219 328 l 1
 259.219 328 220.915 152.5 206.166 69 c 0
 201.428 42 211.026 26 233.026 26 c 2
 389.026 26 l 2
 465.026 26 515.33 98 550.635 170 c 1
 564.415 173.2 565.447 171 574.572 165 c 1
 555.731 114 526.065 45 501.438 -5 c 1
 501.438 -5 422.5 0 374.5 0 c 2
 149.5 0 l 2
 119.5 0 67.6494 -4 18.4375 -5 c 1
 13.7129 1 16.0508 12 23.3262 18 c 1
 93.9639 21 109.526 26 129.669 109 c 0
 149.704 191.5 159.089 238 176.73 321 c 0
 194.373 404 205.607 454.5 220.431 536 c 0
 235.572 619 222.136 624 152.773 627 c 1
 148.048 633 150.387 644 157.662 650 c 1
 207.449 649 255.599 645 285.599 645 c 2
 580.599 645 l 2
 604.599 645 613.449 649 631.087 652 c 0
 634.087 652 634.874 651 634.449 649 c 0
 634.749 641 628.706 542 624.991 501 c 1
 614.191 496.3 612.945 494.2 600.928 496 c 1
 593.595 565 588.86 618 513.86 618 c 2
 358.86 618 l 2
 334.86 618 319.509 598 313.508 574 c 0
 293.078 492 265.17 356 265.17 356 c 1
 381.383 357 l 2
EndSplineSet
LCarets2: 1 0 
Colour: ff00ff
EndChar

StartChar: uni04D7
Encoding: 1239 1239 113
Width: 425
VWidth: 999
Flags: HW
HStem: -10 49<198.819 330.136> 248 34<124 319.997> 404 33<182.425 285.355> 503 31<186.971 261.548>
VStem: 37 84<130.927 248 282 306.625> 103 73<540.553 619.612> 272 73<541.079 620.243> 320 86<257.5 365.153>
LayerCount: 2
Fore
SplineSet
470.408 590 m 0
 458.718 535 393.916 503 329.916 503 c 0
 264.916 503 216.931 536 228.408 590 c 0
 232.234 608 251.423 623 274.423 623 c 0
 296.423 623 305.447 609 302.046 593 c 0
 301.408 590 300.983 588 299.346 585 c 0
 297.708 582 297.07 579 296.646 577 c 0
 291.969 555 307.505 534 337.505 534 c 0
 366.505 534 391.756 554 396.433 576 c 0
 397.07 579 397.708 582 397.346 585 c 0
 396.771 587 397.195 589 397.834 592 c 0
 401.447 609 421.423 623 439.423 623 c 0
 463.423 623 474.447 609 470.408 590 c 0
168.478 261 m 1
 353.115 264 l 2
 363.157 264.2 367.965 268 369.878 277 c 0
 386.883 357 345.96 395 309.96 395 c 0
 286.96 395 209.434 369 168.478 261 c 1
386.918 89 m 1
 397.705 88 402.643 83 403.517 73 c 1
 354.889 23 295.874 -10 223.874 -10 c 0
 154.874 -10 114.764 13 90.8408 51 c 0
 67.4922 87 64.7578 140 76.0234 193 c 0
 106.844 338 231.636 417 314.636 417 c 0
 447.636 417 457.356 331 440.352 251 c 0
 438.227 241 429.951 235 418.951 235 c 2
 160.163 236 l 1
 148.473 181 148.995 127 161.405 96 c 0
 180.99 47 221.739 27 255.739 27 c 0
 310.739 27 344.266 53 386.918 89 c 1
EndSplineSet
LCarets2: 1 0 
Colour: ff00ff
EndChar

StartChar: uni04D8
Encoding: 1240 1240 114
Width: 644
VWidth: 999
Flags: HW
HStem: -12 34<246.269 393.278> 216 44<122 511> 624 34<207.892 368.818>
VStem: 521 90<221.919 443.038>
LayerCount: 2
Fore
SplineSet
208.167 523 m 1
 190.269 547 l 1
 284.998 621 339.862 658 449.862 658 c 0
 664.862 658 714.09 485 680.293 326 c 0
 638.845 131 506.449 -12 313.449 -12 c 0
 121.449 -12 78.082 118 97.2646 260 c 1
 575.265 260 l 1
 578.603 271 581.153 283 584.129 297 c 0
 623.665 483 561.636 624 426.636 624 c 0
 333.636 624 272.22 575 208.167 523 c 1
167.912 216 m 1
 171.28 86 229.676 22 327.676 22 c 0
 433.676 22 517.656 116 556.912 216 c 1
 167.912 216 l 1
EndSplineSet
Colour: ff00ff
EndChar

StartChar: afii10846
Encoding: 1241 1241 115
Width: 425
VWidth: 999
Flags: HW
HStem: -9 33<142.645 245.575> 146 34<108.003 304> 389 49<97.864 229.181>
VStem: 22 86<62.847 170.5> 307 84<121.375 146 180 297.073>
AnchorPoint: "top_akzent" 348.099 645 basechar 0
LayerCount: 2
Fore
SplineSet
346.246 147 m 1
 161.608 144 l 2
 151.565 143.8 146.758 140 144.845 131 c 0
 127.841 51 168.764 13 204.764 13 c 0
 227.764 13 305.29 39 346.246 147 c 1
127.806 319 m 1
 117.019 320 112.081 325 111.206 335 c 1
 159.834 385 218.849 418 290.849 418 c 0
 359.849 418 399.96 395 423.883 357 c 0
 447.23 321 449.965 268 438.699 215 c 0
 407.879 70 283.087 -9 200.087 -9 c 0
 67.0869 -9 57.3672 77 74.3711 157 c 0
 76.4971 167 84.7725 173 95.7725 173 c 2
 354.56 172 l 1
 366.25 227 365.729 281 353.317 312 c 0
 333.732 361 292.984 381 258.984 381 c 0
 203.984 381 170.458 355 127.806 319 c 1
EndSplineSet
Colour: ff00ff
EndChar

StartChar: uni04DA
Encoding: 1242 1242 116
Width: 644
VWidth: 999
Flags: HW
HStem: -12 34<246.269 393.278> 216 44<122 511> 624 34<207.892 368.818> 711 96<191.332 270.668 380.332 459.668>
VStem: 183 96<719.332 798.668> 372 96<719.332 798.668> 521 90<221.919 443.038>
LayerCount: 2
Fore
SplineSet
533.33 759 m 0
 538.856 785 565.533 807 591.533 807 c 0
 617.533 807 634.856 785 629.33 759 c 0
 623.804 733 597.128 711 571.128 711 c 0
 545.128 711 527.804 733 533.33 759 c 0
344.33 759 m 0
 349.856 785 376.533 807 402.533 807 c 0
 428.533 807 445.856 785 440.33 759 c 0
 434.804 733 408.128 711 382.128 711 c 0
 356.128 711 338.804 733 344.33 759 c 0
208.167 523 m 1
 190.269 547 l 1
 284.998 621 339.862 658 449.862 658 c 0
 664.862 658 714.09 485 680.293 326 c 0
 638.845 131 506.449 -12 313.449 -12 c 0
 121.449 -12 78.082 118 97.2646 260 c 1
 575.265 260 l 1
 578.603 271 581.153 283 584.129 297 c 0
 623.665 483 561.636 624 426.636 624 c 0
 333.636 624 272.22 575 208.167 523 c 1
167.912 216 m 1
 171.28 86 229.676 22 327.676 22 c 0
 433.676 22 517.656 116 556.912 216 c 1
 167.912 216 l 1
EndSplineSet
LCarets2: 1 0 
Colour: ff00ff
EndChar

StartChar: uni04DB
Encoding: 1243 1243 117
Width: 425
VWidth: 999
Flags: HW
HStem: -9 33<142.645 245.575> 146 34<108.003 304> 389 49<97.864 229.181> 526 95<91.0156 168.984 260.016 337.984>
VStem: 22 86<62.847 170.5> 83 94<533.394 613.312> 252 94<533.394 613.312> 307 84<121.375 146 180 297.073>
LayerCount: 2
Fore
SplineSet
204.795 573 m 0
 210.321 599 235.998 621 261.998 621 c 0
 287.998 621 304.321 599 298.795 573 c 0
 293.269 547 267.805 526 241.805 526 c 0
 215.805 526 199.269 547 204.795 573 c 0
373.795 573 m 0
 379.321 599 404.998 621 430.998 621 c 0
 456.998 621 473.321 599 467.795 573 c 0
 462.269 547 436.805 526 410.805 526 c 0
 384.805 526 368.269 547 373.795 573 c 0
346.246 147 m 1
 161.608 144 l 2
 151.565 143.8 146.758 140 144.845 131 c 0
 127.841 51 168.764 13 204.764 13 c 0
 227.764 13 305.29 39 346.246 147 c 1
127.806 319 m 1
 117.019 320 112.081 325 111.206 335 c 1
 159.834 385 218.849 418 290.849 418 c 0
 359.849 418 399.96 395 423.883 357 c 0
 447.23 321 449.965 268 438.699 215 c 0
 407.879 70 283.087 -9 200.087 -9 c 0
 67.0869 -9 57.3672 77 74.3711 157 c 0
 76.4971 167 84.7725 173 95.7725 173 c 2
 354.56 172 l 1
 366.25 227 365.729 281 353.317 312 c 0
 333.732 361 292.984 381 258.984 381 c 0
 203.984 381 170.458 355 127.806 319 c 1
EndSplineSet
LCarets2: 1 0 
Colour: ff00ff
EndChar

StartChar: uni04E6
Encoding: 1254 1254 120
Width: 695
VWidth: 999
Flags: HW
HStem: -10 34<141.205 288.828> 624 34<110.338 258.703> 711 96<59.832 139.168 248.832 328.168>
VStem: -115.5 96<199.09 441.882> 51.5 96<719.332 798.668> 240.5 96<719.332 798.668> 417.5 96<196.124 451.881>
LayerCount: 2
Fore
SplineSet
561.83 759 m 0
 567.356 785 594.033 807 620.033 807 c 0
 646.033 807 663.356 785 657.83 759 c 0
 652.304 733 625.628 711 599.628 711 c 0
 573.628 711 556.304 733 561.83 759 c 0
372.83 759 m 0
 378.356 785 405.033 807 431.033 807 c 0
 457.033 807 474.356 785 468.83 759 c 0
 463.304 733 436.628 711 410.628 711 c 0
 384.628 711 367.304 733 372.83 759 c 0
461.761 634 m 0
 370.761 634 240.143 537 195.506 327 c 0
 154.695 135 246.976 14 368.976 14 c 0
 482.976 14 596.845 131 634.893 310 c 0
 677.829 512 593.761 634 461.761 634 c 0
728.931 329 m 0
 711.076 245 675.709 172.7 623.856 116 c 0
 552.313 37.7002 454.675 -10 343.874 -10 c 0
 173.874 -10 60.0186 113 101.893 310 c 0
 120.428 397.2 159.513 475.7 216.23 536 c 0
 287.015 611.2 380.562 658 479.862 658 c 0
 658.862 658 772.931 536 728.931 329 c 0
EndSplineSet
LCarets2: 1 0 
Colour: ff00ff
EndChar

StartChar: uni04E7
Encoding: 1255 1255 121
Width: 482
VWidth: 999
Flags: HW
HStem: -10 33<208.521 319.011> 406 33<182.113 294.766> 528 95<129.016 206.984 298.016 375.984>
VStem: 41 86<115.624 315.171> 121 94<535.394 615.312> 290 94<535.394 615.312> 377 86<111.049 316.574>
LayerCount: 2
Fore
SplineSet
232.22 575 m 0
 237.746 601 263.423 623 289.423 623 c 0
 315.423 623 331.746 601 326.22 575 c 0
 320.693 549 295.229 528 269.229 528 c 0
 243.229 528 226.693 549 232.22 575 c 0
401.22 575 m 0
 406.746 601 432.423 623 458.423 623 c 0
 484.423 623 500.746 601 495.22 575 c 0
 489.693 549 464.229 528 438.229 528 c 0
 412.229 528 395.693 549 401.22 575 c 0
81.4482 195 m 0
 94.2021 255 124.105 311 167.82 352 c 0
 211.535 393 268.062 419 331.062 419 c 0
 477.062 419 506.404 303 485.361 204 c 0
 473.033 146 441.28 86 389.353 44 c 0
 349.551 12 298.874 -10 237.874 -10 c 0
 102.874 -10 60.8301 98 81.4482 195 c 0
312.385 397 m 0
 226.385 397 179.767 300 162.125 217 c 0
 146.608 144 157.551 12 256.551 12 c 0
 301.551 12 377.479 54 402.984 174 c 0
 432.105 311 394.385 397 312.385 397 c 0
EndSplineSet
LCarets2: 1 0 
Colour: ff00ff
EndChar

StartChar: uni04E8
Encoding: 1256 1256 122
Width: 695
VWidth: 999
Flags: HW
HStem: -10 34<141.205 288.828> 266 57<229.824 376.892> 312 58<19.836 182.602> 624 34<110.338 258.703>
VStem: -115.5 96<199.09 441.882> -57.5 15<267.333 271.234> 417.5 96<196.124 451.881>
LayerCount: 2
Fore
SplineSet
461.761 634 m 0
 370.761 634 240.143 537 195.506 327 c 0
 194.868 324 194.252 321.1 193.735 318.2 c 1
 239.609 349.6 304.471 364 341.87 364 c 0
 439.87 364 459.881 317 522.881 317 c 0
 554.98 317 604.801 329.8 642.381 353.7 c 1
 665.049 529.5 583.961 634 461.761 634 c 0
728.931 329 m 0
 711.076 245 675.709 172.7 623.856 116 c 0
 552.313 37.7002 454.675 -10 343.874 -10 c 0
 173.874 -10 60.0186 113 101.893 310 c 0
 120.428 397.2 159.513 475.7 216.23 536 c 0
 287.015 611.2 380.562 658 479.862 658 c 0
 658.862 658 772.931 536 728.931 329 c 0
636.408 317.6 m 1
 585.648 277.8 532.44 266 494.04 266 c 0
 402.04 266 387.817 312 312.817 312 c 0
 283.218 312 228.013 306.8 188.296 283.2 c 1
 169.326 116.8 256.476 14 368.976 14 c 0
 482.976 14 596.845 131 634.893 310 c 0
 635.445 312.6 635.877 315.1 636.408 317.6 c 1
EndSplineSet
Colour: ff00ff
EndChar

StartChar: uni04E9
Encoding: 1257 1257 123
Width: 482
VWidth: 999
Flags: HW
HStem: -10 33<208.521 319.011> 179 50<214.959 359.048> 207 42<127.26 244.294> 406 33<182.113 294.766>
VStem: 41 86<115.624 315.171> 377 86<111.049 316.574>
AnchorPoint: "unten_punkt" 223.257 -107 basechar 0
AnchorPoint: "top_akzent" 373.099 645 basechar 0
LayerCount: 2
Fore
SplineSet
81.4482 195 m 0
 94.2021 255 124.105 311 167.82 352 c 0
 211.535 393 268.062 419 331.062 419 c 0
 477.062 419 506.404 303 485.361 204 c 0
 473.033 146 441.28 86 389.353 44 c 0
 349.551 12 298.874 -10 237.874 -10 c 0
 102.874 -10 60.8301 98 81.4482 195 c 0
411.823 234.4 m 1
 419.177 335.8 381.585 397 312.385 397 c 0
 226.685 397 180.095 300.6 162.295 217.8 c 1
 176.635 232.1 237.326 249 275.927 249 c 0
 320.927 249 338.676 229 376.676 229 c 0
 388.375 229 400.543 231.2 411.823 234.4 c 1
408.44 203.9 m 1
 383.347 191.7 350.147 179 322.048 179 c 0
 279.048 179 250.999 207 215.999 207 c 0
 203.999 207 171.512 200 164.512 200 c 0
 161.911 200 160.366 201.2 159.549 203 c 1
 148.292 128.4 163.65 12 256.551 12 c 0
 301.551 12 377.479 54 402.984 174 c 0
 405.153 184.2 406.979 194.2 408.44 203.9 c 1
EndSplineSet
Colour: ff9ccc
EndChar

StartChar: uni04EA
Encoding: 1258 1258 124
Width: 695
VWidth: 999
Flags: HW
HStem: -10 34<141.205 288.828> 266 57<229.824 376.892> 312 58<19.836 182.602> 624 34<110.338 258.703> 713 96<56.832 136.168 245.832 325.168>
VStem: -115.5 96<199.09 441.882> -57.5 15<267.333 271.234> 48.5 96<721.332 800.668> 237.5 96<721.332 800.668> 417.5 96<196.124 451.881>
LayerCount: 2
Fore
SplineSet
399.256 761 m 0
 404.782 787 431.458 809 457.458 809 c 0
 483.458 809 500.782 787 495.256 761 c 0
 489.729 735 463.053 713 437.053 713 c 0
 411.053 713 393.729 735 399.256 761 c 0
210.256 761 m 0
 215.782 787 242.458 809 268.458 809 c 0
 294.458 809 311.782 787 306.256 761 c 0
 300.729 735 274.053 713 248.053 713 c 0
 222.053 713 204.729 735 210.256 761 c 0
461.761 634 m 0
 370.761 634 240.143 537 195.506 327 c 0
 194.868 324 194.252 321.1 193.735 318.2 c 1
 239.609 349.6 304.471 364 341.87 364 c 0
 439.87 364 459.881 317 522.881 317 c 0
 554.98 317 604.801 329.8 642.381 353.7 c 1
 665.049 529.5 583.961 634 461.761 634 c 0
728.931 329 m 0
 711.076 245 675.709 172.7 623.856 116 c 0
 552.313 37.7002 454.675 -10 343.874 -10 c 0
 173.874 -10 60.0186 113 101.893 310 c 0
 120.428 397.2 159.513 475.7 216.23 536 c 0
 287.015 611.2 380.562 658 479.862 658 c 0
 658.862 658 772.931 536 728.931 329 c 0
636.408 317.6 m 1
 585.648 277.8 532.44 266 494.04 266 c 0
 402.04 266 387.817 312 312.817 312 c 0
 283.218 312 228.013 306.8 188.296 283.2 c 1
 169.326 116.8 256.476 14 368.976 14 c 0
 482.976 14 596.845 131 634.893 310 c 0
 635.445 312.6 635.877 315.1 636.408 317.6 c 1
EndSplineSet
LCarets2: 1 0 
Colour: ff00ff
EndChar

StartChar: uni04EB
Encoding: 1259 1259 125
Width: 482
VWidth: 999
Flags: HW
HStem: -10 33<208.521 319.011> 179 50<214.959 359.048> 207 42<127.26 244.294> 406 33<182.113 294.766> 526 95<124.016 201.984 293.016 370.984>
VStem: 41 86<115.624 315.171> 116 94<533.394 613.312> 285 94<533.394 613.312> 377 86<111.049 316.574>
LayerCount: 2
Fore
SplineSet
81.4482 195 m 0
 94.2021 255 124.105 311 167.82 352 c 0
 211.535 393 268.062 419 331.062 419 c 0
 477.062 419 506.404 303 485.361 204 c 0
 473.033 146 441.28 86 389.353 44 c 0
 349.551 12 298.874 -10 237.874 -10 c 0
 102.874 -10 60.8301 98 81.4482 195 c 0
237.795 573 m 0
 243.321 599 268.998 621 294.998 621 c 0
 320.998 621 337.321 599 331.795 573 c 0
 326.269 547 300.805 526 274.805 526 c 0
 248.805 526 232.269 547 237.795 573 c 0
406.795 573 m 0
 412.321 599 437.998 621 463.998 621 c 0
 489.998 621 506.321 599 500.795 573 c 0
 495.269 547 469.805 526 443.805 526 c 0
 417.805 526 401.269 547 406.795 573 c 0
411.823 234.4 m 1
 419.177 335.8 381.585 397 312.385 397 c 0
 226.685 397 180.095 300.6 162.295 217.8 c 1
 176.635 232.1 237.326 249 275.927 249 c 0
 320.927 249 338.676 229 376.676 229 c 0
 388.375 229 400.543 231.2 411.823 234.4 c 1
408.44 203.9 m 1
 383.347 191.7 350.147 179 322.048 179 c 0
 279.048 179 250.999 207 215.999 207 c 0
 203.999 207 171.512 200 164.512 200 c 0
 161.911 200 160.366 201.2 159.549 203 c 1
 148.292 128.4 163.65 12 256.551 12 c 0
 301.551 12 377.479 54 402.984 174 c 0
 405.153 184.2 406.979 194.2 408.44 203.9 c 1
EndSplineSet
LCarets2: 1 0 
Colour: ff00ff
EndChar

StartChar: uni04EF
Encoding: 1263 1263 126
Width: 495
VWidth: 999
Flags: HW
HStem: -232 80<67.752 163.025> 398 33<12.625 62.5342 164.928 213.375 337.625 389.171 461.975 506.375> 518 50<139.891 396.59>
VStem: 138 261<518.239 568>
DStem2: 177.233 333 94.9014 323 0.395053 -0.918658<-54.1669 236.484> 222 -34 245 -74 0.397404 0.917644<-98.3122 43.0767 162.026 450.625>
LayerCount: 2
Fore
SplineSet
148.228 -173 m 0
 101.262 -234 61.7734 -241 41.7734 -241 c 0
 15.7734 -241 -0.0380859 -226 4.21289 -206 c 0
 6.76367 -194 22.2275 -173 50.2275 -173 c 0
 60.2275 -173 67.165 -178 80.165 -178 c 0
 104.165 -178 129.203 -159 143.242 -140 c 1
 163.619 -110 182.146 -84 199.947 -52 c 0
 215.687 -25 220.649 8.7002 210.115 57 c 2
 155.468 308 l 2
 142.212 368.9 134.472 388 93.3223 392 c 1
 88.5977 398 90.7227 408 97.998 414 c 1
 116.786 413 141.936 409 173.936 409 c 0
 207.936 409 247.786 413 282.998 414 c 1
 287.723 408 285.598 398 278.322 392 c 1
 219.26 387 221.883 357 230.381 317 c 2
 273.294 119 l 2
 277.377 100.1 298.894 103 309.082 118 c 2
 450.632 337 l 2
 472.68 371.1 442.685 389 413.322 392 c 1
 408.598 398 410.723 408 417.998 414 c 1
 452.786 413 470.936 409 503.936 409 c 0
 530.936 409 548.786 413 572.998 414 c 1
 577.723 408 575.598 398 568.322 392 c 1
 532.685 389 488.545 346 469.593 318 c 0
 395.85 211 320.768 93 205.657 -91 c 0
 187.706 -119 168.967 -146 148.228 -173 c 0
494.031 560 m 2
 270.031 560 l 2
 261.031 560 259.37 571 260.857 578 c 0
 263.408 590 278.659 610 289.659 610 c 2
 514.659 610 l 2
 524.659 610 526.321 599 525.046 593 c 0
 522.495 581 507.031 560 494.031 560 c 2
EndSplineSet
LCarets2: 1 0 
Colour: ff00ff
EndChar

StartChar: uni04F1
Encoding: 1265 1265 127
Width: 495
VWidth: 999
Flags: HW
HStem: -232 80<67.752 163.025> 398 33<12.625 62.5342 164.928 213.375 337.625 389.171 461.975 506.375> 526 95<157.016 234.984 326.016 403.984>
VStem: 149 94<533.394 613.312> 318 94<533.394 613.312>
DStem2: 177.233 333 94.9014 323 0.395053 -0.918658<-54.1669 236.484> 222 -34 245 -74 0.397404 0.917644<-98.3122 43.0767 162.026 450.625>
LayerCount: 2
Fore
SplineSet
148.228 -173 m 0
 101.262 -234 61.7734 -241 41.7734 -241 c 0
 15.7734 -241 -0.0380859 -226 4.21289 -206 c 0
 6.76367 -194 22.2275 -173 50.2275 -173 c 0
 60.2275 -173 67.165 -178 80.165 -178 c 0
 104.165 -178 129.203 -159 143.242 -140 c 1
 163.619 -110 182.146 -84 199.947 -52 c 0
 215.687 -25 220.649 8.7002 210.115 57 c 2
 155.468 308 l 2
 142.212 368.9 134.472 388 93.3223 392 c 1
 88.5977 398 90.7227 408 97.998 414 c 1
 116.786 413 141.936 409 173.936 409 c 0
 207.936 409 247.786 413 282.998 414 c 1
 287.723 408 285.598 398 278.322 392 c 1
 219.26 387 221.883 357 230.381 317 c 2
 273.294 119 l 2
 277.377 100.1 298.894 103 309.082 118 c 2
 450.632 337 l 2
 472.68 371.1 442.685 389 413.322 392 c 1
 408.598 398 410.723 408 417.998 414 c 1
 452.786 413 470.936 409 503.936 409 c 0
 530.936 409 548.786 413 572.998 414 c 1
 577.723 408 575.598 398 568.322 392 c 1
 532.685 389 488.545 346 469.593 318 c 0
 395.85 211 320.768 93 205.657 -91 c 0
 187.706 -119 168.967 -146 148.228 -173 c 0
270.795 573 m 0
 276.321 599 301.998 621 327.998 621 c 0
 353.998 621 370.321 599 364.795 573 c 0
 359.269 547 333.805 526 307.805 526 c 0
 281.805 526 265.269 547 270.795 573 c 0
439.795 573 m 0
 445.321 599 470.998 621 496.998 621 c 0
 522.998 621 539.321 599 533.795 573 c 0
 528.269 547 502.805 526 476.805 526 c 0
 450.805 526 434.269 547 439.795 573 c 0
EndSplineSet
LCarets2: 1 0 
Colour: ff00ff
EndChar

StartChar: uni04F3
Encoding: 1267 1267 128
Width: 495
VWidth: 999
Flags: HW
HStem: -232 80<67.752 163.025> 398 33<12.625 62.5342 164.928 213.375 337.625 389.171 461.975 506.375>
DStem2: 177.233 333 94.9014 323 0.395053 -0.918658<-54.1669 236.484> 222 -34 245 -74 0.397404 0.917644<-98.3122 43.0767 162.026 450.625>
LayerCount: 2
Fore
SplineSet
148.228 -173 m 0
 101.262 -234 61.7734 -241 41.7734 -241 c 0
 15.7734 -241 -0.0380859 -226 4.21289 -206 c 0
 6.76367 -194 22.2275 -173 50.2275 -173 c 0
 60.2275 -173 67.165 -178 80.165 -178 c 0
 104.165 -178 129.203 -159 143.242 -140 c 1
 163.619 -110 182.146 -84 199.947 -52 c 0
 215.687 -25 220.649 8.7002 210.115 57 c 2
 155.468 308 l 2
 142.212 368.9 134.472 388 93.3223 392 c 1
 88.5977 398 90.7227 408 97.998 414 c 1
 116.786 413 141.936 409 173.936 409 c 0
 207.936 409 247.786 413 282.998 414 c 1
 287.723 408 285.598 398 278.322 392 c 1
 219.26 387 221.883 357 230.381 317 c 2
 273.294 119 l 2
 277.377 100.1 298.894 103 309.082 118 c 2
 450.632 337 l 2
 472.68 371.1 442.685 389 413.322 392 c 1
 408.598 398 410.723 408 417.998 414 c 1
 452.786 413 470.936 409 503.936 409 c 0
 530.936 409 548.786 413 572.998 414 c 1
 577.723 408 575.598 398 568.322 392 c 1
 532.685 389 488.545 346 469.593 318 c 0
 395.85 211 320.768 93 205.657 -91 c 0
 187.706 -119 168.967 -146 148.228 -173 c 0
592.723 615 m 0
 591.447 609 588.959 602 581.684 596 c 2
 444.303 486 l 2
 441.877 484 439.877 484 437.877 484 c 0
 432.877 484 424.94 489 426.641 497 c 0
 426.854 498 427.278 500 428.491 501 c 2
 536.036 640 l 2
 542.949 649 550.587 652 562.587 652 c 0
 583.587 652 596.676 633.6 592.723 615 c 0
461.998 621 m 0
 460.935 616 458.659 610 453.597 605 c 2
 325.877 484 l 2
 323.452 482 320.239 481 317.239 481 c 0
 311.239 481 304.303 486 306.003 494 c 0
 306.216 495 306.428 496 307.641 497 c 2
 402.674 643 l 2
 411.438 656 427.649 657 431.649 657 c 0
 452.55 657 466.355 641.5 461.998 621 c 0
EndSplineSet
LCarets2: 1 0 
Colour: ff00ff
EndChar

StartChar: uni1E00
Encoding: 7680 7680 129
Width: 689
VWidth: 999
Flags: HW
HStem: -217 32<145.284 215.457> -79 32<145.284 216.2> -2 33<-151.73 -87.2642 3.726 72.02 281.27 358.596 465.793 533.02> 241 42<85.664 284.645> 638 20<226.145 240.848>
VStem: 92.6 40<-175.635 -88.102> 228.6 40<-175.413 -87.748>
DStem2: -48.372 102 -0.354996 79 0.390001 0.920814<-30.5131 181.817 227.512 466.368> 178.645 638 184.645 555 0.390001 0.920814<-561.337 -408.806 -359.549 -74.0876> 233.645 658 190.645 555 0.338836 -0.940845<82.3371 370.098 415.035 619.885>
LayerCount: 2
Fore
SplineSet
163.808 -79 m 0
 132.808 -79 110.919 -102 104.543 -132 c 0
 98.5908 -160 110.277 -185 141.277 -185 c 0
 172.277 -185 194.591 -160 200.543 -132 c 0
 207.132 -101 193.808 -79 163.808 -79 c 0
64.543 -132 m 0
 74.3203 -86 124.609 -47 170.609 -47 c 0
 216.609 -47 250.532 -85 240.543 -132 c 0
 230.978 -177 182.476 -217 134.476 -217 c 0
 88.4756 -217 54.7646 -178 64.543 -132 c 0
319.591 278 m 2
 498.591 278 l 1
 461.469 555 l 1
 458.469 555 l 1
 298.28 296.3 l 2
 291.912 286.1 297.591 278 319.591 278 c 2
162.166 69 m 2
 137.103 27.2998 183.278 20.5996 220.326 18 c 1
 225.051 12 222.713 1 215.438 -5 c 1
 178.649 -4 149.5 0 108.5 0 c 0
 69.5 0 45.6494 -4 8.4375 -5 c 1
 3.71289 1 6.05078 12 13.3262 18 c 1
 57.4639 21 90.3525 31.2998 129.056 92 c 2
 477.111 638 l 1
 490.111 638 503.449 649 520.362 658 c 1
 605.654 76 l 2
 613.135 25.0996 645.27 21.5 683.326 18 c 1
 688.051 12 685.713 1 678.438 -5 c 1
 641.649 -4 612.5 0 571.5 0 c 0
 532.5 0 476.649 -4 439.438 -5 c 1
 434.713 1 437.051 12 444.326 18 c 1
 492.648 21.4004 533.063 21 527.679 62 c 2
 503.289 246 l 1
 294.789 246 l 2
 270.789 246 262.876 237 255.112 224 c 2
 162.166 69 l 2
EndSplineSet
LCarets2: 1 0 
Colour: ff00ff
EndChar

StartChar: uni1E01
Encoding: 7681 7681 130
Width: 447
VWidth: 999
Flags: HW
HStem: -218 32<188.639 258.812> -80 32<188.639 259.555> -10 41<139.654 240.143 343.315 429.949> 406 33<144.709 258.364>
VStem: 36 83<50.144 160.39> 55 74<295.655 377.387> 136 40<-176.635 -89.102> 272 40<-176.413 -88.748> 293 78<68.9033 233 264.049 372.119>
DStem2: 201 243 214 212 0.971457 0.237216<-61.6983 87.0019>
LayerCount: 2
Fore
SplineSet
206.995 -80 m 0
 175.995 -80 154.106 -103 147.73 -133 c 0
 141.778 -161 153.465 -186 184.465 -186 c 0
 215.465 -186 237.778 -161 243.73 -133 c 0
 250.319 -102 236.995 -80 206.995 -80 c 0
107.73 -133 m 0
 117.508 -87 167.797 -48 213.797 -48 c 0
 259.797 -48 293.72 -86 283.73 -133 c 0
 274.165 -178 225.663 -218 177.663 -218 c 0
 131.663 -218 97.9521 -179 107.73 -133 c 0
331.062 212 m 1
 244.811 192 l 2
 169.912 174.6 142.526 129.5 134.556 92 c 0
 128.179 62 138.251 20 186.251 20 c 0
 213.251 20 253.841 51 283.092 71 c 0
 292.367 77 298.163 83.0996 301.193 95 c 2
 331.062 212 l 1
290.777 46 m 1
 288.777 46 l 1
 266.589 31 l 2
 217.787 -1 195.874 -10 151.874 -10 c 0
 84.874 -10 45.1885 15 60.7051 88 c 0
 74.5215 153 142.209 201.4 239.188 222 c 2
 333.438 242 l 2
 336.651 243 341.414 256 342.902 263 c 0
 365.858 371 328.385 397 296.385 397 c 0
 260.385 397 210.134 377 203.757 347 c 0
 201.632 337 201.356 331 201.719 328 c 0
 202.868 324 202.593 318 201.105 311 c 0
 198.555 299 183.304 279 155.304 279 c 0
 133.304 279 126.642 290 131.53 313 c 0
 142.37 364 231.062 419 309.062 419 c 0
 379.062 419 443.768 390.8 410.627 257 c 2
 375.444 115 l 2
 364.783 71.9004 360.102 24 397.102 24 c 0
 417.102 24 423.502 40 429.502 40 c 0
 433.502 40 442.502 40 441.015 33 c 0
 439.951 28 397.874 -10 350.874 -10 c 0
 299.874 -10 292.526 26 290.777 46 c 1
EndSplineSet
LCarets2: 1 0 
Colour: ff00ff
EndChar

StartChar: uni1E02
Encoding: 7682 7682 131
Width: 585
VWidth: 999
Flags: HW
HStem: -2 33<16.125 89.25 213.037 378.443> 332 34<191.5 352.427> 613 34<16.4238 91.5861 195.034 343.01> 702 104<235.042 317.958>
VStem: 106.5 85<46.5258 332 366 601.619> 224.5 104<712.542 795.458> 407.5 81<427.388 560.634> 454.5 93<98.7984 251.316>
LayerCount: 2
Fore
SplineSet
384.768 754 m 0
 390.719 782 419.82 806 447.82 806 c 0
 475.82 806 494.719 782 488.768 754 c 0
 482.816 726 453.715 702 425.715 702 c 0
 397.715 702 378.816 726 384.768 754 c 0
266.232 361 m 1
 342.232 361 l 2
 425.232 361 494.673 396 512.739 481 c 0
 534.421 583 467.561 626 411.561 626 c 0
 324.561 626 322.935 616 315.421 583 c 0
 299.42 512.9 281.929 433.9 266.232 361 c 1
285.599 645 m 0
 328.599 645 376.662 650 411.662 650 c 0
 597.662 650 604.531 560 590.29 493 c 0
 578.748 438.7 525.944 387.4 470.445 362 c 1
 470.021 360 l 1
 551.706 335 604.016 280 583.61 184 c 0
 565.33 98 493.438 -5 294.438 -5 c 0
 205.438 -5 192.5 0 149.5 0 c 0
 98.7998 0 67.6494 -4 18.4375 -5 c 1
 13.7129 1 16.0508 12 23.3262 18 c 1
 93.9639 21 110.178 25.2998 129.669 109 c 0
 149.011 192 159.089 238 176.73 321 c 0
 194.373 404 204.088 453 220.431 536 c 0
 236.709 618.7 222.136 624 152.773 627 c 1
 148.048 633 150.387 644 157.662 650 c 1
 207.449 649 235.299 645 285.599 645 c 0
209.567 85 m 0
 203.253 52 208.326 18 278.326 18 c 0
 430.326 18 477.056 92 492.572 165 c 0
 511.702 255 469.132 337 332.132 337 c 2
 261.132 337 l 1
 260.005 331.7 258.899 326.5 257.795 321.3 c 0
 240.152 238.3 225.51 168 209.567 85 c 0
EndSplineSet
LCarets2: 1 0 
Colour: ff00ff
EndChar

StartChar: uni1E03
Encoding: 7683 7683 132
Width: 471
VWidth: 999
Flags: HW
HStem: -10 34<186.009 292.19> 395 44<199.559 311.679> 547 98<227.385 305.791> 641 30<10.0654 68.3801> 678 20<135.5 152.5>
VStem: 78 79<47.054 367.15 399 635.885> 219 98<557.729 636.615> 370 86<133.468 324.177>
LayerCount: 2
Fore
SplineSet
345.321 599 m 0
 350.423 623 383.524 647 407.524 647 c 0
 434.524 647 449.572 619 444.471 595 c 0
 439.986 573.9 410.269 547 382.269 547 c 0
 358.269 547 339.795 573 345.321 599 c 0
241.67 356 m 0
 227.332 345 219.419 336 215.168 316 c 2
 215.168 316 170.956 108 162.328 58 c 1
 176.227 34 190.764 13 220.764 13 c 0
 311.764 13 381.318 105 404.487 214 c 0
 424.042 306 387.26 387 329.26 387 c 0
 301.26 387 271.347 378 241.67 356 c 0
238.921 376 m 0
 274.66 403 314.062 419 355.062 419 c 0
 438.062 419 508.757 347 484.101 231 c 0
 451.792 79 318.874 -10 221.874 -10 c 0
 187.874 -10 161.149 -4 142.976 14 c 0
 134.889 23 128.676 22 116.338 11 c 0
 107.425 2 96.7246 -6 89.6621 -11 c 1
 78.6621 -11 80.2998 -8 77 0 c 1
 82.7637 13 85.0889 31 94.4541 68 c 0
 107.082 118 193.805 526 202.433 576 c 0
 216.216 655.9 207.374 651 158.012 654 c 1
 153.287 660 153.351 665 157.051 673 c 1
 195.688 676 263.239 688 289.364 698 c 1
 298.364 698 300.939 696 299.451 689 c 2
 299.451 689 293 661 277.321 599 c 0
 264.693 549 228.771 380 228.771 380 c 2
 226.858 371 231.858 371 238.921 376 c 0
EndSplineSet
LCarets2: 1 0 
Colour: ff00ff
EndChar

StartChar: uni1E04
Encoding: 7684 7684 133
Width: 585
VWidth: 999
Flags: HW
HStem: -208 98<229.885 308.291> -2 33<16.125 89.25 213.037 378.443> 332 34<191.5 352.427> 613 34<16.4238 91.5861 195.034 343.01>
VStem: 106.5 85<46.5258 332 366 601.619> 221.5 98<-197.271 -118.385> 407.5 81<427.388 560.634> 454.5 93<98.7984 251.316>
LayerCount: 2
Fore
SplineSet
187.341 -156 m 0
 192.442 -132 225.544 -108 249.544 -108 c 0
 276.544 -108 291.593 -136 286.491 -160 c 0
 282.006 -181.1 252.288 -208 224.288 -208 c 0
 200.288 -208 181.814 -182 187.341 -156 c 0
266.232 361 m 1
 342.232 361 l 2
 425.232 361 494.673 396 512.739 481 c 0
 534.421 583 467.561 626 411.561 626 c 0
 324.561 626 322.935 616 315.421 583 c 0
 299.42 512.9 281.929 433.9 266.232 361 c 1
285.599 645 m 0
 328.599 645 376.662 650 411.662 650 c 0
 597.662 650 604.531 560 590.29 493 c 0
 578.748 438.7 525.944 387.4 470.445 362 c 1
 470.021 360 l 1
 551.706 335 604.016 280 583.61 184 c 0
 565.33 98 493.438 -5 294.438 -5 c 0
 205.438 -5 192.5 0 149.5 0 c 0
 98.7998 0 67.6494 -4 18.4375 -5 c 1
 13.7129 1 16.0508 12 23.3262 18 c 1
 93.9639 21 110.178 25.2998 129.669 109 c 0
 149.011 192 159.089 238 176.73 321 c 0
 194.373 404 204.088 453 220.431 536 c 0
 236.709 618.7 222.136 624 152.773 627 c 1
 148.048 633 150.387 644 157.662 650 c 1
 207.449 649 235.299 645 285.599 645 c 0
209.567 85 m 0
 203.253 52 208.326 18 278.326 18 c 0
 430.326 18 477.056 92 492.572 165 c 0
 511.702 255 469.132 337 332.132 337 c 2
 261.132 337 l 1
 260.005 331.7 258.899 326.5 257.795 321.3 c 0
 240.152 238.3 225.51 168 209.567 85 c 0
EndSplineSet
LCarets2: 1 0 
Colour: ff00ff
EndChar

StartChar: uni1E05
Encoding: 7685 7685 134
Width: 471
VWidth: 999
Flags: HW
HStem: -208 98<184.385 262.791> -10 34<186.009 292.19> 395 44<199.559 311.679> 641 30<10.0654 68.3801> 678 20<135.5 152.5>
VStem: 78 79<47.054 367.15 399 635.885> 176 98<-197.271 -118.385> 370 86<133.468 324.177>
LayerCount: 2
Fore
SplineSet
141.841 -156 m 0
 146.942 -132 180.044 -108 204.044 -108 c 0
 231.044 -108 246.093 -136 240.991 -160 c 0
 236.506 -181.1 206.788 -208 178.788 -208 c 0
 154.788 -208 136.314 -182 141.841 -156 c 0
241.67 356 m 0
 227.332 345 219.419 336 215.168 316 c 2
 215.168 316 170.956 108 162.328 58 c 1
 176.227 34 190.764 13 220.764 13 c 0
 311.764 13 381.318 105 404.487 214 c 0
 424.042 306 387.26 387 329.26 387 c 0
 301.26 387 271.347 378 241.67 356 c 0
238.921 376 m 0
 274.66 403 314.062 419 355.062 419 c 0
 438.062 419 508.757 347 484.101 231 c 0
 451.792 79 318.874 -10 221.874 -10 c 0
 187.874 -10 161.149 -4 142.976 14 c 0
 134.889 23 128.676 22 116.338 11 c 0
 107.425 2 96.7246 -6 89.6621 -11 c 1
 78.6621 -11 80.2998 -8 77 0 c 1
 82.7637 13 85.0889 31 94.4541 68 c 0
 107.082 118 193.805 526 202.433 576 c 0
 216.216 655.9 207.374 651 158.012 654 c 1
 153.287 660 153.351 665 157.051 673 c 1
 195.688 676 263.239 688 289.364 698 c 1
 298.364 698 300.939 696 299.451 689 c 2
 299.451 689 293 661 277.321 599 c 0
 264.693 549 228.771 380 228.771 380 c 2
 226.858 371 231.858 371 238.921 376 c 0
EndSplineSet
LCarets2: 1 0 
Colour: ff00ff
EndChar

StartChar: uni1E06
Encoding: 7686 7686 135
Width: 585
VWidth: 999
Flags: HW
HStem: -131 44<157.558 395.138> -2 33<16.125 89.25 213.037 378.443> 332 34<191.5 352.427> 613 34<16.4238 91.5861 195.034 343.01>
VStem: 106.5 85<46.5258 332 366 601.619> 156.5 240<-130.948 -87> 407.5 81<427.388 560.634> 454.5 93<98.7984 251.316>
LayerCount: 2
Fore
SplineSet
345.655 -131 m 2
 140.655 -131 l 2
 132.655 -131 130.355 -123 131.844 -116 c 0
 134.395 -104 148.008 -87 160.008 -87 c 2
 365.008 -87 l 2
 374.008 -87 376.52 -94 375.032 -101 c 0
 372.481 -113 358.655 -131 345.655 -131 c 2
266.232 361 m 1
 342.232 361 l 2
 425.232 361 494.673 396 512.739 481 c 0
 534.421 583 467.561 626 411.561 626 c 0
 324.561 626 322.935 616 315.421 583 c 0
 299.42 512.9 281.929 433.9 266.232 361 c 1
285.599 645 m 0
 328.599 645 376.662 650 411.662 650 c 0
 597.662 650 604.531 560 590.29 493 c 0
 578.748 438.7 525.944 387.4 470.445 362 c 1
 470.021 360 l 1
 551.706 335 604.016 280 583.61 184 c 0
 565.33 98 493.438 -5 294.438 -5 c 0
 205.438 -5 192.5 0 149.5 0 c 0
 98.7998 0 67.6494 -4 18.4375 -5 c 1
 13.7129 1 16.0508 12 23.3262 18 c 1
 93.9639 21 110.178 25.2998 129.669 109 c 0
 149.011 192 159.089 238 176.73 321 c 0
 194.373 404 204.088 453 220.431 536 c 0
 236.709 618.7 222.136 624 152.773 627 c 1
 148.048 633 150.387 644 157.662 650 c 1
 207.449 649 235.299 645 285.599 645 c 0
209.567 85 m 0
 203.253 52 208.326 18 278.326 18 c 0
 430.326 18 477.056 92 492.572 165 c 0
 511.702 255 469.132 337 332.132 337 c 2
 261.132 337 l 1
 260.005 331.7 258.899 326.5 257.795 321.3 c 0
 240.152 238.3 225.51 168 209.567 85 c 0
EndSplineSet
LCarets2: 1 0 
Colour: ff00ff
EndChar

StartChar: uni1E07
Encoding: 7687 7687 136
Width: 471
VWidth: 999
Flags: HW
HStem: -131 44<127.058 364.638> -10 34<186.009 292.19> 395 44<199.559 311.679> 641 30<10.0654 68.3801> 678 20<135.5 152.5>
VStem: 78 79<47.054 367.15 399 635.885> 126 240<-130.948 -87> 370 86<133.468 324.177>
LayerCount: 2
Fore
SplineSet
315.155 -131 m 2
 110.155 -131 l 2
 102.155 -131 99.8555 -123 101.344 -116 c 0
 103.895 -104 117.508 -87 129.508 -87 c 2
 334.508 -87 l 2
 343.508 -87 346.02 -94 344.532 -101 c 0
 341.981 -113 328.155 -131 315.155 -131 c 2
241.67 356 m 0
 227.332 345 219.419 336 215.168 316 c 2
 215.168 316 170.956 108 162.328 58 c 1
 176.227 34 190.764 13 220.764 13 c 0
 311.764 13 381.318 105 404.487 214 c 0
 424.042 306 387.26 387 329.26 387 c 0
 301.26 387 271.347 378 241.67 356 c 0
238.921 376 m 0
 274.66 403 314.062 419 355.062 419 c 0
 438.062 419 508.757 347 484.101 231 c 0
 451.792 79 318.874 -10 221.874 -10 c 0
 187.874 -10 161.149 -4 142.976 14 c 0
 134.889 23 128.676 22 116.338 11 c 0
 107.425 2 96.7246 -6 89.6621 -11 c 1
 78.6621 -11 80.2998 -8 77 0 c 1
 82.7637 13 85.0889 31 94.4541 68 c 0
 107.082 118 193.805 526 202.433 576 c 0
 216.216 655.9 207.374 651 158.012 654 c 1
 153.287 660 153.351 665 157.051 673 c 1
 195.688 676 263.239 688 289.364 698 c 1
 298.364 698 300.939 696 299.451 689 c 2
 299.451 689 293 661 277.321 599 c 0
 264.693 549 228.771 380 228.771 380 c 2
 226.858 371 231.858 371 238.921 376 c 0
EndSplineSet
LCarets2: 1 0 
Colour: ff00ff
EndChar

StartChar: uni1E08
Encoding: 7688 7688 137
Width: 642
VWidth: 999
Flags: HW
HStem: -200 29<286.047 386.231> -96 32<361.31 391.355> -10 41<268.215 458.261> 621 37<270.584 441.041> 697 122
VStem: 33 91<201.241 442.946> 265 201 396 62<-165.259 -97.4563> 562 33<454.756 496.422>
DStem2: 312 -96 361 -67 0.384615 0.923077<45.6154 104>
LayerCount: 2
Fore
SplineSet
578.084 819 m 1
 603.856 805.7 620.858 788.3 629.031 767 c 1
 472.702 709 l 2
 449.79 700 437.152 697 428.152 697 c 0
 419.152 697 414.64 704 416.34 712 c 0
 417.828 719 420.891 724 435.804 733 c 2
 578.084 819 l 1
342.595 -96 m 0
 323.595 -96 313.382 -97 296.319 -102 c 1
 291.595 -96 l 1
 345.675 -10 l 1
 134.728 -7.40039 70.0098 155.3 103.955 315 c 0
 126.125 419.3 181.472 512.2 260.795 573 c 0
 331.273 627 408.862 658 493.862 658 c 0
 616.862 658 653.36 618 703.297 613 c 1
 700.606 558 698.404 510 692.351 458 c 1
 684.131 453.2 677.318 452.2 668.288 453 c 1
 660.568 539 621.123 631 483.123 631 c 0
 431.123 631 355.347 601 292.78 540 c 0
 246.736 495.1 210.338 420.3 191.994 334 c 0
 160.961 188 201.464 21 356.464 21 c 0
 449.464 21 526.179 62 613.758 140 c 1
 624.758 140 630.482 134 633.569 125 c 1
 555.607 45.2002 468.2 0 380.993 -8.5 c 1
 346.759 -67 l 1
 355.184 -65 364.396 -64 373.396 -64 c 0
 413.396 -64 439.295 -88 431.218 -126 c 0
 422.078 -169 369.488 -200 308.488 -200 c 0
 276.488 -200 260.764 -194 238.103 -183 c 1
 240.652 -171 245.141 -164 253.629 -157 c 1
 278.503 -167 288.652 -171 308.652 -171 c 0
 338.652 -171 362.629 -157 368.155 -131 c 0
 372.619 -110 365.595 -96 342.595 -96 c 0
EndSplineSet
LCarets2: 1 0 
Colour: ff00ff
EndChar

StartChar: uni1E09
Encoding: 7689 7689 138
Width: 408
VWidth: 999
Flags: HW
HStem: -200 29<151.047 251.231> -96 32<226.31 256.355> -10 49<194.596 322.53> 406 33<186.285 287.961>
VStem: 37 86<123.239 310.572> 261 62<-165.259 -97.4563> 308 87<307.358 390.405>
DStem2: 177 -96 226 -67 0.384615 0.923077<45.6154 104>
LayerCount: 2
Fore
SplineSet
417.572 619 m 1
 420.785 620 426.998 621 431.998 621 c 0
 438.397 621 463.785 620 482.108 598 c 1
 482.771 587 l 1
 344.602 478 l 2
 326.414 463 317.563 459 310.563 459 c 0
 303.563 459 297.839 465 299.327 472 c 0
 301.707 483.2 305.857 487.2 316.679 500 c 2
 417.572 619 l 1
207.595 -96 m 0
 188.595 -96 178.382 -97 161.319 -102 c 1
 156.595 -96 l 1
 210.817 -9.7998 l 1
 98.7012 -4.7002 51.749 78.7998 77.0859 198 c 0
 105.781 333 226.062 419 320.062 419 c 0
 412.062 419 457.771 380 446.719 328 c 0
 440.342 298 410.791 286 390.791 286 c 0
 370.791 286 359.592 294 362.019 320 c 0
 365.032 353 366.385 397 310.385 397 c 0
 247.385 397 179.868 324 157.55 219 c 0
 133.743 107 180.739 27 250.739 27 c 0
 291.739 27 343.69 55 384.618 97 c 1
 393.405 96 395.405 96 397.492 87 c 1
 342.051 20 294.256 -3.5 245.829 -8.7998 c 1
 211.759 -67 l 1
 220.184 -65 229.396 -64 238.396 -64 c 0
 278.396 -64 304.295 -88 296.218 -126 c 0
 287.078 -169 234.488 -200 173.488 -200 c 0
 141.488 -200 125.764 -194 103.103 -183 c 1
 105.652 -171 110.141 -164 118.629 -157 c 1
 143.503 -167 153.652 -171 173.652 -171 c 0
 203.652 -171 227.629 -157 233.155 -131 c 0
 237.619 -110 230.595 -96 207.595 -96 c 0
EndSplineSet
LCarets2: 1 0 
Colour: ff00ff
EndChar

StartChar: uni1E0A
Encoding: 7690 7690 139
Width: 705
VWidth: 999
Flags: HW
HStem: 702 104<118.98 201.896>
VStem: 108.4 104<712.542 795.458>
LayerCount: 2
Fore
SplineSet
268.668 754 m 0
 274.619 782 303.721 806 331.721 806 c 0
 359.721 806 378.619 782 372.668 754 c 0
 366.716 726 337.614 702 309.614 702 c 0
 281.614 702 262.716 726 268.668 754 c 0
214.669 109 m 0
 203.611 47.0996 205.438 19 313.438 19 c 0
 454.438 19 597.83 82 640.766 284 c 0
 673.5 438 633.46 626 417.46 626 c 0
 325.761 626 320.088 597.9 305.431 536 c 0
 285.476 452 274.16 403 256.519 320 c 0
 238.876 237 229.404 191.5 214.669 109 c 0
285.599 645 m 0
 323.499 645 392.662 650 460.562 650 c 0
 652.562 650 774.003 494 734.468 308 c 0
 682.179 62 480.337 -5 339.337 -5 c 0
 236.337 -5 185.4 0 149.5 0 c 0
 98.7998 0 67.6494 -4 18.4375 -5 c 1
 13.7129 1 16.0508 12 23.3262 18 c 1
 93.9639 21 110.026 26 129.669 109 c 0
 149.311 192 160.089 238 177.73 321 c 0
 195.373 404 204.788 453 220.431 536 c 0
 236.072 619 222.136 624 152.773 627 c 1
 148.048 633 150.387 644 157.662 650 c 1
 207.449 649 235.299 645 285.599 645 c 0
EndSplineSet
LCarets2: 1 0 
Colour: ff00ff
EndChar

